<?xml version="1.0" encoding="UTF-8"?>
<svg width="800px" height="800px" viewBox="0 0 800 800" version="1.1" xmlns="http://www.w3.org/2000/svg" xmlns:xlink="http://www.w3.org/1999/xlink">
    <!-- Generator: Sketch 54.1 (76490) - https://sketchapp.com -->
    <title>Artboard Copy</title>
    <desc>Created with Sketch.</desc>
    <defs>
        <filter x="-1.0%" y="-1.0%" width="102.0%" height="102.0%" filterUnits="objectBoundingBox" id="filter-1">
            <feOffset dx="1" dy="2" in="SourceAlpha" result="shadowOffsetOuter1"></feOffset>
            <feGaussianBlur stdDeviation="1" in="shadowOffsetOuter1" result="shadowBlurOuter1"></feGaussianBlur>
            <feColorMatrix values="0 0 0 0 0   0 0 0 0 0   0 0 0 0 0  0 0 0 0.04 0" type="matrix" in="shadowBlurOuter1" result="shadowMatrixOuter1"></feColorMatrix>
            <feMerge>
                <feMergeNode in="shadowMatrixOuter1"></feMergeNode>
                <feMergeNode in="SourceGraphic"></feMergeNode>
            </feMerge>
        </filter>
        <rect id="path-2" x="0" y="0" width="800" height="800" rx="4"></rect>
        <rect id="path-4" x="0.303030303" y="0" width="506" height="436"></rect>
    </defs>
    <g id="Artboard-Copy" stroke="none" stroke-width="1" fill="none" fill-rule="evenodd">
        <g id="Group-3">
            <g id="Elements-/-Users-/-Grid-/-Recommended-Copy">
                <g id="BG" filter="url(#filter-1)">
                    <mask id="mask-3" fill="white">
                        <use xlink:href="#path-2"></use>
                    </mask>
                    <use id="Mask" fill="#FDFDFD" xlink:href="#path-2"></use>
                </g>
            </g>
            <g id="Fill-1" transform="translate(156.696970, 137.000000)">
                <mask id="mask-5" fill="white">
                    <use xlink:href="#path-4"></use>
                </mask>
                <g id="Mask"></g>
                <path d="M248.151515,511.151515 C111.099135,511.151515 8.52651283e-14,396.792768 8.52651283e-14,255.727273 C8.52651283e-14,114.661778 111.099135,0.303030303 248.151515,0.303030303 C385.200434,0.303030303 496.30303,114.661778 496.30303,255.727273 C496.30303,396.792768 385.200434,511.151515 248.151515,511.151515 Z" fill="#F7F7F7" mask="url(#mask-5)"></path>
            </g>
            <path d="M400,601.606061 C270.127431,601.606061 164.848485,590.508012 164.848485,576.818182 C164.848485,563.128352 270.127431,552.030303 400,552.030303 C529.869289,552.030303 635.151515,563.128352 635.151515,576.818182 C635.151515,590.508012 529.869289,601.606061 400,601.606061 Z" id="Fill-1" fill="#EEEEEE"></path>
        </g>
        <g id="Group-3" transform="translate(-224.000000, -1043.000000)">
            <g id="Group-8" transform="translate(622.454617, 1502.916610) rotate(46.000000) translate(-622.454617, -1502.916610) translate(505.454617, 1394.916610)">
                <path d="M85.1558386,37.5852869 C82.1233097,42.0293761 76.9121634,48.2850806 70.5936008,54.8557656 C64.3703408,61.3080943 58.4234584,66.6723085 54.1024384,69.88511 L53.9823571,69.7113935 C53.9823571,69.7113935 52.6557449,68.4266546 50.4351942,66.2695152 C38.4080057,54.5369671 -0.0732793159,16.8652941 0.439448688,14.7444251 C0.439448688,14.7444251 36.4523963,30.3483703 53.8432153,7.99238759 L53.8641819,7.99429656 C59.8320309,12.8259072 74.7335459,27.3493737 81.5896152,34.0842305 C83.7891992,36.24137 85.1558386,37.5852869 85.1558386,37.5852869" id="Fill-29" fill="#E4E4E4"></path>
                <path d="M47.2098926,73.2539014 C46.5751773,72.6602108 48.0695221,69.5485848 50.0136952,66.5839498 C52.2342458,68.7410892 53.5608581,70.0258281 53.5608581,70.0258281 L53.6809393,70.1995446 C50.2862606,72.7365697 47.9036956,73.9258599 47.2098926,73.2539014" id="Fill-30" fill="#C9C9C7"></path>
                <path d="M88.3254897,31.7251025 C89.0002321,32.3779713 87.9633398,34.7164632 85.6722652,38.0953454 C85.6722652,38.0953454 84.3056259,36.7514284 82.1060418,34.594289 C85.3672969,32.1794381 87.6526533,31.0703248 88.3254897,31.7251025" id="Fill-31" fill="#C9C9C7"></path>
                <path d="M137.524706,63.0795314 C140.238924,65.6910064 129.244816,81.5183015 112.976662,98.4031676 C96.7104136,115.309032 81.3171371,126.883136 78.602919,124.252571 C78.5381132,122.608945 80.9187723,112.447482 82.5274802,109.274769 C82.5274802,109.274769 90.3156089,104.34771 104.201198,89.9387814 C118.086787,75.5164904 122.726118,67.5484371 122.726118,67.5484371 C122.726118,67.5484371 132.708113,63.1539813 137.524706,63.0795314" id="Fill-32" stroke="#BBBBBB" fill="#FBFBFB"></path>
                <path d="M209.539776,191.67177 C193.273527,208.581453 175.22512,217.578443 172.709132,215.155956 L78.6016234,124.252571 C81.3158415,126.883136 96.709118,115.309032 112.975366,98.4031676 C129.243521,81.5183015 140.237629,65.6910064 137.523411,63.0795314 L232.681154,154.9794 C235.199049,157.422886 225.80793,174.788813 209.539776,191.67177 Z" id="Fill-33" stroke="#BBBBBB" fill="#FBFBFB"></path>
                <path d="M123.833823,66.8710379 C123.833823,66.8710379 119.194492,74.8390911 105.308903,89.2613821 C91.4233134,103.67031 83.6351847,108.59737 83.6351847,108.59737 L47.0618577,73.2641884 C47.7556607,73.9361469 50.1382257,72.7468567 53.5329045,70.2098316 C57.8539245,66.9970301 63.8008069,61.632816 70.0240669,55.1804872 C76.3426295,48.6098022 81.5537758,42.3540977 84.5863046,37.9100086 C86.8773792,34.5311264 87.9142715,32.1926344 87.2395291,31.5397657 L123.833823,66.8710379 Z" id="Fill-34" stroke="#BBBBBB" fill="#EEEEEE"></path>
                <path d="M0.434373581,11.391885 C1.01953156,8.90067525 41.0714035,-5.69342329 53.8381402,4.63984752 C36.4473212,26.9958303 0.434373581,11.391885 0.434373581,11.391885" id="Fill-35" stroke="#BBBBBB" fill="#EEEEEE"></path>
                <path d="M93.311319,49.1233923 C93.311319,49.1233923 93.7687715,49.211205 94.4873532,49.4498266 C95.211653,49.6827214 96.1989879,50.0664249 97.3121223,50.6066643 C99.5402972,51.687143 102.176367,53.4949404 104.49222,55.6539889 C106.823322,57.7977656 108.845643,60.2794304 110.145571,62.3831187 C110.791722,63.4368718 111.279672,64.3722685 111.588452,65.0614078 C111.901045,65.7486381 112.040187,66.1838839 112.040187,66.1838839 C112.625345,68.018407 111.615137,69.9789222 109.785327,70.5649769 C109.184921,70.7577832 108.557829,70.773055 107.984108,70.6508807 C107.984108,70.6508807 107.538092,70.5535231 106.827134,70.3053566 C106.110459,70.062917 105.136466,69.6658507 104.027144,69.1198844 C101.814217,68.0241339 99.1533686,66.2411531 96.8051125,64.1183751 C94.4397019,62.0146869 92.394508,59.5540207 91.1098289,57.4369697 C90.4655833,56.3774896 89.9909764,55.4287301 89.6917262,54.728137 C89.3848518,54.0351798 89.2571463,53.5884801 89.2571463,53.5884801 C88.7101094,51.7119596 89.7889348,49.7476264 91.6644901,49.2016602 C92.2134331,49.0413064 92.7871547,49.0241257 93.311319,49.1233923" id="Fill-36" fill="#FFFFFE"></path>
                <path d="M139.232431,80.9259147 C139.232431,80.9259147 139.958636,81.2828927 141.148013,81.9987576 C142.339295,82.7146224 144.016621,83.7569217 145.911237,85.1352002 C149.772899,87.8134893 154.530404,91.795607 158.981036,96.1003411 C161.216835,98.2402998 163.361144,100.477616 165.320565,102.629029 C166.311712,103.692327 167.199933,104.791895 168.078623,105.797924 C168.963031,106.800135 169.734982,107.809981 170.465,108.726288 C171.921223,110.56272 173.055324,112.177712 173.827276,113.328822 C174.601133,114.479933 175.00331,115.180526 175.00331,115.178617 C175.866751,116.688615 175.346399,118.610951 173.840618,119.475715 C172.887592,120.023591 171.749679,120.00641 170.83668,119.544438 C170.83668,119.542529 170.120004,119.174098 168.936346,118.452506 C167.754594,117.729005 166.094422,116.667616 164.195994,115.293156 C163.250593,114.604016 162.206076,113.876698 161.169184,113.034841 C160.122761,112.204437 158.98866,111.360671 157.88315,110.417639 C155.649257,108.55639 153.323874,106.508062 151.086168,104.368103 C146.59551,100.109184 142.409819,95.5257402 139.564084,91.7822442 C138.105954,89.9496301 136.989007,88.3174582 136.222774,87.1587116 C135.456542,85.999965 135.065801,85.287918 135.065801,85.287918 C134.223326,83.7588307 134.777987,81.8345859 136.306641,80.9908198 C137.240606,80.4753971 138.340398,80.4906689 139.232431,80.9259147" id="Fill-37" fill="#FFFFFE"></path>
            </g>
            <g id="Group-9" transform="translate(491.816055, 1437.203724) rotate(37.000000) translate(-491.816055, -1437.203724) translate(368.816055, 1285.203724)">
                <path d="M227.956641,302.031833 C220.881376,298.414329 148.03016,217.548324 105.132552,169.539562 C105.132552,169.539562 116.206715,166.469933 132.814146,154.168511 C152.280656,139.727131 155.038713,133.1679 155.038713,133.1679 C187.794218,189.71168 242.970613,285.120241 244.655563,289.268439 C247.737649,296.83179 235.960154,306.145669 227.956641,302.031833 Z" id="Fill-123" stroke="#BBBBBB" fill="#FBFBFB"></path>
                <path d="M154.641932,132.165434 C154.641932,132.165434 151.883875,138.724665 132.417365,153.166046 C115.809934,165.467468 104.735771,168.537096 104.735771,168.537096 C86.4472017,148.063361 73.5927866,133.56662 73.5927866,133.56662 C73.5927866,133.56662 91.696469,124.399732 104.257352,115.078217 C116.795363,105.779609 130.84106,91.1148786 130.84106,91.1148786 C130.84106,91.1148786 140.710598,108.1391 154.641932,132.165434" id="Fill-124" stroke="#BBBBBB" fill="#EEEEEE"></path>
                <path d="M99.3666605,2.34556173 C116.608807,10.1971677 131.420738,91.6625902 131.420738,91.6625902 C131.420738,91.6625902 117.37504,106.327321 104.83703,115.625928 C92.2761468,124.947443 74.1724643,134.114332 74.1724643,134.114332 C74.1724643,134.114332 6.68487905,97.8419358 1.22594595,80.6020007 C0.0746905013,76.9806789 -0.239808089,73.1627329 0.173805208,69.2340665 C0.692251369,64.039751 2.47250399,58.6507202 5.27249447,53.2330548 C8.49944061,46.9620786 13.0987442,40.6681946 18.6586981,34.6072053 C23.1646052,29.7164165 28.3052276,24.9630738 33.8766177,20.5342564 C34.1453711,20.3128156 34.4141244,20.1009195 34.7000322,19.9004774 C41.9754329,14.2327366 49.8188372,9.77337565 57.5593146,6.52239464 C65.2826375,3.26950466 72.9049397,1.22881253 79.762915,0.425134896 C87.6082253,-0.525533655 94.4490462,0.119699217 99.3666605,2.34556173 Z" id="Fill-125" stroke="#BBBBBB" fill="#E4E4E4"></path>
                <path d="M4.95343953,73.0747664 C6.19046732,73.949076 7.62572452,74.9646496 9.20393562,76.0203117 C10.7688044,77.0893366 12.438506,78.2309024 14.1082076,79.3724683 C15.735976,80.5693943 17.4380805,81.6651448 19.0277279,82.6998082 C20.6116572,83.7421075 22.0621628,84.7595901 23.3220632,85.6090831 C25.8208975,87.3367036 27.4562902,88.5489015 27.4562902,88.5489015 L27.4715386,88.5603553 C27.6945467,88.726436 27.742198,89.0414165 27.5763714,89.2647663 C27.4257933,89.4709354 27.1494158,89.5262956 26.9321258,89.4060303 C26.9321258,89.4060303 25.1480611,88.4324541 22.5196153,86.882368 C19.91023,85.3036474 16.3783156,83.2705911 13.0389124,80.9416441 C11.376835,79.7638077 9.71666363,78.5821535 8.16132515,77.4787671 C6.58311404,76.4097422 5.23172313,75.220452 4.02519218,74.2812373 C1.62166053,72.3722643 0.161624649,70.9615333 0.161624649,70.9634422 C-0.0461350254,70.7630001 -0.0518531816,70.4442016 0.140658077,70.2418504 C0.316014866,70.060498 0.594298467,70.0394993 0.794433933,70.1807633 C0.794433933,70.1807633 2.45651133,71.3662355 4.95343953,73.0747664 Z" id="Fill-126" fill="#FFFFFF"></path>
                <path d="M9.2140036,55.6397057 C12.1455117,57.5104992 16.0510123,60.0112539 19.8364317,62.6971789 C21.7215172,64.0487317 23.6066027,65.4002846 25.375419,66.6659337 C27.1575777,67.9048572 28.6976678,69.2678639 30.0681192,70.3502516 C32.770901,72.5684782 34.5225629,74.0937476 34.5225629,74.0937476 C34.7322286,74.2751001 34.7551012,74.5919896 34.5721202,74.8000676 C34.4043876,74.9928739 34.1203859,75.0272354 33.9145323,74.8878804 L33.8668809,74.8535189 C33.8668809,74.8535189 31.9474865,73.5554173 29.14559,71.5376328 C28.4479749,71.027937 27.6931783,70.4781528 26.8945425,69.897825 C26.1111551,69.2984075 25.2248409,68.7371694 24.3366206,68.1148442 C22.5525559,66.8816477 20.652222,65.5701832 18.7499821,64.2549008 C16.8687087,62.9128928 14.9893413,61.5670668 13.1957464,60.3491421 C11.4078695,59.1254904 9.78391317,57.9094746 8.36962254,56.9053548 C5.55438365,54.8703896 3.7036071,53.4711124 3.7036071,53.4711124 C3.48250506,53.3031228 3.43866586,52.9862332 3.60639844,52.7647924 C3.76078866,52.5605323 4.04288436,52.50899 4.2601743,52.6330732 C4.2601743,52.6330732 6.27487133,53.782275 9.2140036,55.6397057 Z" id="Fill-127" fill="#FFFFFF"></path>
                <path d="M23.1603267,39.7902505 C26.0136867,42.5773511 29.7323942,46.3762073 33.4339473,50.1941533 C35.2618513,52.124125 37.0916612,54.0540967 38.805202,55.8638031 C40.4977763,57.6945082 42.0759874,59.403039 43.4292843,60.8691303 C46.1149117,63.8204025 47.8570433,65.8324601 47.8570433,65.8324601 C48.0400243,66.0424471 48.0190577,66.3612456 47.809392,66.544507 C47.6149747,66.7124966 47.3214426,66.7048607 47.1346495,66.5330532 C47.1346495,66.5330532 45.1923825,64.7138019 42.3466468,61.9152475 C40.9361682,60.5064254 39.2893393,58.8627997 37.5262411,57.1027266 C35.7841095,55.3197458 33.9257088,53.4184087 32.0692141,51.5151626 C28.3981578,47.670491 24.744256,43.8067297 22.0681589,40.8478215 C19.3806255,37.8984582 17.6442121,35.8787648 17.6442121,35.8787648 C17.4631371,35.6687778 17.4860097,35.3499793 17.6956755,35.1667179 C17.8919988,34.9968193 18.1817187,35.0063642 18.3666058,35.1781717 C18.3666058,35.1781717 20.3184031,36.9897871 23.1603267,39.7902505 Z" id="Fill-128" fill="#FFFFFF"></path>
                <path d="M40.2687399,26.4971235 C42.8285678,29.7080161 46.2346829,33.9802976 49.4711593,38.4110239 C51.074149,40.6349775 52.6790449,42.858931 54.1810139,44.9454385 C55.6582042,47.0472178 57.0343738,49.011551 58.2161261,50.6914472 C60.5529459,54.0722384 62.054915,56.361097 62.054915,56.361097 C62.2073991,56.5920827 62.1425934,56.9032453 61.9119611,57.0540542 C61.6965772,57.1991362 61.4106694,57.1514118 61.2486549,56.9566966 L61.2200642,56.9166082 C61.2200642,56.9166082 59.4874628,54.7900122 56.9790983,51.5485761 C55.7363524,49.9183132 54.2858468,48.018885 52.7324143,45.9839198 C51.2075727,43.9279559 49.5798042,41.7383639 47.9501297,39.5487719 C46.3585762,37.3324542 44.7327138,35.1333173 43.1888117,33.0849893 C41.6430034,31.0385702 40.272552,29.0723281 39.0603029,27.4172485 C36.6663015,24.0822727 35.1300236,21.8125038 35.1300236,21.8125038 C34.9756333,21.581518 35.034721,21.2684465 35.2653533,21.1119107 C35.4788311,20.9668287 35.7666449,21.0126441 35.9305654,21.2035414 C35.9305654,21.2035414 37.7031938,23.2919578 40.2687399,26.4971235 Z" id="Fill-129" fill="#FFFFFF"></path>
                <path d="M60.0270447,12.5845829 C61.8130155,15.7973844 64.0869356,20.1345711 66.3379831,24.4832116 C67.4377751,26.6689857 68.5375671,28.8585777 69.5668352,30.9088147 C70.5922912,32.9647786 71.5014781,34.9062041 72.3058321,36.5574658 C73.8840432,39.8752608 74.8770963,42.1183041 74.8770963,42.1183041 C74.9914594,42.3741065 74.8770963,42.6699973 74.6235914,42.7845357 C74.3872409,42.8895292 74.1127694,42.7998075 73.9831579,42.5802756 C73.9831579,42.5802756 72.742318,40.4651335 70.9696896,37.246605 C70.0986238,35.6316139 69.0541072,33.7570024 67.984812,31.7277641 C66.921235,29.6927989 65.785228,27.5242056 64.651127,25.3537033 C62.4362945,20.985973 60.2424286,16.606789 58.6775598,13.281358 C57.0974427,9.96356298 56.1139198,7.71670176 56.1139198,7.71670176 C56.0014627,7.46089938 56.1158259,7.16500857 56.3712368,7.05237916 C56.6056812,6.94738565 56.8782467,7.03901635 57.0078582,7.2547303 C57.0078582,7.2547303 58.2563223,9.36605443 60.0270447,12.5845829 Z" id="Fill-130" fill="#FFFFFF"></path>
                <path d="M80.2825672,5.58917581 C81.5882129,8.77334277 83.2159814,13.0608961 84.8189711,17.3560853 C85.5928283,19.5151338 86.3666854,21.6741823 87.0909852,23.6957847 C87.8114729,25.723114 88.4347519,27.632087 88.9913191,29.256623 C90.0777688,32.5228758 90.7391688,34.7239217 90.7391688,34.7239217 C90.819223,34.9892689 90.6686449,35.2698879 90.4037037,35.3519738 C90.1559169,35.4245147 89.8985999,35.3004315 89.7956731,35.0694458 C89.7975791,35.0694458 88.8731439,32.9676665 87.5827466,29.7777726 C86.9518434,28.1780533 86.1875165,26.3206225 85.4212836,24.3142919 C84.6607688,22.3041434 83.8487906,20.1584577 83.0387185,18.014681 C81.4719437,13.70422 79.9299476,9.3861231 78.8587464,6.11605236 C77.7703906,2.84979957 77.1185208,0.648753704 77.1185208,0.648753704 C77.0384666,0.379588511 77.1909508,0.0989694812 77.4577981,0.0207015885 C77.7036788,-0.0518393853 77.9590898,0.0722438593 78.0601105,0.299411646 C78.0601105,0.299411646 78.994076,2.39928194 80.2825672,5.58917581 Z" id="Fill-131" fill="#FFFFFF"></path>
                <path d="M127.61424,108.935955 C127.61424,108.935955 128.039289,109.123034 128.685441,109.518192 C129.339217,109.907622 130.216001,110.505131 131.180463,111.280174 C133.107482,112.834078 135.272757,115.187841 137.045385,117.812679 C138.83898,120.424154 140.253271,123.299068 141.050001,125.63756 C141.444553,126.811578 141.709495,127.832879 141.856261,128.575469 C142.006839,129.312333 142.04496,129.770486 142.04496,129.770486 C142.205068,131.687095 140.781247,133.372718 138.865665,133.531163 C138.238574,133.584614 137.624825,133.460531 137.093037,133.210455 C137.093037,133.210455 136.679423,133.01574 136.042802,132.616765 C135.398556,132.217789 134.537021,131.610736 133.578277,130.831875 C131.668412,129.264608 129.474546,126.931843 127.661891,124.33564 C125.826363,121.750891 124.383481,118.896976 123.605812,116.545121 C123.216978,115.369194 122.965379,114.338348 122.830049,113.586213 C122.687095,112.841714 122.66041,112.377833 122.66041,112.377833 C122.549859,110.426863 124.042298,108.754602 125.992189,108.641973 C126.562099,108.611429 127.124384,108.72215 127.61424,108.935955" id="Fill-132" fill="#FFFFFE"></path>
                <path d="M152.44199,151.485979 C152.44199,151.485979 153.048115,152.026218 154.008765,153.028429 C154.969415,154.03064 156.311276,155.481459 157.778936,157.310255 C160.796216,160.916305 164.339567,166.011354 167.499801,171.339298 C169.091355,173.99277 170.572357,176.716875 171.895157,179.30926 C172.571806,180.595908 173.141715,181.890192 173.723061,183.094754 C174.312031,184.293589 174.79045,185.473334 175.253621,186.549995 C176.17615,188.705225 176.845175,190.560747 177.287379,191.876029 C177.731489,193.191312 177.93353,193.972082 177.93353,193.972082 C178.370016,195.655796 177.361715,197.371963 175.680577,197.811026 C174.617,198.087827 173.524832,197.770938 172.766223,197.081799 C172.766223,197.081799 172.173441,196.535832 171.222321,195.527895 C170.269295,194.518048 168.948401,193.055775 167.478835,191.228887 C166.746911,190.31258 165.933027,189.337095 165.151545,188.252799 C164.364346,187.174229 163.489468,186.063207 162.673678,184.860554 C161.009694,182.474337 159.301871,179.88577 157.708412,177.230388 C154.496714,171.934897 151.666227,166.41033 149.905035,162.050235 C148.9806,159.895005 148.332542,158.02612 147.899868,156.705111 C147.465288,155.384102 147.274683,154.595696 147.274683,154.595696 C146.864882,152.898619 147.907492,151.188179 149.601973,150.77775 C150.640771,150.525765 151.694818,150.83311 152.44199,151.485979" id="Fill-133" fill="#FFFFFE"></path>
            </g>
            <g id="Group-4" transform="translate(787.221175, 1502.247169) rotate(-8.000000) translate(-787.221175, -1502.247169) translate(715.221175, 1381.747169)">
                <path d="M64.2493297,59.3937003 C34.6969761,55.0071269 0.217032539,52.7009223 0.217032539,52.7009223 C0.0889453407,73.759154 -0.00712005779,98.8288421 0.000414483273,123.217195 C0.00606538907,137.159685 0.0475053649,150.86677 0.139803493,163.458073 L0.15675621,163.481039 C1.35851551,164.032232 52.0829295,187.999535 92.6639677,177.218746 C96.4444237,165.9882 100.498007,153.848568 104.600564,141.477359 C112.32912,118.252635 120.240388,94.2183467 126.912224,73.8318808 C123.160023,72.7007879 92.8447967,63.6424756 64.2493297,59.3937003" id="Fill-134" stroke="#BBBBBB" fill="#FBFBFB"></path>
                <path d="M92.5072115,178.867263 C88.3895848,191.138951 84.5940597,202.313996 81.4088325,211.527331 C81.4088325,211.527331 63.7968428,216.690933 42.1519899,213.456505 C19.4485341,210.095762 1.3034756,199.948461 0.519883333,199.504445 C0.275010749,189.84518 0.109250845,178.074924 2.66453526e-14,165.129556 C1.2017593,165.680749 51.9261733,189.648052 92.5072115,178.867263" id="Fill-135" stroke="#BBBBBB" fill="#EEEEEE"></path>
                <path d="M80.8889492,212.28639 C75.6825813,227.329352 72.0904888,237.122587 71.3935438,237.784784 C68.019953,240.917777 52.0542605,241.262272 38.0456651,239.168506 C21.81438,236.768523 5.81478206,231.928364 1.74989716,226.357109 C0.936166726,225.220275 0.3578907,215.329432 5.32907052e-15,200.263505 C0.78359227,200.707521 18.9286508,210.854821 41.6321066,214.215564 C63.2769594,217.449992 80.8889492,212.28639 80.8889492,212.28639" id="Fill-136" stroke="#BBBBBB" fill="#E4E4E4"></path>
                <path d="M99.0829822,9.26059696 C125.734538,15.4595984 143.678047,22.5121826 143.678047,22.5121826 C143.678047,22.5121826 136.514582,44.4890685 126.717795,74.3702075 L126.695192,74.3663797 C122.94299,73.2352868 92.6277641,64.1769745 64.0322972,59.9281992 C34.4799435,55.5416258 -1.0658141e-14,53.2354212 -1.0658141e-14,53.2354212 C0.188363526,23.1303603 0.408748852,1.21663186 0.408748852,1.21663186 C2.80284927,0.962088113 5.17434607,0.747735486 7.5797483,0.594626466 C26.8003625,-0.791010159 46.0511149,0.376446114 63.7723555,2.73815274 C71.4331001,3.78312179 78.7943468,5.01947713 85.7411936,6.40702761 C90.39754,7.30462924 94.8561047,8.27304379 99.0829822,9.26059696" id="Fill-137" stroke="#BBBBBB" fill="#EEEEEE"></path>
                <path d="M0.486085988,196.75011 L0.50492234,196.75011 L0.717773125,196.79987 L0.744144019,196.815181 C2.27742312,197.60752 3.8464913,198.371152 5.43439583,199.073539 C7.02041672,199.781668 8.60267034,200.497453 10.2263639,201.119458 C11.8331048,201.773999 13.4247766,202.470646 15.0673066,203.031407 C16.702302,203.611308 18.3203447,204.240969 19.9685255,204.782592 L24.9281372,206.332821 C26.5668999,206.901238 28.2659389,207.253389 29.9367233,207.699319 C31.6206933,208.097402 33.2801759,208.614145 34.9810986,208.914621 L40.0782156,209.854328 C40.9164333,210.001695 41.8055092,210.21222 42.596636,210.307913 L45.1922854,210.596907 C46.9233462,210.780638 48.6562906,211.000732 50.3835841,211.153841 L55.533443,211.322261 C57.247551,211.423695 58.9767282,211.343313 60.7021381,211.299294 C62.4294317,211.251448 64.1604925,211.245706 65.8821351,211.05432 C67.6000105,210.880158 69.3348385,210.820829 71.0451794,210.554802 C72.7574038,210.323224 74.4846974,210.156718 76.1818527,209.82562 C77.8884263,209.546196 79.5968835,209.203615 81.2563661,208.794048 L81.2770861,208.79022 C81.5426787,208.723235 81.8120385,208.887827 81.8760821,209.159596 C81.9401257,209.423709 81.7856676,209.687822 81.5313769,209.762463 C79.8248033,210.261981 78.127648,210.671547 76.407889,211.027526 C74.6975481,211.433265 72.9627201,211.674411 71.2335429,211.982543 C69.508133,212.309814 67.7544686,212.397852 66.0139896,212.61986 C64.271627,212.851437 62.5160789,212.899284 60.7661817,212.989235 C59.0125173,213.069617 57.2607365,213.207416 55.4938866,213.105981 L50.2008715,212.968183 C48.4585089,212.828471 46.733099,212.621774 45.0001546,212.453354 L42.4026215,212.183499 C41.4645712,212.074409 40.6527244,211.883022 39.7730667,211.735655 L34.596837,210.755757 C32.8695435,210.434228 31.1931081,209.898347 29.4884182,209.481125 C27.7969137,209.014142 26.0790383,208.642853 24.4214393,208.055297 L19.4203877,206.405547 C17.7703232,205.817991 16.1466296,205.142398 14.5097505,204.516565 C12.8634533,203.907956 11.2698979,203.167292 9.663157,202.464904 C8.05264885,201.768258 6.48358067,200.975919 4.91262886,200.191235 C3.33790978,199.410379 1.79709613,198.579763 0.263817026,197.697472 L0.50492234,197.760629 L0.486085988,197.760629 C0.211075239,197.754888 -0.00554281646,197.52331 0.000108089334,197.243886 C0.00575899513,196.974032 0.220493415,196.755851 0.486085988,196.75011" id="Fill-138" fill="#FFFFFF"></path>
                <path d="M8.75706543,0.44710827 C8.75518179,0.44710827 8.862549,1.26432766 8.90775625,2.48728595 C8.96803258,3.71024425 8.92847624,5.33319985 8.86631627,6.95615546 C8.80415631,7.7657194 8.74387998,8.57528334 8.68548729,9.33508684 C8.62144369,10.0929765 8.51219284,10.797278 8.44249834,11.4039725 C8.27297116,12.6154476 8.09214218,13.4192699 8.09402581,13.4192699 C8.03186585,13.6948662 7.76062237,13.8671138 7.49126253,13.8058702 C7.27652811,13.7541959 7.12583729,13.5762067 7.10135003,13.3656818 C7.10323366,13.3656818 7.00528463,12.5465485 6.95819375,11.3255041 C6.95254284,10.7149819 6.91487014,10.0030249 6.92993922,9.24130757 C6.94877557,8.4795902 6.9713792,7.6681124 6.99209918,6.85663459 C7.09569912,5.23750671 7.22378632,3.61646497 7.40838258,2.40881758 C7.57790975,1.19734246 7.76627328,0.393520113 7.76438964,0.393520113 C7.83031688,0.117923878 8.10344399,-0.052409906 8.37280383,0.01457529 C8.58377098,0.0643357213 8.73069453,0.242324956 8.75706543,0.44710827" id="Fill-139" fill="#FFFFFF"></path>
                <path d="M19.1509824,0.44710827 C19.1490987,0.44710827 19.256466,1.26432766 19.2997896,2.48728595 C19.3600659,3.71024425 19.3205096,5.33511371 19.2583496,6.95615546 C19.1961896,7.76763326 19.1340297,8.5771972 19.075637,9.33700071 C19.013477,10.0948904 18.9004589,10.8011057 18.832648,11.4078002 C18.6612372,12.6173614 18.4822919,13.4211838 18.4841755,13.4211838 C18.4201319,13.69678 18.1507721,13.8690277 17.8795286,13.8077841 C17.6666778,13.7580236 17.515987,13.5762067 17.4896161,13.3695095 C17.4914997,13.3695095 17.3954343,12.5503763 17.3502271,11.327418 C17.3426925,10.7188096 17.3069035,10.0049388 17.3182053,9.24322143 C17.3389253,8.48150406 17.3615289,7.67002626 17.3841325,6.85854846 C17.4877324,5.23750671 17.6158196,3.61646497 17.8004159,2.40690372 C17.9680594,1.19734246 18.1601902,0.393520113 18.1583066,0.393520113 C18.2242338,0.117923878 18.4954773,-0.052409906 18.7667208,0.01457529 C18.9758043,0.0643357213 19.1246115,0.242324956 19.1509824,0.44710827" id="Fill-140" fill="#FFFFFF"></path>
                <path d="M33.2992227,0.459562139 C33.2992227,0.459562139 33.380219,1.25572904 33.3858699,2.43658235 C33.4084735,3.62126339 33.3199426,5.18871698 33.2069245,6.75617056 C33.1221609,7.53702656 33.0355137,8.3159687 32.9545174,9.04897813 C32.8678702,9.77815983 32.7360157,10.4575811 32.6474849,11.0413092 C32.4421686,12.2049378 32.2368524,12.9743106 32.2368524,12.9743106 C32.1652742,13.2460791 31.8883798,13.4087575 31.61902,13.3360307 C31.4099365,13.2786148 31.2667802,13.094884 31.2479438,12.8881868 C31.2479438,12.8881868 31.1763657,12.0939337 31.1688312,10.9111666 C31.180133,10.3216969 31.1650639,9.6307924 31.200853,8.89586911 C31.2460602,8.15903195 31.2912675,7.37626209 31.340242,6.59157837 C31.4928164,5.02986637 31.6698781,3.47006823 31.8902635,2.30643969 C32.0955797,1.14281114 32.3084305,0.373438316 32.3084305,0.373438316 C32.3837759,0.099755944 32.6644376,-0.0571808009 32.9319138,0.0193737088 C33.1391137,0.0787034538 33.276619,0.258606552 33.2992227,0.459562139" id="Fill-141" fill="#FFFFFF"></path>
                <path d="M44.3745793,0.492843489 C44.3745793,0.492843489 44.4047175,1.31197674 44.3387902,2.52727958 C44.2898157,3.74258243 44.1052195,5.34448554 43.896136,6.94447479 C43.7623978,7.74064169 43.6267761,8.53680859 43.5024562,9.2813012 C43.3706017,10.0257938 43.1973073,10.7147844 43.0729873,11.3080818 C42.7942093,12.4889352 42.5436858,13.2678773 42.5436858,13.2678773 C42.4570386,13.5377319 42.1726097,13.6831855 41.9070171,13.5951478 C41.7017009,13.5262488 41.5679628,13.3329486 41.5623119,13.1224237 C41.5623119,13.1224237 41.5397082,12.3032905 41.6037518,11.0918154 C41.6527264,10.4870347 41.6790972,9.77699165 41.7600936,9.02484359 C41.8505081,8.27269554 41.9446898,7.47270091 42.0407552,6.67079242 C42.2875114,5.07654476 42.5625222,3.48612482 42.8544856,2.30718537 C43.13138,1.12441819 43.3913217,0.34738992 43.3913217,0.34738992 C43.4817362,0.0794491364 43.7699324,-0.0640905693 44.0317577,0.0277748424 C44.2370739,0.0985877638 44.3651611,0.288060175 44.3745793,0.492843489" id="Fill-142" fill="#FFFFFF"></path>
                <path d="M54.7854138,4.00644806 C54.7854138,4.00644806 54.8174356,4.82749518 54.7477411,6.04088416 C54.6949993,7.256187 54.5085194,8.86000398 54.2956686,10.4599932 C54.1600469,11.2561601 54.0263088,12.0504132 53.9001052,12.7987335 C53.7644835,13.5413122 53.5893054,14.2303028 53.4668691,14.8236003 C53.1862074,16.0044536 52.9338003,16.7833957 52.9338003,16.7833957 C52.8471531,17.0513365 52.5627242,17.1967901 52.2971316,17.1106663 C52.0899317,17.0398533 51.9561936,16.8465532 51.9505427,16.6360283 C51.9505427,16.6360283 51.9317064,15.8188089 51.9976336,14.6035061 C52.0466081,14.0006393 52.0748626,13.2886824 52.1577426,12.5365343 C52.2500407,11.7863001 52.3442225,10.9843916 52.4402879,10.1824831 C52.692695,8.58823547 52.9677057,6.99781553 53.2634365,5.81887608 C53.5403309,4.63610891 53.8040398,3.85908063 53.8040398,3.85908063 C53.8944543,3.59113985 54.1807669,3.44951401 54.4463594,3.54137942 C54.6479084,3.61219234 54.7778792,3.80166475 54.7854138,4.00644806" id="Fill-143" fill="#FFFFFF"></path>
            </g>
        </g>
    </g>
</svg>