<?xml version="1.0" encoding="UTF-8"?>
<svg width="20px" height="20px" viewBox="0 0 20 20" version="1.1" xmlns="http://www.w3.org/2000/svg" xmlns:xlink="http://www.w3.org/1999/xlink">
    <!-- Generator: Sketch 64 (93537) - https://sketch.com -->
    <title>exclamation-mark</title>
    <desc>Created with Sketch.</desc>
    <g id="Page-1" stroke="none" stroke-width="1" fill="none" fill-rule="evenodd">
        <g id="Desktop---account-blocked" transform="translate(-530.000000, -289.000000)" fill="#DA2A52" fill-rule="nonzero">
            <g id="pop-up-login" transform="translate(484.000000, 141.000000)">
                <g id="Group-8" transform="translate(32.000000, 129.000000)">
                    <g id="exclamation-mark" transform="translate(14.000000, 19.000000)">
                        <path d="M10,0 C4.47747628,0 0,4.47747628 0,10 C0,15.523153 4.47747628,20 10,20 C15.523153,20 20,15.5237822 20,10 C20,4.47747628 15.5230831,0 10,0 Z M10,18.1249694 C5.51252561,18.1249694 1.87503059,14.4874744 1.87503059,10 C1.87503059,5.51252561 5.51252561,1.87503059 10,1.87503059 C14.4874744,1.87503059 18.1249694,5.51252561 18.1249694,10 C18.1249694,14.4874744 14.4874744,18.1249694 10,18.1249694 Z M10.0006293,4.38560552 C9.28440085,4.38560552 8.7424752,4.7593811 8.7424752,5.36311326 L8.7424752,10.9005992 C8.7424752,11.5049606 9.28433093,11.8774777 10.0006293,11.8774777 C10.6993784,11.8774777 11.2587833,11.4893691 11.2587833,10.9005992 L11.2587833,5.36311326 C11.2587134,4.77371405 10.6993784,4.38560552 10.0006293,4.38560552 Z M10.0006293,13.1250044 C9.31250743,13.1250044 8.75247331,13.6850385 8.75247331,14.3737196 C8.75247331,15.0612122 9.31250743,15.6212463 10.0006293,15.6212463 C10.6887511,15.6212463 11.2481559,15.0612122 11.2481559,14.3737196 C11.248086,13.6849686 10.6887511,13.1250044 10.0006293,13.1250044 Z" id="Shape"></path>
                    </g>
                </g>
            </g>
        </g>
    </g>
</svg>