<svg height="16" viewBox="0 0 16 16" width="16" xmlns="http://www.w3.org/2000/svg" xmlns:xlink="http://www.w3.org/1999/xlink"><defs><path id="a" d="m1.19142136 14.8085786c-.31189514-.3118951-.31189514-.8192621 0-1.1311572l5.71277669-5.64206606-5.71277669-5.7127767c-.31189514-.31189514-.31189514-.81926214 0-1.13115728s.81926214-.31189514 1.13115728 0l5.64206602 5.71277669 5.71277674-5.71277669c.3118951-.31189514.8192621-.31189514 1.1311572 0 .3118952.31189514.3118952.81926214 0 1.13115728l-5.71277665 5.64206602 5.71277665 5.71277674c.3118952.3118951.3118952.8192621 0 1.1311572-.3118951.3118952-.8192621.3118952-1.1311572 0l-5.64206606-5.71277665-5.7127767 5.71277665c-.31189514.3118952-.81926214.3118952-1.13115728 0z"/><mask id="b" fill="#fff"><use fill="none" xlink:href="#a"/></mask></defs><g fill="none" fill-rule="evenodd" transform=""><use fill="#000" fill-rule="nonzero" xlink:href="#a"/><g fill="#fff" mask="url(#b)"><path d="m0 0h24v24h-24z" transform="translate(-4 -4)"/></g></g></svg>