<?xml version="1.0" encoding="UTF-8"?>
<svg width="13px" height="13px" viewBox="0 0 13 13" version="1.1" xmlns="http://www.w3.org/2000/svg" xmlns:xlink="http://www.w3.org/1999/xlink">
    <!-- Generator: Sketch 48.2 (47327) - http://www.bohemiancoding.com/sketch -->
    <title>icon_close</title>
    <desc>Created with Sketch.</desc>
    <defs></defs>
    <g id="Page-1" stroke="none" stroke-width="1" fill="none" fill-rule="evenodd">
        <g id="icon_close" fill="#8C8582" fill-rule="nonzero">
            <path d="M0.262512944,12.7374871 C0.612530204,13.0875043 1.18153262,13.0875043 1.53154988,12.7374871 L6.5,7.76903693 L11.4684501,12.7374871 C11.8184674,13.0875043 12.3874698,13.0875043 12.7374871,12.7374871 C13.0875043,12.3874698 13.0875043,11.8184674 12.7374871,11.4684501 L7.76903693,6.5 L12.7374871,1.53154988 C13.0875043,1.18153262 13.0875043,0.612530204 12.7374871,0.262512944 C12.3874698,-0.0875043148 11.8184674,-0.0875043148 11.4684501,0.262512944 L6.5,5.23096307 L1.53154988,0.262512944 C1.18153262,-0.0875043148 0.612530204,-0.0875043148 0.262512944,0.262512944 C-0.0875043148,0.612530204 -0.0875043148,1.18153262 0.262512944,1.53154988 L5.23096307,6.5 L0.262512944,11.4684501 C-0.0875043148,11.8184674 -0.0875043148,12.3874698 0.262512944,12.7374871 Z" id="Shape"></path>
        </g>
    </g>
</svg>