<?xml version="1.0" encoding="UTF-8"?>
<svg width="20px" height="5px" viewBox="0 0 20 5" version="1.1" xmlns="http://www.w3.org/2000/svg" xmlns:xlink="http://www.w3.org/1999/xlink">
    <!-- Generator: Sketch 48.2 (47327) - http://www.bohemiancoding.com/sketch -->
    <title>logo</title>
    <desc>Created with Sketch.</desc>
    <defs>
        <polygon id="path-1" points="0.00508043807 3.61011619 3.6900261 3.61011619 3.6900261 0.00645927809 0.00508043807 0.00645927809"></polygon>
        <polygon id="path-3" points="0.00953722922 3.61011619 3.69447532 3.61011619 3.69447532 0.00645927809 0.00953722922 0.00645927809"></polygon>
        <polygon id="path-5" points="0 0.0161393293 0 2.45220821 2.76174662 2.45220821 2.76174662 0.0161393293"></polygon>
        <polygon id="path-7" points="2.60629655 0.0154810116 0.0119232532 0.0154810116 0.0119232532 2.38971948 2.60629655 2.38971948 2.60629655 0.0154810116"></polygon>
        <polygon id="path-9" points="0.0213169301 0.0153033356 0.0213169301 3.79384973 3.65039849 3.79384973 3.65039849 0.0153033356"></polygon>
    </defs>
    <g id="Page-1" stroke="none" stroke-width="1" fill="none" fill-rule="evenodd">
        <g id="logo">
            <path d="M9.86698225,2.09612953 C9.86698225,2.37842996 9.63809054,2.60733728 9.35573964,2.60733728 C9.07338875,2.60733728 8.84449704,2.37842996 8.84449704,2.09612953 C8.84449704,1.81375939 9.07338875,1.58485207 9.35573964,1.58485207 C9.63809054,1.58485207 9.86698225,1.81375939 9.86698225,2.09612953" id="Fill-1" fill="#B22655"></path>
            <g id="Group-5" transform="translate(4.038817, 0.690178)">
                <mask id="mask-2" fill="white">
                    <use xlink:href="#path-1"></use>
                </mask>
                <g id="Clip-4"></g>
                <path d="M2.49358417,0.459475533 C2.49842698,0.46407158 2.50383128,0.467981649 2.50860391,0.472646293 C3.04110272,0.993165671 3.03696176,1.84851044 2.50439276,2.36902982 C1.97175358,2.8895492 1.10088957,2.88941201 0.568390765,2.36896122 C0.563618138,2.36429658 0.559547368,2.35901456 0.554844927,2.35428132 L0.00508043807,2.89167573 C0.00978287912,2.89634037 0.0142045774,2.90127941 0.0189772042,2.90594405 C0.864433994,3.732272 2.20848991,3.732272 3.05387651,2.90601265 C3.89919293,2.0797533 3.90354444,0.761922811 3.05808765,-0.0644051327 C3.05331503,-0.0690697766 3.04826166,-0.073391432 3.04348903,-0.0779874781 L2.49358417,0.459475533 Z" id="Fill-3" fill="#B22655" mask="url(#mask-2)"></path>
            </g>
            <path d="M4.65438687,3.07233197 C4.12863912,2.55636822 4.12144475,1.7088154 4.65005628,1.19461796 C5.17859796,0.680556384 6.05435527,0.68340964 6.5848527,1.19475383 L7.13183432,0.662757503 C6.29016295,-0.15130353 4.94299982,-0.154156785 4.10307466,0.662621634 C3.26321935,1.47953592 3.27048356,2.7856477 4.1074751,3.60426036 L4.65438687,3.07233197 Z" id="Fill-6" fill="#B22655"></path>
            <g id="Group-10" transform="translate(15.771834, 0.690178)">
                <mask id="mask-4" fill="white">
                    <use xlink:href="#path-3"></use>
                </mask>
                <g id="Clip-9"></g>
                <path d="M2.4128314,0.459406936 C2.41767421,0.46407158 2.42307851,0.467981649 2.42785113,0.472646293 C2.96034994,0.993165671 2.95620899,1.84851044 2.42363999,2.36896122 C1.89100081,2.8895492 1.0201368,2.88941201 0.487637991,2.36896122 C0.482865364,2.36429658 0.47886478,2.35901456 0.474092153,2.35428132 L-0.0756723355,2.89167573 C-0.0709698944,2.89634037 -0.0665481961,2.90127941 -0.0617755694,2.90594405 C0.78368122,3.732272 2.12773713,3.732272 2.97312374,2.90601265 C3.81844016,2.0797533 3.82279167,0.761922811 2.97733488,-0.0644051327 C2.97256225,-0.0690697766 2.96757907,-0.073391432 2.96273626,-0.0779874781 L2.4128314,0.459406936 Z" id="Fill-8" fill="#B22655" mask="url(#mask-4)"></path>
            </g>
            <path d="M16.3107349,3.07233197 C15.7849758,2.55636822 15.7777813,1.7088154 16.3064042,1.19461796 C16.8349572,0.680556384 17.7107333,0.68340964 18.2412422,1.19475383 L18.7881657,0.662757503 C17.9465461,-0.15130353 16.599354,-0.154156785 15.7594108,0.662621634 C14.9195375,1.47953592 14.9268019,2.7856477 15.7638812,3.60426036 L16.3107349,3.07233197 Z" id="Fill-11" fill="#B22655"></path>
            <path d="M14.3002087,3.07374821 C14.264445,3.03812462 14.1993886,3.0321175 14.1520052,3.07374821 C13.9030511,3.27596449 13.600869,3.412801 13.2453198,3.412801 C12.8723061,3.412801 12.5455626,3.25975925 12.3094111,3.01633136 L11.7330178,3.59483058 C12.1176511,3.96545565 12.6417905,4.19218935 13.2215933,4.19218935 C13.749003,4.19218935 14.25867,4.00778486 14.6616026,3.61501728 C14.7030718,3.57338657 14.7149698,3.49613227 14.6674473,3.45450156 L14.3002087,3.07374821 Z" id="Fill-13" fill="#B22655"></path>
            <g id="Group-17" transform="translate(0.000000, 1.789349)">
                <mask id="mask-6" fill="white">
                    <use xlink:href="#path-5"></use>
                </mask>
                <g id="Clip-16"></g>
                <path d="M1.64249302,0.0161393293 L1.06016817,0.586024782 C1.08695469,0.59720036 1.1138117,0.608444922 1.14066872,0.619068619 C1.64510118,0.818780323 1.90323865,1.02435576 1.90323865,1.32409577 C1.90323865,1.57671901 1.66913856,1.77643071 1.35679364,1.77643071 C0.966626825,1.77643071 0.696435426,1.59431019 0.450351895,1.41225866 C0.396214928,1.37114357 0.294214678,1.37114357 0.246139924,1.45337375 L0.0300854916,1.8175458 C-0.0239809846,1.91171038 5.63926743e-05,1.94682377 0.0601145905,1.99387157 C0.234156481,2.14080972 0.624464276,2.45220821 1.38090151,2.45220821 C2.22742603,2.45220821 2.76174662,1.89405021 2.76174662,1.28884442 C2.76174662,0.589129109 2.18872656,0.245169677 1.64249302,0.0161393293" id="Fill-15" fill="#B22655" mask="url(#mask-6)"></path>
            </g>
            <g id="Group-20">
                <mask id="mask-8" fill="white">
                    <use xlink:href="#path-7"></use>
                </mask>
                <g id="Clip-19"></g>
                <path d="M1.05888576,2.38971948 L1.63753483,1.81802243 C1.59059841,1.79808917 1.54380209,1.77870961 1.49763626,1.76036824 C1.01433119,1.5658805 0.793589877,1.37720663 0.793589877,1.10028655 C0.793589877,0.876175766 0.978603459,0.687501897 1.31871741,0.687501897 C1.64678201,0.687501897 1.89148191,0.852712655 2.148021,1.01183269 C2.21954651,1.05896655 2.30914605,1.01183269 2.35685307,0.94095887 L2.583549,0.605000337 C2.6253014,0.546031101 2.60736749,0.445880298 2.54782127,0.410581812 C2.42837858,0.322127959 1.96293737,0.0154464052 1.35444514,0.0154464052 C0.405838957,0.0154464052 0.0119232532,0.62264958 0.0119232532,1.14728198 C0.0119232532,1.81193171 0.524160783,2.16415523 1.05888576,2.38971948" id="Fill-18" fill="#B22655" mask="url(#mask-8)"></path>
            </g>
            <g id="Group-23" transform="translate(11.068402, 0.000000)">
                <mask id="mask-10" fill="white">
                    <use xlink:href="#path-9"></use>
                </mask>
                <g id="Clip-22"></g>
                <path d="M0.693413145,3.64816744 L1.26099211,3.08831745 C1.01164581,2.83961009 0.860459096,2.49318396 0.860459096,2.1166428 C0.860459096,1.37706746 1.42566267,0.749062415 2.18732514,0.749062415 C2.5205088,0.749062415 2.85376233,0.878205556 3.10373741,1.09541963 C3.15131511,1.14221163 3.21083964,1.14221163 3.25254873,1.09541963 L3.6154248,0.725494136 C3.6630025,0.678702144 3.6630025,0.608204047 3.60948632,0.561205316 C3.2048313,0.20313287 2.77048388,0.0152757704 2.1695097,0.0152757704 C0.979438291,0.0152757704 0.0213169301,0.960349967 0.0213169301,2.13421564 C0.0213169301,2.81252724 0.341505802,3.40993487 0.841106637,3.79384973 L0.693413145,3.64816744 Z" id="Fill-21" fill="#B22655" mask="url(#mask-10)"></path>
            </g>
        </g>
    </g>
</svg>