<?xml version="1.0" encoding="UTF-8"?>
<svg width="71px" height="16px" viewBox="0 0 71 16" version="1.1" xmlns="http://www.w3.org/2000/svg" xmlns:xlink="http://www.w3.org/1999/xlink">
    <!-- Generator: Sketch 48.2 (47327) - http://www.bohemiancoding.com/sketch -->
    <title>logo</title>
    <desc>Created with Sketch.</desc>
    <defs></defs>
    <g id="Page-1" stroke="none" stroke-width="1" fill="none" fill-rule="evenodd">
        <g id="logo" fill="#FFFFFF">
            <path d="M35.9522244,7.63764617 C35.9522244,8.66626144 35.118214,9.50032873 34.0894149,9.50032873 C33.0606157,9.50032873 32.2266053,8.66626144 32.2266053,7.63764617 C32.2266053,6.60877692 33.0606157,5.77470962 34.0894149,5.77470962 C35.118214,5.77470962 35.9522244,6.60877692 35.9522244,7.63764617" id="Fill-1"></path>
            <path d="M23.8020432,4.1889793 C23.8196889,4.20572587 23.8393804,4.21997295 23.8567704,4.23696946 C25.797031,6.13358071 25.7819426,9.25019189 23.8414263,11.1468031 C21.9006543,13.0434144 18.7274958,13.0429145 16.7872352,11.1465532 C16.7698453,11.1295567 16.7550126,11.1103106 16.7378784,11.0930642 L14.734707,13.0511628 C14.7518413,13.0681593 14.7679526,13.0861556 14.7853425,13.1031521 C17.865925,16.114035 22.763248,16.114035 25.8435747,13.1034021 C28.9236457,10.0927692 28.9395013,5.29100341 25.8589188,2.28012056 C25.8415289,2.26312405 25.823116,2.24737727 25.805726,2.23063071 L23.8020432,4.1889793 Z" id="Fill-3"></path>
            <path d="M16.9591428,11.1946252 C15.043481,9.31461329 15.017267,6.22639357 16.9433635,4.35281749 C18.8692055,2.47973648 22.0601937,2.49013286 23.9931619,4.35331256 L25.9861933,2.41488288 C22.9194038,-0.551303156 18.010759,-0.561699535 14.9503321,2.41438781 C11.8901597,5.39097023 11.9166282,10.1500366 14.9663659,13.1328074 L16.9591428,11.1946252 Z" id="Fill-6"></path>
            <path d="M66.2592844,4.18872935 C66.2769301,4.20572587 66.2966217,4.21997295 66.3140116,4.23696946 C68.2542722,6.13358071 68.2391839,9.25019189 66.2986675,11.1465532 C64.3578955,13.0434144 61.184737,13.0429145 59.2444764,11.1465532 C59.2270865,11.1295567 59.2125096,11.1103106 59.1951196,11.0930642 L57.1919482,13.0511628 C57.2090825,13.0681593 57.2251938,13.0861556 57.2425838,13.1031521 C60.3231662,16.114035 65.2204893,16.114035 68.300816,13.1034021 C71.3808869,10.0927692 71.3967425,5.29100341 68.3161601,2.28012056 C68.2987701,2.26312405 68.2806129,2.24737727 68.2629672,2.23063071 L66.2592844,4.18872935 Z" id="Fill-8"></path>
            <path d="M59.4312614,11.1946252 C57.5155584,9.31461329 57.4893438,6.22639357 59.4154817,4.35281749 C61.3413651,2.47973648 64.5324217,2.49013286 66.4654314,4.35331256 L68.4582512,2.41488288 C65.3916503,-0.551303156 60.4829001,-0.561699535 57.4224075,2.41438781 C54.3621693,5.39097023 54.3886385,10.1500366 57.4386961,13.1328074 L59.4312614,11.1946252 Z" id="Fill-11"></path>
            <path d="M52.1055273,11.1997856 C51.9752156,11.0699842 51.7381699,11.0480962 51.5655196,11.1997856 C50.6584082,11.936599 49.5573503,12.4351888 48.261839,12.4351888 C46.902693,12.4351888 45.7121409,11.8775521 44.851678,10.9905764 L42.7514793,13.0984482 C44.1529639,14.4488911 46.0627656,15.2750384 48.1753871,15.2750384 C50.0971045,15.2750384 51.954173,14.6031256 53.4223346,13.1720023 C53.5734354,13.0203129 53.6167881,12.7388221 53.4436307,12.5871327 L52.1055273,11.1997856 Z" id="Fill-13"></path>
            <path d="M5.98473538,6.57864016 L3.86292416,8.65512607 C3.96052593,8.69584641 4.05838455,8.73681811 4.15624318,8.77552757 C5.99423871,9.50321511 6.93481161,10.2522683 6.93481161,11.344428 C6.93481161,12.2649087 6.08182346,12.9925962 4.94373539,12.9925962 C3.52208848,12.9925962 2.53759479,12.3290055 1.64094269,11.6656662 C1.44368436,11.5158556 1.07202708,11.5158556 0.896857576,11.8154768 L0.109622204,13.1424069 C-0.0873792735,13.4855134 0.000205477422,13.6134557 0.219038931,13.7848833 C0.853193624,14.3202804 2.27535423,15.4549199 5.03157699,15.4549199 C8.11604994,15.4549199 10.0629485,13.4211652 10.0629485,11.2159829 C10.0629485,8.66643728 7.97504106,7.41315574 5.98473538,6.57864016" id="Fill-15"></path>
            <path d="M3.85825145,8.70739695 L5.96666927,6.62431013 C5.79564749,6.5516795 5.62513622,6.48106639 5.45692225,6.41423612 C3.69590839,5.7055831 2.89159549,5.01811401 2.89159549,4.00910307 C2.89159549,3.19251286 3.56572763,2.50504378 4.80499742,2.50504378 C6.00036312,2.50504378 6.8919737,3.10702056 7.82672262,3.68680465 C8.0873394,3.85854583 8.41381233,3.68680465 8.58764193,3.42856241 L9.41365162,2.20443367 C9.56578443,1.98956806 9.5004388,1.62464958 9.28347086,1.49603284 C8.84825871,1.17373442 7.15233522,0.056281912 4.93517818,0.056281912 C1.47875134,0.056281912 0.0434446383,2.26874204 0.0434446383,4.18033987 C0.0434446383,6.60211744 1.90987939,7.88551076 3.85825145,8.70739695" id="Fill-18"></path>
            <path d="M42.8564094,13.2927912 L44.9244912,11.2528714 C44.0159506,10.3466588 43.4650731,9.08438942 43.4650731,7.71239018 C43.4650731,5.0176069 45.5244997,2.72935122 48.2997616,2.72935122 C49.5137795,2.72935122 50.7280521,3.19990879 51.6388838,3.99136955 C51.8122422,4.16186507 52.0291311,4.16186507 52.1811061,3.99136955 L53.503314,2.64347572 C53.6766724,2.47298021 53.6766724,2.216107 53.481676,2.04485819 C52.0072386,0.740153203 50.4246112,0.0556601717 48.2348476,0.0556601717 C43.8985964,0.0556601717 40.4074992,3.49921756 40.4074992,7.77642016 C40.4074992,10.2479774 41.5741681,12.4247455 43.3945587,13.8236123 L42.8564094,13.2927912 Z" id="Fill-21"></path>
        </g>
    </g>
</svg>