<?xml version="1.0" encoding="UTF-8"?>
<svg width="32px" height="7px" viewBox="0 0 32 7" version="1.1" xmlns="http://www.w3.org/2000/svg" xmlns:xlink="http://www.w3.org/1999/xlink">
    <!-- Generator: Sketch 48.2 (47327) - http://www.bohemiancoding.com/sketch -->
    <title>logo</title>
    <desc>Created with Sketch.</desc>
    <defs></defs>
    <g id="Page-1" stroke="none" stroke-width="1" fill="none" fill-rule="evenodd">
        <g id="logo" fill="#FFFFFF">
            <path d="M16.178501,3.43694077 C16.178501,3.89981765 15.8031963,4.27514793 15.3402367,4.27514793 C14.8772771,4.27514793 14.5019724,3.89981765 14.5019724,3.43694077 C14.5019724,2.97394961 14.8772771,2.59861933 15.3402367,2.59861933 C15.8031963,2.59861933 16.178501,2.97394961 16.178501,3.43694077" id="Fill-1"></path>
            <path d="M10.7109194,1.88504068 C10.71886,1.89257664 10.7277212,1.89898783 10.7355467,1.90663626 C11.6086639,2.76011132 11.6018742,4.16258635 10.7286418,5.01606141 C9.85529442,5.86953647 8.42737311,5.86931152 7.55425585,5.01594894 C7.54643036,5.0083005 7.53975568,4.99963978 7.53204528,4.99187887 L6.63061816,5.87302326 C6.63832857,5.88067169 6.64557865,5.88877003 6.65340414,5.89641846 C8.03966624,7.25131575 10.2434616,7.25131575 11.6296086,5.89653094 C13.0156406,4.54174613 13.0227756,2.38095154 11.6365135,1.02605425 C11.628688,1.01840582 11.6204022,1.01131977 11.6125767,1.00378382 L10.7109194,1.88504068 Z" id="Fill-3"></path>
            <path d="M7.63161427,5.03758135 C6.76956646,4.19157598 6.75777013,2.8018771 7.62451357,1.95876787 C8.49114249,1.11588142 9.92708715,1.12055979 10.7969228,1.95899065 L11.693787,1.0866973 C10.3137317,-0.24808642 8.10484153,-0.252764791 6.72764942,1.08647452 C5.35057184,2.4259366 5.3624827,4.56751648 6.73486465,5.90976331 L7.63161427,5.03758135 Z" id="Fill-6"></path>
            <path d="M29.816678,1.88492821 C29.8246185,1.89257664 29.8334797,1.89898783 29.8413052,1.90663626 C30.7144225,2.76011132 30.7076327,4.16258635 29.8344004,5.01594894 C28.961053,5.86953647 27.5331317,5.86931152 26.6600144,5.01594894 C26.6521889,5.0083005 26.6456293,4.99963978 26.6378038,4.99187887 L25.7363767,5.87302326 C25.7440871,5.88067169 25.7513372,5.88877003 25.7591627,5.89641846 C27.1454248,7.25131575 29.3492202,7.25131575 30.7353672,5.89653094 C32.1213991,4.54174613 32.1285341,2.38095154 30.742272,1.02605425 C30.7344465,1.01840582 30.7262758,1.01131977 30.7183352,1.00378382 L29.816678,1.88492821 Z" id="Fill-8"></path>
            <path d="M26.7440676,5.03758135 C25.8820013,4.19157598 25.8702047,2.8018771 26.7369668,1.95876787 C27.6036143,1.11588142 29.0395898,1.12055979 29.9094441,1.95899065 L30.806213,1.0866973 C29.4262426,-0.24808642 27.217305,-0.252764791 25.8400834,1.08647452 C24.4629762,2.4259366 24.4748873,4.56751648 25.8474133,5.90976331 L26.7440676,5.03758135 Z" id="Fill-11"></path>
            <path d="M23.4474873,5.03990351 C23.388847,4.98149291 23.2821765,4.97164328 23.2044838,5.03990351 C22.7962837,5.37146956 22.3008076,5.59583498 21.7178276,5.59583498 C21.1062119,5.59583498 20.5704634,5.34489846 20.1832551,4.94575937 L19.2381657,5.89430168 C19.8688338,6.50200098 20.7282445,6.87376726 21.6789242,6.87376726 C22.543697,6.87376726 23.3793779,6.57140651 24.0400506,5.92740102 C24.1080459,5.85914079 24.1275546,5.73246997 24.0496338,5.66420974 L23.4474873,5.03990351 Z" id="Fill-13"></path>
            <path d="M2.69313092,2.96038807 L1.73831587,3.89480673 C1.78223667,3.91313089 1.82627305,3.93156815 1.87030943,3.94898741 C2.69740742,4.2764468 3.12066522,4.61352071 3.12066522,5.10499258 C3.12066522,5.51920892 2.73682056,5.84666831 2.22468093,5.84666831 C1.58493982,5.84666831 1.14191765,5.54805249 0.73842421,5.24954978 C0.649657964,5.182135 0.482412185,5.182135 0.403585909,5.31696457 L0.049329992,5.91408309 C-0.0393206731,6.06848104 9.24648401e-05,6.12605508 0.0985675191,6.2031975 C0.383937131,6.44412617 1.0239094,6.95471397 2.26420965,6.95471397 C3.65222247,6.95471397 4.52832683,6.03952436 4.52832683,5.04719232 C4.52832683,3.89989678 3.58876848,3.33592008 2.69313092,2.96038807" id="Fill-15"></path>
            <path d="M1.73621315,3.91832863 L2.68500117,2.98093956 C2.60804137,2.94825578 2.5313113,2.91647988 2.45561501,2.88640625 C1.66315877,2.5675124 1.30121797,2.25815131 1.30121797,1.80409638 C1.30121797,1.43663079 1.60457743,1.1272697 2.16224884,1.1272697 C2.7001634,1.1272697 3.10138817,1.39815925 3.52202518,1.65906209 C3.63930273,1.73634562 3.78621555,1.65906209 3.86443887,1.54285309 L4.23614323,0.991995151 C4.304603,0.895305625 4.27519746,0.73109231 4.17756189,0.673214777 C3.98171642,0.528180488 3.21855085,0.0253268604 2.22083018,0.0253268604 C0.665438105,0.0253268604 0.0195500873,1.02093392 0.0195500873,1.88115294 C0.0195500873,2.97095285 0.859445728,3.54847984 1.73621315,3.91832863" id="Fill-18"></path>
            <path d="M19.2853842,5.98175603 L20.216021,5.06379212 C19.8071778,4.65599648 19.5592829,4.08797524 19.5592829,3.47057558 C19.5592829,2.25792311 20.4860248,1.22820805 21.7348927,1.22820805 C22.2812008,1.22820805 22.8276234,1.43995896 23.2374977,1.7961163 C23.315509,1.87283928 23.413109,1.87283928 23.4814978,1.7961163 L24.0764913,1.18956407 C24.1545026,1.11284109 24.1545026,0.997248148 24.0667542,0.920186185 C23.4032574,0.333068941 22.6910751,0.0250470773 21.7056814,0.0250470773 C19.7543684,0.0250470773 18.1833746,1.5746479 18.1833746,3.49938907 C18.1833746,4.61158981 18.7083757,5.59113549 19.5275514,6.22062552 L19.2853842,5.98175603 Z" id="Fill-21"></path>
        </g>
    </g>
</svg>