<?xml version="1.0" encoding="UTF-8"?>
<svg width="75px" height="16px" viewBox="0 0 75 16" version="1.1" xmlns="http://www.w3.org/2000/svg" xmlns:xlink="http://www.w3.org/1999/xlink">
    <!-- Generator: Sketch 48.2 (47327) - http://www.bohemiancoding.com/sketch -->
    <title>logo</title>
    <desc>Created with Sketch.</desc>
    <defs></defs>
    <g id="Page-1" stroke="none" stroke-width="1" fill="none" fill-rule="evenodd">
        <g id="logo">
            <path d="M38.2532847,7.55371599 C38.2532847,8.57102779 37.3704423,9.39592951 36.2814061,9.39592951 C35.19237,9.39592951 34.3095275,8.57102779 34.3095275,7.55371599 C34.3095275,6.53615299 35.19237,5.71125127 36.2814061,5.71125127 C37.3704423,5.71125127 38.2532847,6.53615299 38.2532847,7.55371599" id="Fill-1" fill="#B22655"></path>
            <path d="M25.3917003,4.14294656 C25.4103792,4.1595091 25.4312237,4.17359962 25.4496319,4.19040936 C27.5034964,6.06617872 27.4875246,9.14854143 25.4333894,11.0243108 C23.3789836,12.9000802 20.020034,12.8995858 17.9661696,11.0240636 C17.9477614,11.0072539 17.9320604,10.9882193 17.9139229,10.9711623 L15.7934642,12.9077434 C15.8116017,12.9245532 15.8286563,12.9423517 15.8470645,12.9591615 C19.1080175,15.9369577 24.2920829,15.9369577 27.5527653,12.9594087 C30.8131769,9.98185963 30.8299609,5.23286052 27.5690078,2.25506429 C27.5505996,2.23825455 27.5311086,2.22268082 27.5127004,2.20611828 L25.3917003,4.14294656 Z" id="Fill-3" fill="#F083A6"></path>
            <path d="M18.1481425,11.0716074 C16.1203172,9.2122549 16.0925682,6.15797166 18.1314393,4.30498433 C20.170041,2.45248663 23.5478641,2.46276876 25.5940092,4.30547396 L27.7037343,2.3883457 C24.4573817,-0.54524488 19.2613317,-0.555527013 16.0217142,2.38785608 C12.7823662,5.3317288 12.8103845,10.0384978 16.0386869,12.9884908 L18.1481425,11.0716074 Z" id="Fill-6" fill="#B22655"></path>
            <path d="M70.334848,4.14269936 C70.3535269,4.1595091 70.3743714,4.17359962 70.3927796,4.19040936 C72.446644,6.06617872 72.4306722,9.14854143 70.3765371,11.0240636 C68.3221312,12.9000802 64.9631817,12.8995858 62.9093173,11.0240636 C62.8909091,11.0072539 62.8754787,10.9882193 62.8570706,10.9711623 L60.7366119,12.9077434 C60.7547493,12.9245532 60.771804,12.9423517 60.7902121,12.9591615 C64.0511652,15.9369577 69.2352306,15.9369577 72.495913,12.9594087 C75.7563246,9.98185963 75.7731085,5.23286052 72.5121555,2.25506429 C72.4937473,2.23825455 72.474527,2.22268082 72.4558481,2.20611828 L70.334848,4.14269936 Z" id="Fill-8" fill="#B22655"></path>
            <path d="M63.1070386,11.0716074 C61.0791697,9.2122549 61.0514202,6.15797166 63.090335,4.30498433 C65.1289805,2.45248663 68.5068762,2.46276876 70.5530651,4.30547396 L72.6625661,2.3883457 C69.4164132,-0.54524488 64.2202517,-0.555527013 60.9805647,2.38785608 C57.7411471,5.3317288 57.769166,10.0384978 60.9978071,12.9884908 L63.1070386,11.0716074 Z" id="Fill-11" fill="#F6B6CA"></path>
            <path d="M55.3523768,11.076711 C55.2144352,10.9483361 54.9635104,10.9266885 54.7807512,11.076711 C53.8205277,11.8054276 52.655002,12.2985384 51.2836374,12.2985384 C49.8449123,12.2985384 48.5846524,11.7470296 47.6738087,10.8698008 L45.4506416,12.9545092 C46.9341843,14.290112 48.9558064,15.1071808 51.1921236,15.1071808 C53.2263591,15.1071808 55.1921606,14.4426517 56.7462843,13.027255 C56.9062321,12.8772325 56.9521232,12.5988351 56.7688273,12.4488126 L55.3523768,11.076711 Z" id="Fill-13" fill="#F083A6"></path>
            <path d="M6.5311745,6.50634741 L4.28512948,8.5600148 C4.38844592,8.60028766 4.49203424,8.64080912 4.59562257,8.6790932 C6.54123426,9.39878417 7.53687847,10.139606 7.53687847,11.2197639 C7.53687847,12.1301295 6.63394717,12.8498205 5.42922311,12.8498205 C3.9243376,12.8498205 2.88220098,12.193522 1.93304917,11.5374721 C1.7242412,11.3893077 1.33082308,11.3893077 1.14539726,11.6856364 L0.312068605,12.9979848 C0.103532528,13.337321 0.196245439,13.4638573 0.427891772,13.6334011 C1.09917674,14.1629147 2.60460602,15.2850856 5.5222079,15.2850856 C8.78727928,15.2850856 10.8481704,13.2736799 10.8481704,11.0927304 C10.8481704,8.57120171 8.63801421,7.33169249 6.5311745,6.50634741" id="Fill-15" fill="#F5B0B3"></path>
            <path d="M4.28018319,8.61171127 L6.51205061,6.55151551 C6.33101535,6.47968302 6.15052051,6.40984588 5.97245748,6.34375001 C4.1083348,5.64288438 3.25692872,4.9629699 3.25692872,3.965047 C3.25692872,3.15743031 3.97053185,2.47751582 5.28236191,2.47751582 C6.54771725,2.47751582 7.49153237,3.07287748 8.48101161,3.64629032 C8.75688771,3.81614423 9.1024759,3.64629032 9.28648337,3.3908859 L10.1608566,2.18020912 C10.3218969,1.96770467 10.2527252,1.60679629 10.0230537,1.47959292 C9.56235948,1.16083624 7.76713828,0.0556634295 5.42016486,0.0556634295 C1.76136138,0.0556634295 0.242016288,2.24381081 0.242016288,4.13440207 C0.242016288,6.5295667 2.21773234,7.79885679 4.28018319,8.61171127" id="Fill-18" fill="#F083A6"></path>
            <path d="M45.5617154,13.1467166 L47.7508851,11.1292134 C46.7891487,10.2329593 46.2060168,8.98456096 46.2060168,7.62763864 C46.2060168,4.96246837 48.3860246,2.69935835 51.3237803,2.69935835 C52.6088801,2.69935835 53.8942493,3.16474496 54.8584109,3.94750835 C55.0419196,4.11613028 55.2715076,4.11613028 55.4323808,3.94750835 L56.8320051,2.61442653 C57.0155137,2.4458046 57.0155137,2.19175417 56.8091002,2.02238722 C55.2483332,0.732019651 53.5730417,0.0550485214 51.2550656,0.0550485214 C46.6649233,0.0550485214 42.9694195,3.46076462 42.9694195,7.69096499 C42.9694195,10.1353622 44.2043979,12.2882099 46.1313738,13.6717044 L45.5617154,13.1467166 Z" id="Fill-21" fill="#F5B0B3"></path>
        </g>
    </g>
</svg>