<?xml version="1.0" encoding="UTF-8"?>
<svg width="44px" height="10px" viewBox="0 0 44 10" version="1.1" xmlns="http://www.w3.org/2000/svg" xmlns:xlink="http://www.w3.org/1999/xlink">
    <!-- Generator: Sketch 48.2 (47327) - http://www.bohemiancoding.com/sketch -->
    <title>logo</title>
    <desc>Created with Sketch.</desc>
    <defs>
        <polygon id="path-1" points="0.0112898624 8.02248041 8.200058 8.02248041 8.200058 0.0143539513 0.0112898624 0.0143539513"></polygon>
        <polygon id="path-3" points="0.0211938427 8.02248041 8.20994515 8.02248041 8.20994515 0.0143539513 0.0211938427 0.0143539513"></polygon>
        <polygon id="path-5" points="0 0.0358651761 0 5.44935157 6.13721471 5.44935157 6.13721471 0.0358651761"></polygon>
        <polygon id="path-7" points="5.79177011 0.034402248 0.0264961183 0.034402248 0.0264961183 5.31048774 5.79177011 5.31048774 5.79177011 0.034402248"></polygon>
        <polygon id="path-9" points="8.11199664 0.0340074125 0.0473709558 0.0340074125 0.0473709558 8.43077717 8.11199664 8.43077717 8.11199664 0.0340074125"></polygon>
    </defs>
    <g id="Page-1" stroke="none" stroke-width="1" fill="none" fill-rule="evenodd">
        <g id="logo">
            <path d="M21.9266272,4.65806561 C21.9266272,5.28539992 21.417979,5.79408284 20.7905325,5.79408284 C20.1630861,5.79408284 19.6544379,5.28539992 19.6544379,4.65806561 C19.6544379,4.03057642 20.1630861,3.52189349 20.7905325,3.52189349 C21.417979,3.52189349 21.9266272,4.03057642 21.9266272,4.65806561" id="Fill-1" fill="#B22655"></path>
            <g id="Group-5" transform="translate(8.975148, 1.533728)">
                <mask id="mask-2" fill="white">
                    <use xlink:href="#path-1"></use>
                </mask>
                <g id="Clip-4"></g>
                <path d="M5.54129815,1.02105674 C5.55205996,1.03127018 5.56406951,1.03995922 5.57467535,1.05032509 C6.75800603,2.20703482 6.74880391,4.10780099 5.56531725,5.26451072 C4.38167463,6.42122045 2.44642128,6.42091557 1.26309059,5.26435828 C1.25248475,5.2539924 1.2434386,5.24225457 1.23298873,5.23173626 L0.0112898624,6.42594607 C0.0217397314,6.43631194 0.0315657276,6.44728757 0.0421715648,6.45765345 C1.92096443,8.29393777 4.90775535,8.29393777 6.78639225,6.45780589 C8.66487318,4.62167401 8.6745432,1.6931618 6.79575034,-0.143122517 C6.7851445,-0.153488392 6.77391479,-0.163092071 6.76330895,-0.173305507 L5.54129815,1.02105674 Z" id="Fill-3" fill="#F083A6" mask="url(#mask-2)"></path>
            </g>
            <path d="M10.3430819,6.82740437 C9.1747536,5.68081827 9.15876611,3.79736756 10.3334584,2.65470657 C11.5079955,1.51234752 13.4541228,1.51868809 14.633006,2.65500851 L15.8485207,1.47279445 C13.9781399,-0.336230066 10.9844441,-0.342570634 9.11794369,1.47249252 C7.25159855,3.28785761 7.26774125,6.19032822 9.12772244,8.00946746 L10.3430819,6.82740437 Z" id="Fill-6" fill="#B22655"></path>
            <g id="Group-10" transform="translate(35.048521, 1.533728)">
                <mask id="mask-4" fill="white">
                    <use xlink:href="#path-3"></use>
                </mask>
                <g id="Clip-9"></g>
                <path d="M5.36184754,1.0209043 C5.37260935,1.03127018 5.3846189,1.03995922 5.39522474,1.05032509 C6.57855543,2.20703482 6.5693533,4.10780099 5.38586665,5.26435828 C4.20222402,6.42122045 2.26697067,6.42091557 1.08363998,5.26435828 C1.07303414,5.2539924 1.06414396,5.24225457 1.05353812,5.23173626 L-0.168160746,6.42594607 C-0.157710877,6.43631194 -0.14788488,6.44728757 -0.137279043,6.45765345 C1.74151382,8.29393777 4.72830474,8.29393777 6.60694164,6.45780589 C8.48542257,4.62167401 8.4950926,1.6931618 6.61629973,-0.143122517 C6.60569389,-0.153488392 6.59462015,-0.163092071 6.58385835,-0.173305507 L5.36184754,1.0209043 Z" id="Fill-8" fill="#B22655" mask="url(#mask-4)"></path>
            </g>
            <path d="M36.2460775,6.82740437 C35.0777241,5.68081827 35.0617363,3.79736756 36.2364538,2.65470657 C37.4110161,1.51234752 39.3571852,1.51868809 40.5360937,2.65500851 L41.7514793,1.47279445 C39.8812135,-0.336230066 36.8874534,-0.342570634 35.020913,1.47249252 C33.1545278,3.28785761 33.1706708,6.19032822 35.0308472,8.00946746 L36.2460775,6.82740437 Z" id="Fill-11" fill="#F8C3D7"></path>
            <path d="M31.7782416,6.83055158 C31.6987668,6.75138804 31.5541968,6.73803889 31.4489004,6.83055158 C30.8956692,7.2799211 30.2241534,7.58400223 29.4340439,7.58400223 C28.6051248,7.58400223 27.8790281,7.24390945 27.3542469,6.70295858 L26.0733728,7.9885124 C26.9281135,8.81212367 28.0928679,9.31597633 29.3813184,9.31597633 C30.5533399,9.31597633 31.6859333,8.90618859 32.5813392,8.03337174 C32.6734928,7.94085905 32.6999329,7.76918282 32.5943273,7.67667014 L31.7782416,6.83055158 Z" id="Fill-13" fill="#F083A6"></path>
            <g id="Group-17" transform="translate(0.000000, 3.976331)">
                <mask id="mask-6" fill="white">
                    <use xlink:href="#path-5"></use>
                </mask>
                <g id="Clip-16"></g>
                <path d="M3.6499845,0.0358651761 L2.35592927,1.30227729 C2.41545487,1.32711191 2.47513712,1.35209983 2.53481937,1.37570804 C3.65578041,1.81951183 4.22941922,2.27634612 4.22941922,2.94243505 C4.22941922,3.50382002 3.7091968,3.9476238 3.01509697,3.9476238 C2.14805961,3.9476238 1.54763428,3.54291154 1.00078199,3.13835258 C0.880477617,3.04698572 0.653810397,3.04698572 0.546977609,3.22971944 L0.066856648,4.03899066 C-0.0532910769,4.2482453 0.000125317054,4.32627505 0.133587979,4.43082572 C0.520347735,4.75735493 1.38769839,5.44935157 3.06867001,5.44935157 C4.94983563,5.44935157 6.13721471,4.20900047 6.13721471,2.8640987 C6.13721471,1.3091758 4.8638368,0.544821505 3.6499845,0.0358651761" id="Fill-15" fill="#F5B0B3" mask="url(#mask-6)"></path>
            </g>
            <g id="Group-20">
                <mask id="mask-8" fill="white">
                    <use xlink:href="#path-7"></use>
                </mask>
                <g id="Clip-19"></g>
                <path d="M2.35307947,5.31048774 L3.63896629,4.04004985 C3.53466313,3.99575371 3.43067131,3.95268802 3.32808058,3.91192942 C2.2540693,3.47973445 1.76353306,3.06045918 1.76353306,2.44508122 C1.76353306,1.94705726 2.17467435,1.52778199 2.93048313,1.52778199 C3.65951558,1.52778199 4.20329314,1.89491701 4.77338001,2.2485171 C4.93232558,2.35325901 5.13143566,2.2485171 5.23745127,2.09101971 L5.74122,1.34444519 C5.83400312,1.21340245 5.79414997,0.990845107 5.66182505,0.912404027 C5.39639684,0.715839908 4.36208304,0.0343253449 3.00987808,0.0343253449 C0.901864349,0.0343253449 0.0264961183,1.38366573 0.0264961183,2.54951552 C0.0264961183,4.02651492 1.16480174,4.80923386 2.35307947,5.31048774" id="Fill-18" fill="#F083A6" mask="url(#mask-8)"></path>
            </g>
            <g id="Group-23" transform="translate(24.596450, 0.000000)">
                <mask id="mask-10" fill="white">
                    <use xlink:href="#path-9"></use>
                </mask>
                <g id="Clip-22"></g>
                <path d="M1.5409181,8.10703876 L2.80220469,6.86292767 C2.2481018,6.31024464 1.91213132,5.54040879 1.91213132,4.70365067 C1.91213132,3.0601499 3.16813927,1.66458314 4.86072253,1.66458314 C5.60113067,1.66458314 6.34169406,1.9515679 6.89719424,2.43426585 C7.00292247,2.53824806 7.13519921,2.53824806 7.22788607,2.43426585 L8.03427732,1.61220919 C8.14000556,1.50822699 8.14000556,1.35156455 8.0210807,1.24712292 C7.12184733,0.451406377 6.15663084,0.0339461565 4.82113266,0.0339461565 C2.17652953,0.0339461565 0.0473709558,2.13411104 0.0473709558,4.74270142 C0.0473709558,6.25006054 0.758901783,7.57763305 1.86912586,8.43077717 L1.5409181,8.10703876 Z" id="Fill-21" fill="#F5B0B3" mask="url(#mask-10)"></path>
            </g>
        </g>
    </g>
</svg>