<?xml version="1.0" encoding="UTF-8"?>
<svg width="107px" height="108px" viewBox="0 0 107 108" version="1.1" xmlns="http://www.w3.org/2000/svg" xmlns:xlink="http://www.w3.org/1999/xlink">
    <!-- Generator: Sketch 48.2 (47327) - http://www.bohemiancoding.com/sketch -->
    <title>Page 1</title>
    <desc>Created with Sketch.</desc>
    <defs>
        <path d="M0.1728,2.43789474 C0.1728,3.77342105 1.4145,4.85631579 2.9466,4.85631579 C4.4784,4.85631579 5.7204,3.77342105 5.7204,2.43789474 C5.7204,1.10184211 4.4784,0.0186842105 2.9466,0.0186842105 C1.4145,0.0186842105 0.1728,1.10184211 0.1728,2.43789474 Z" id="path-1"></path>
        <path d="M0.126214286,1.47942857 C0.126214286,2.25621429 0.759642857,2.886 1.54114286,2.886 C2.32285714,2.886 2.95628571,2.25621429 2.95628571,1.47942857 C2.95628571,0.702428571 2.32285714,0.0724285714 1.54114286,0.0724285714 C0.759642857,0.0724285714 0.126214286,0.702428571 0.126214286,1.47942857 Z" id="path-3"></path>
        <path d="M0.112071429,1.43121429 C0.112071429,2.208 0.745714286,2.83778571 1.52742857,2.83778571 C2.30871429,2.83778571 2.94235714,2.208 2.94235714,1.43121429 C2.94235714,0.654214286 2.30871429,0.0242142857 1.52742857,0.0242142857 C0.745714286,0.0242142857 0.112071429,0.654214286 0.112071429,1.43121429 Z" id="path-5"></path>
        <path d="M6.63871795,1.57289474 C6.65128205,1.58526316 6.66538462,1.59578947 6.67794872,1.60868421 C8.06666667,3.02605263 8.05589744,5.355 6.66692308,6.77236842 C5.27769231,8.18973684 3.00641026,8.18921053 1.61769231,6.77236842 C1.60512821,6.75947368 1.59461538,6.745 1.58230769,6.73236842 L0.148205128,8.19552632 C0.160769231,8.20815789 0.172307692,8.22184211 0.184358974,8.23421053 C2.38974359,10.4842105 5.89512821,10.4842105 8.1,8.23447368 C10.3048718,5.98473684 10.3161538,2.39631579 8.11102564,0.146315789 C8.09846154,0.133684211 8.08538462,0.121842105 8.07282051,0.109473684 L6.63871795,1.57289474 Z" id="path-7"></path>
        <path d="M1.74526316,1.71368421 C-0.513421053,3.96 -0.493947368,7.55105263 1.75710526,9.80184211 L3.22815789,8.33921053 C1.81421053,6.92078947 1.79473684,4.59026316 3.21657895,3.17657895 C4.63842105,1.76289474 6.99368421,1.77078947 8.42078947,3.17684211 L9.89184211,1.71421053 C8.75894737,0.593947368 7.28526316,0.0323684211 5.81289474,0.0323684211 C4.34289474,0.0323684211 2.87394737,0.591842105 1.74526316,1.71368421 Z" id="path-9"></path>
        <path d="M5.34529032,1.37806452 C5.3556129,1.38812903 5.36722581,1.3963871 5.37729032,1.40645161 C6.50477419,2.52748387 6.496,4.37006452 5.36825806,5.49109677 C4.24051613,6.6123871 2.39664516,6.61212903 1.26890323,5.49109677 C1.25909677,5.48103226 1.25032258,5.46967742 1.24051613,5.45935484 L0.0763870968,6.61703226 C0.0864516129,6.62709677 0.0957419355,6.63767742 0.105548387,6.64774194 C0.993548387,7.53058065 2.14141935,7.97522581 3.29083871,7.98245161 L3.34683871,7.98245161 C4.49651613,7.97548387 5.64412903,7.53058065 6.53187097,6.64774194 C8.32180645,4.86812903 8.33083871,2.02967742 6.54090323,0.249806452 C6.53058065,0.24 6.52025806,0.230451613 6.50993548,0.220645161 L5.34529032,1.37806452 Z" id="path-11"></path>
        <path d="M1.37780645,1.53109677 C-0.409032258,3.3076129 -0.393548387,6.1483871 1.38735484,7.92903226 L2.55070968,6.77212903 C1.43225806,5.64980645 1.41677419,3.80645161 2.54167742,2.688 C3.66632258,1.57006452 5.52954839,1.57625806 6.65832258,2.68851613 L7.82193548,1.53135484 C6.92567742,0.64516129 5.76,0.201290323 4.59535484,0.201032258 C3.43251613,0.201032258 2.27070968,0.643612903 1.37780645,1.53109677 Z" id="path-13"></path>
    </defs>
    <g id="Page-1" stroke="none" stroke-width="1" fill="none" fill-rule="evenodd">
        <g>
            <path d="M99,59.5001328 C99,84.6291696 78.4050457,105 52.9998657,105 C27.5949543,105 7,84.6291696 7,59.5001328 C7,34.3710961 27.5949543,14 52.9998657,14 C78.4050457,14 99,34.3710961 99,59.5001328" id="Fill-1" fill="#FCF6F2"></path>
            <g id="Group-5" transform="translate(1.000000, 26.000000)">
                <mask id="mask-2" fill="white">
                    <use xlink:href="#path-1"></use>
                </mask>
                <g id="Clip-4"></g>
                <polygon id="Fill-3" fill="#B22655" mask="url(#mask-2)" points="-1.9647 6.73157895 7.8579 6.73157895 7.8579 -1.85631579 -1.9647 -1.85631579"></polygon>
            </g>
            <path d="M12,95.5 C12,96.3282559 11.3283107,97 10.4998864,97 C9.6714621,97 9,96.3282559 9,95.5 C9,94.6715156 9.6714621,94 10.4998864,94 C11.3283107,94 12,94.6715156 12,95.5" id="Fill-6" fill="#FFFFFF"></path>
            <g id="Group-11" transform="translate(8.000000, 94.000000)">
                <mask id="mask-4" fill="white">
                    <use xlink:href="#path-3"></use>
                </mask>
                <g id="Clip-9"></g>
                <polygon id="Fill-8" fill="#FFFFFF" mask="url(#mask-4)" points="-29.9603571 34.5 35.4743571 34.5 35.4743571 -30.9347143 -29.9603571 -30.9347143"></polygon>
                <polygon id="Fill-10" fill="#FFFFFF" mask="url(#mask-4)" points="-0.964285714 3.9765 4.047 3.9765 4.047 -1.01828571 -0.964285714 -1.01828571"></polygon>
            </g>
            <path d="M107,50.5 C107,51.3282559 106.328311,52 105.499886,52 C104.671462,52 104,51.3282559 104,50.5 C104,49.6715156 104.671462,49 105.499886,49 C106.328311,49 107,49.6715156 107,50.5" id="Fill-12" fill="#FFFFFF"></path>
            <g id="Group-17" transform="translate(104.000000, 49.000000)">
                <mask id="mask-6" fill="white">
                    <use xlink:href="#path-5"></use>
                </mask>
                <g id="Clip-15"></g>
                <polygon id="Fill-14" fill="#FFFFFF" mask="url(#mask-6)" points="-29.9742857 34.4517857 35.4604286 34.4517857 35.4604286 -30.9829286 -29.9742857 -30.9829286"></polygon>
                <polygon id="Fill-16" fill="#FFFFFF" mask="url(#mask-6)" points="-0.978428571 3.9285 4.03285714 3.9285 4.03285714 -1.06628571 -0.978428571 -1.06628571"></polygon>
            </g>
            <g id="Group-20" transform="translate(80.000000, 89.000000)">
                <mask id="mask-8" fill="white">
                    <use xlink:href="#path-7"></use>
                </mask>
                <g id="Clip-19"></g>
                <polygon id="Fill-18" fill="#F083A6" mask="url(#mask-8)" points="-0.886410256 10.9839474 10.7941026 10.9839474 10.7941026 -0.952631579 -0.886410256 -0.952631579"></polygon>
            </g>
            <g id="Group-23" transform="translate(79.000000, 87.000000)">
                <mask id="mask-10" fill="white">
                    <use xlink:href="#path-9"></use>
                </mask>
                <g id="Clip-22"></g>
                <polygon id="Fill-21" fill="#B22655" mask="url(#mask-10)" points="-1.00210526 10.8639474 10.9539474 10.8639474 10.9539474 -1.02947368 -1.00210526 -1.02947368"></polygon>
            </g>
            <g id="Group-26" transform="translate(56.000000, 1.000000)">
                <mask id="mask-12" fill="white">
                    <use xlink:href="#path-11"></use>
                </mask>
                <g id="Clip-25"></g>
                <polygon id="Fill-24" fill="#B22655" mask="url(#mask-12)" points="-0.763870968 8.82270968 8.71896774 8.82270968 8.71896774 -0.619354839 -0.763870968 -0.619354839"></polygon>
            </g>
            <g id="Group-29" transform="translate(55.000000, 0.000000)">
                <mask id="mask-14" fill="white">
                    <use xlink:href="#path-13"></use>
                </mask>
                <g id="Clip-28"></g>
                <polygon id="Fill-27" fill="#F8C3D7" mask="url(#mask-14)" points="-0.795354839 8.76903226 8.66193548 8.76903226 8.66193548 -0.638967742 -0.795354839 -0.638967742"></polygon>
            </g>
            <g id="Group-76" transform="translate(0.000000, 6.000000)">
                <path d="M37.3419085,20.3206047 C36.1225152,20.3206047 35.1287671,21.3892141 35.1287671,22.7019328 L35.1287671,79.9329641 C35.1287671,81.2454172 36.1225152,82.3140266 37.3419085,82.3140266 L62.5973326,82.3140266 C63.8079033,82.3140266 64.7992452,81.2401047 64.8080679,79.9196828 L65.1443969,30.8008391 C65.1443969,30.7822453 65.1443969,29.8499016 65.1468031,29.8310422 L65.1433275,22.5590266 C65.1655177,21.8158078 65.0238211,21.2792453 64.7163661,20.9650109 C64.3268339,20.5657766 63.5368082,20.3370734 62.5476051,20.3370734 L37.3419085,20.3206047 Z" id="Fill-30" fill="#FFFFFF"></path>
                <path d="M52.6233049,77.1495859 L48.596981,77.1495859 C47.7214026,77.1495859 47.0118499,76.4446172 47.0118499,75.5746953 C47.0118499,74.7047734 47.7214026,74.0000703 48.596981,74.0000703 L52.6233049,74.0000703 C53.4988833,74.0000703 54.208436,74.7047734 54.208436,75.5746953 C54.208436,76.4446172 53.4988833,77.1495859 52.6233049,77.1495859" id="Fill-32" fill="#B12655"></path>
                <path d="M65.7154344,30.7797484 L35.5049049,30.7797484 C34.3820257,30.7797484 33.4719589,30.0755766 33.4719589,29.2064516 C33.4719589,28.3375922 34.3820257,27.6334203 35.5049049,27.6334203 L65.7154344,27.6334203 C66.8383136,27.6334203 67.7481131,28.3375922 67.7481131,29.2064516 C67.7481131,30.0755766 66.8383136,30.7797484 65.7154344,30.7797484" id="Fill-34" fill="#B12655"></path>
                <path d="M37.8531661,21.8089547 C36.6583692,21.8089547 35.6846725,22.8342672 35.6846725,24.0938609 L35.6846725,79.0112984 C35.6846725,80.2708922 36.6583692,81.2962047 37.8531661,81.2962047 L62.5987496,81.2962047 C63.7847239,81.2962047 64.7562817,80.2655797 64.764837,78.9985484 L65.0944823,31.8655172 C65.0944823,31.8477203 65.0944823,30.9528297 65.0968884,30.9350328 L65.0934129,23.9567984 C65.1150684,23.2435953 64.9763126,22.7288141 64.6750067,22.4273297 C64.2934951,22.0442984 63.5192432,21.8248922 62.5500915,21.8248922 L37.8531661,21.8089547 Z M62.0097728,84.7947516 L38.410328,84.7947516 C35.0291249,84.7947516 32.2767342,81.9841734 32.2767342,78.5302516 L32.2767342,25.0517047 C32.2767342,21.5980484 35.0291249,18.7874703 38.410328,18.7874703 L61.9632535,18.7874703 C63.412837,18.7874703 65.4476545,19.1027672 66.9116751,20.6035484 C67.6541121,21.3669547 68.5711301,22.7548453 68.4968062,25.0333766 L68.4264925,39.0849391 L68.1412278,78.5435328 C68.1203743,81.9902828 65.3701224,84.7947516 62.0097728,84.7947516 Z" id="Fill-36" fill="#B12655"></path>
                <path d="M65.7154344,70.56445 L35.5049049,70.56445 C34.3820257,70.56445 33.4719589,69.8602781 33.4719589,68.9911531 C33.4719589,68.1222938 34.3820257,67.4181219 35.5049049,67.4181219 L65.7154344,67.4181219 C66.8383136,67.4181219 67.7481131,68.1222938 67.7481131,68.9911531 C67.7481131,69.8602781 66.8383136,70.56445 65.7154344,70.56445" id="Fill-38" fill="#B12655"></path>
                <path d="M7.81817995,63.9974297 C7.89544473,64.0170859 7.97538303,64.0239922 8.0571928,64.0173516 C8.27027249,63.9931797 13.1908895,63.4351016 13.9097995,59.2169766 L14.5300566,55.5779141 C15.0479177,55.5848203 15.8844627,55.6987734 16.4052648,56.2417109 C16.9044113,56.7543672 17.0573368,57.5969297 16.8632391,58.7361953 L16.1309614,63.0321484 C16.0697378,63.3904766 16.3092853,63.7251641 16.6694087,63.7857266 L22.435126,64.7560547 C23.5751157,64.9478359 24.3448226,66.0079453 24.1790643,67.1387109 L21.3352391,75.5592891 L21.3320308,75.5786797 C20.9109512,76.9811797 19.8701491,77.5493516 18.2323496,77.2736328 L7.99864267,75.5518516 C6.84528535,75.3576797 6.06729049,74.2691484 6.26272494,73.1237734 L7.81817995,63.9974297 Z" id="Fill-40" fill="#FFFFFF"></path>
                <polygon id="Fill-42" fill="#F7AFB4" points="3.06441748 63.0141125 6.71377481 63.6282375 4.88535321 74.3552375 1.23599589 73.7411125"></polygon>
                <path d="M3.10684627,63.1472969 L6.7562036,63.7614219 L4.92778201,74.4884219 L1.27842468,73.8742969 L3.10684627,63.1472969 Z M7.95955578,64.2475156 C8.03414704,64.2666406 8.11087712,64.2730156 8.19001337,64.2669063 C8.39533985,64.2435313 13.1373656,63.7056406 13.8300751,59.6407813 L14.4278746,56.1337344 C14.9267537,56.1406406 15.7330879,56.2503438 16.234908,56.7733594 C16.7158746,57.2674219 16.8631856,58.0797031 16.6760391,59.1772656 L15.9704967,63.3172969 C15.9116792,63.6626094 16.1424041,63.9853438 16.4894272,64.0437813 L22.0458077,64.9785156 C23.1443578,65.1633906 23.8859928,66.18525 23.7263835,67.2748438 L20.9857563,75.3896875 L20.9825481,75.4085469 C20.5769748,76.7600469 19.5741368,77.3075 17.9954221,77.041875 L8.1333347,75.3825156 C7.02195167,75.1955156 6.27229614,74.1465625 6.46051208,73.042625 L7.95955578,64.2475156 Z M1.85884627,62.9244375 L0.025077635,73.6827813 C-0.090418509,74.3603906 0.372100771,74.9994844 1.0479671,75.1134375 L4.72860463,75.7326094 C5.15209049,75.8037969 5.55311877,75.6582344 5.83517532,75.3764063 C6.32924216,76.0210781 7.05456864,76.4915 7.91972031,76.6370625 L17.7818077,78.2964219 C19.9914735,78.6682969 21.5963887,77.7510938 22.1912473,75.786 L24.9455095,67.6283906 C24.957273,67.5978438 24.9626201,67.5665 24.9679671,67.5354219 C25.2727486,65.7475 24.0560288,64.045375 22.2564812,63.7425625 L17.3254375,62.9130156 L17.9251085,59.3940156 C18.1849748,57.8693281 17.9237717,56.6960625 17.1447075,55.8944063 C15.9111445,54.6345469 13.8859517,54.8940625 13.7993296,54.9054844 C13.5268977,54.9434688 13.309273,55.1519844 13.2632884,55.4218594 L12.5810057,59.4240313 C12.0495095,62.5419375 8.21862005,62.9940313 8.05927815,63.012625 C7.98067661,63.0184688 7.89833213,63.0434375 7.8330982,63.0840781 C7.64835784,62.7950781 7.34678458,62.5828438 6.98692853,62.5225469 L3.29987455,61.9020469 C2.61785913,61.7872969 1.97434242,62.2468281 1.85884627,62.9244375 Z" id="Fill-44" fill="#B12655"></path>
                <path d="M99.5262355,38.3525047 C97.4416905,40.4235828 94.6692483,41.5625828 91.7248987,41.5625828 C89.7547805,41.5625828 87.8215568,41.0395672 86.1383075,40.0559578 C86.0286931,39.9938016 85.9038396,39.9576766 85.7840658,39.9576766 C85.6327445,39.9576766 85.4763434,40.0092078 85.35149,40.1024422 C83.7567342,41.3296297 82.1515517,41.5110516 81.4478807,41.5264578 C82.2868319,40.9048953 82.9905028,39.9420047 83.5794797,38.6011297 C83.6890941,38.3525047 83.6420401,38.0624422 83.4594386,37.8555203 C79.6031506,33.5266297 79.8063383,26.9303641 83.9232946,22.8400047 C86.0078396,20.7689266 88.7805491,19.6296609 91.7248987,19.6296609 C94.674328,19.6296609 97.4416905,20.7689266 99.5262355,22.8400047 C103.830873,27.1218797 103.830873,34.0809891 99.5262355,38.3525047" id="Fill-46" fill="#FFFFFF"></path>
                <path d="M99.3953933,38.0144969 C97.3833008,40.0135906 94.7071054,41.1130125 91.8651517,41.1130125 C89.9634756,41.1130125 88.0973573,40.608325 86.4723907,39.6587156 C86.3667866,39.5986844 86.2462108,39.5638875 86.1304473,39.5638875 C85.9847404,39.5638875 85.8336864,39.6135594 85.7128432,39.7036062 C84.1736967,40.8882937 82.6241234,41.0633406 81.9450488,41.0782156 C82.7548586,40.4781687 83.4342005,39.5487469 84.0025913,38.2543562 C84.1081954,38.0144969 84.0627455,37.7345281 83.8868278,37.5347781 C80.1642159,33.3562312 80.3604524,26.9892 84.3346427,23.04095 C86.3467352,21.0415906 89.0229306,19.9421687 91.8651517,19.9421687 C94.7121851,19.9421687 97.3833008,21.0415906 99.3953933,23.04095 C103.550581,27.174075 103.550581,33.8912 99.3953933,38.0144969 M100.356257,22.0961219 C98.0877738,19.8422937 95.0744473,18.597575 91.8651517,18.597575 C88.655856,18.597575 85.6425296,19.8372469 83.3737789,22.0913406 C78.9972237,26.4393562 78.6804113,33.3862469 82.5789409,38.0941844 C82.0404936,39.1890906 81.4017892,39.9187625 80.6874242,40.268325 C80.2497686,40.4834812 80.0035373,40.9531062 80.0738509,41.4330906 C80.1492442,41.9178562 80.5213985,42.2926531 81.0095835,42.3675594 C81.2758663,42.4076687 81.5630026,42.4326375 81.8594961,42.4326375 C83.3336761,42.4326375 84.882982,41.92795 86.1756298,41.0431531 C87.9160925,41.9728406 89.8731105,42.4626531 91.8651517,42.4626531 C95.0744473,42.4626531 98.0877738,41.2229812 100.356257,38.9688875 C102.625008,36.7150594 103.87274,33.7161531 103.87274,30.5326375 C103.87274,27.3488562 102.625008,24.3502156 100.356257,22.0961219" id="Fill-48" fill="#B12655"></path>
                <path d="M80.4213553,13.6206656 C78.5394632,13.6206656 76.8880288,12.6232437 75.9736843,11.1322906 C75.9196792,11.0443687 75.8691496,10.9540563 75.8204915,10.8626813 C75.8071239,10.8377125 75.794291,10.8124781 75.7814581,10.7872438 C75.7448308,10.7157906 75.7098077,10.643275 75.676656,10.5699625 C75.6654272,10.5457906 75.6541985,10.5216188 75.6435044,10.4971812 C75.6023321,10.4028844 75.5635661,10.307525 75.5280082,10.2103063 C75.5218591,10.1930406 75.5162447,10.1752437 75.5100956,10.1579781 C75.4814889,10.0764312 75.4547537,9.99382188 75.42989,9.91041562 C75.4210674,9.8804 75.4122447,9.85011875 75.4039568,9.8198375 C75.3812319,9.738025 75.3606458,9.65541563 75.3419311,9.57200937 C75.3373861,9.551025 75.3317717,9.53030625 75.3272267,9.50905625 C75.3058386,9.40732187 75.287926,9.30425938 75.2726869,9.2004 C75.2684093,9.1717125 75.265201,9.14249375 75.2614581,9.11354063 C75.2510314,9.03411875 75.2427434,8.9539 75.2360596,8.87315 C75.2333861,8.8402125 75.2304452,8.807275 75.2283064,8.77407188 C75.22189,8.67100938 75.2176123,8.56741563 75.217345,8.46275938 C75.217345,8.45850938 75.2170776,8.45425938 75.2170776,8.45000938 C75.2170776,8.36022813 75.1804504,8.27894688 75.1213656,8.21997813 C75.0620134,8.161275 74.9802036,8.12488438 74.8898386,8.12488438 C74.7093758,8.12488438 74.5628668,8.27018125 74.5628668,8.44974375 C74.5628668,8.55519688 74.5588566,8.6595875 74.5524401,8.76344688 C74.550836,8.7913375 74.5481625,8.81922813 74.5460237,8.84685313 C74.5401419,8.92441563 74.532656,9.0017125 74.5232987,9.07847813 C74.5195558,9.10743125 74.5160802,9.13665 74.5120699,9.16586875 C74.4997717,9.25219687 74.4856021,9.33772812 74.4692936,9.4224625 C74.4666201,9.43707188 74.4644812,9.45168125 74.4615404,9.46629063 C74.4409542,9.56829063 74.4171599,9.66949375 74.390692,9.76936875 C74.3869491,9.78291563 74.3829388,9.79619687 74.3791959,9.80947812 C74.3556689,9.89474375 74.3300031,9.97947812 74.3024658,10.0628844 C74.2952473,10.0846656 74.2877614,10.1061813 74.2802756,10.1276969 C74.2519362,10.2089781 74.2219928,10.2894625 74.1899105,10.3688844 C74.1840288,10.3832281 74.1786817,10.3975719 74.1728,10.4119156 C74.0928617,10.6042281 74.001962,10.7909625 73.9001008,10.9710562 C73.8952884,10.9795563 73.8902087,10.9880562 73.885129,10.9965562 C73.8375404,11.0796969 73.7878129,11.1615094 73.7359465,11.2417281 C73.7308668,11.2494312 73.7257871,11.2574 73.7207075,11.2651031 C73.5463938,11.5307281 73.3482859,11.7793531 73.1293244,12.0083219 C73.1287897,12.0088531 73.1279877,12.00965 73.127453,12.0101812 C72.8317614,12.3188375 72.4978386,12.5916344 72.1337049,12.8206031 C71.9366663,12.9443844 71.7305378,13.0554156 71.5169234,13.1529 C71.5091702,13.1563531 71.501417,13.1598062 71.4933964,13.163525 C71.2840596,13.2575562 71.0675044,13.3383062 70.8448,13.4044469 C70.8292936,13.4089625 70.8137871,13.4132125 70.7982807,13.4177281 C70.7039054,13.4448219 70.6081933,13.4689937 70.5114118,13.4910406 C70.4921625,13.4952906 70.4729131,13.5000719 70.4533964,13.5043219 C70.3448514,13.5276969 70.235237,13.5476187 70.1242859,13.5640875 C70.1053039,13.5667437 70.0857871,13.5686031 70.0668051,13.5712594 C69.9753707,13.5837437 69.8831342,13.5935719 69.790363,13.601275 C69.7588154,13.6036656 69.7267332,13.6063219 69.6949183,13.6084469 C69.58771,13.6153531 69.4796997,13.6198687 69.3708874,13.6201344 C69.3668771,13.6201344 69.3625995,13.6204 69.3583219,13.6204 C69.1775918,13.6204 69.0313501,13.7659625 69.0313501,13.9452594 C69.0313501,14.0350406 69.0679774,14.1165875 69.1273296,14.1752906 C69.1864144,14.2342594 69.2682242,14.27065 69.3585892,14.27065 C69.3722242,14.27065 69.3858591,14.2714469 69.3992267,14.2717125 C69.4962756,14.2725094 69.5927897,14.2759625 69.6885018,14.2820719 C69.7248617,14.2841969 69.7612216,14.2873844 69.7973141,14.2903062 C69.8828668,14.2974781 69.9678848,14.306775 70.0521008,14.3179312 C70.0780339,14.3213844 70.1039671,14.323775 70.1296329,14.3277594 C70.2365738,14.3434312 70.3421779,14.3628219 70.4469799,14.3851344 C70.4718437,14.3904469 70.4964401,14.3965562 70.5210365,14.4021344 C70.6114015,14.4228531 70.7009645,14.4456969 70.7894581,14.4709312 C70.8092422,14.4765094 70.8292936,14.4818219 70.8488103,14.4876656 C71.0685738,14.553275 71.2824555,14.6326969 71.4891188,14.7254 C71.5000802,14.7304469 71.5110416,14.7354937 71.5220031,14.740275 C71.7326766,14.8366969 71.9361316,14.9461344 72.1304967,15.0683219 C72.1331702,15.0699156 72.1358437,15.071775 72.1385172,15.0733687 C72.2270108,15.12915 72.3136329,15.1873219 72.3983835,15.24815 C72.3999877,15.2492125 72.4015918,15.250275 72.4029285,15.2516031 C72.6603887,15.4367437 72.8999362,15.6447281 73.119165,15.8723687 C73.1250468,15.8784781 73.1306612,15.8845875 73.1365429,15.8904312 C73.3509594,16.1154156 73.5450571,16.359525 73.7164298,16.6198375 C73.7247177,16.6323219 73.7330057,16.6450719 73.7410262,16.6578219 C73.7891496,16.7321969 73.8354015,16.8079 73.8795147,16.8849312 C73.8872679,16.8984781 73.8952884,16.9114937 73.9030416,16.9250406 C74.002764,17.1024781 74.0925943,17.286025 74.1711959,17.4754156 C74.1786817,17.4934781 74.1856329,17.5118062 74.1928514,17.5301344 C74.2230622,17.6053062 74.2516689,17.681275 74.2784041,17.7580406 C74.2869594,17.7827437 74.2955147,17.8071812 74.3035352,17.83215 C74.3300031,17.9115719 74.3543321,17.9920562 74.3767897,18.0730719 C74.3813347,18.0900719 74.3866817,18.1068062 74.3912267,18.1238062 C74.4174272,18.2223531 74.4406869,18.3222281 74.461273,18.4229 C74.4644812,18.4399 74.4671548,18.4569 74.470363,18.4739 C74.4861368,18.5562437 74.5000391,18.63965 74.5118026,18.7233219 C74.5160802,18.7536031 74.5195558,18.7838844 74.5232987,18.8141656 C74.532656,18.8898687 74.5401419,18.9658375 74.5460237,19.0423375 C74.5481625,19.071025 74.550836,19.0991812 74.5524401,19.1278687 C74.5588566,19.2314625 74.5628668,19.3358531 74.5628668,19.440775 C74.5628668,19.4859312 74.5719568,19.5286969 74.5888,19.5677437 C74.6382602,19.6843531 74.7545584,19.7661656 74.8901059,19.7661656 C75.070836,19.7661656 75.2170776,19.6206031 75.2170776,19.4413062 C75.2170776,19.4367906 75.217345,19.4325406 75.217345,19.4282906 C75.2176123,19.3236344 75.22189,19.2200406 75.2283064,19.1169781 C75.2304452,19.0835094 75.2333861,19.0503062 75.2360596,19.0168375 C75.2427434,18.9368844 75.2510314,18.8577281 75.2611907,18.7785719 C75.265201,18.7490875 75.2684093,18.7190719 75.2726869,18.6895875 C75.287926,18.586525 75.3058386,18.4842594 75.3269594,18.3833219 C75.3320391,18.3599469 75.3379208,18.3368375 75.3432679,18.3137281 C75.3614478,18.2329781 75.3812319,18.1532906 75.4031548,18.0741344 C75.4119774,18.0417281 75.4213347,18.0093219 75.4309594,17.9771812 C75.4547537,17.8974937 75.4804195,17.8183375 75.5076895,17.7402437 C75.514908,17.7197906 75.5213244,17.6988062 75.5288103,17.6786187 C75.5638334,17.5829937 75.6020648,17.4892281 75.6421676,17.396525 C75.6541985,17.3689 75.6670314,17.3420719 75.6793296,17.3147125 C75.7108771,17.24565 75.7437614,17.1773844 75.7782499,17.1101812 C75.7929542,17.0812281 75.8076586,17.052275 75.8228977,17.0238531 C75.8699517,16.9356656 75.9188771,16.8485406 75.9707434,16.7635406 C76.8842859,15.2701969 78.5375918,14.27065 80.4213553,14.27065 C80.6020853,14.27065 80.748327,14.1250875 80.748327,13.945525 C80.748327,13.7662281 80.601818,13.6206656 80.4213553,13.6206656" id="Fill-50" fill="#F8C3D7"></path>
                <path d="M24.7907928,50.313625 C23.50269,50.313625 22.3720576,49.6307031 21.7464535,48.6104375 C21.7092915,48.5501406 21.6748031,48.48825 21.6413841,48.4255625 C21.6322941,48.4085625 21.6234715,48.3912969 21.6146488,48.3740312 C21.5895177,48.3251562 21.5657234,48.2754844 21.5429985,48.2252812 C21.5352452,48.2088125 21.527492,48.1923437 21.5202735,48.1756094 C21.4922015,48.1110625 21.4654663,48.0457187 21.4411373,47.9790469 C21.4368596,47.9673594 21.4331167,47.9551406 21.4291064,47.9431875 C21.4093224,47.8874062 21.3908751,47.8310937 21.3740319,47.7739844 C21.3678828,47.7532656 21.362001,47.7325469 21.3563866,47.7118281 C21.3408802,47.6557812 21.3267105,47.5992031 21.3138776,47.5423594 C21.3106694,47.52775 21.3069265,47.5136719 21.3037183,47.4990625 C21.2892812,47.4294687 21.2767157,47.3590781 21.2662889,47.2878906 C21.2636154,47.2682344 21.2612093,47.2483125 21.2588031,47.2283906 C21.2515846,47.1739375 21.2459702,47.1192187 21.2414252,47.0639687 C21.2395537,47.0413906 21.2374149,47.0188125 21.2360781,46.9959687 C21.2318005,46.9255781 21.2288596,46.8546562 21.2285923,46.7829375 C21.2285923,46.7800156 21.2283249,46.7770937 21.2283249,46.7741719 C21.2283249,46.7128125 21.2031938,46.6570312 21.1628237,46.6169219 C21.1221861,46.5765469 21.0663095,46.5515781 21.0045512,46.5515781 C20.8807671,46.5515781 20.78051,46.6511875 20.78051,46.7741719 C20.78051,46.8461562 20.7778365,46.9176094 20.7735589,46.9887969 C20.7722221,47.0079219 20.770618,47.0267812 20.7690139,47.0459062 C20.7650036,47.0990312 20.7599239,47.1518906 20.7535075,47.2044844 C20.7508339,47.2244062 20.7484278,47.2443281 20.7457542,47.26425 C20.7374663,47.3232187 20.7278416,47.3819219 20.7166129,47.4398281 C20.7147414,47.4499219 20.7131373,47.4600156 20.7112658,47.4698437 C20.6970961,47.5397031 20.6807877,47.6090312 20.6626077,47.6772969 C20.6602015,47.6865937 20.6572607,47.695625 20.6548545,47.7049219 C20.6388134,47.7633594 20.6211681,47.821 20.6021861,47.878375 C20.5973738,47.89325 20.5922941,47.9078594 20.586947,47.9227344 C20.5676977,47.97825 20.5471116,48.0332344 20.5251887,48.0876875 C20.5211784,48.0975156 20.5177028,48.1073437 20.5134252,48.1171719 C20.4588853,48.2489219 20.3965923,48.3766875 20.3268134,48.4999375 C20.3236051,48.5057812 20.3201296,48.511625 20.316654,48.5174687 C20.284037,48.5743125 20.2500833,48.6303594 20.2145254,48.6850781 C20.2110499,48.6903906 20.2075743,48.6959687 20.2040987,48.7012812 C20.0845923,48.8829687 19.9490447,49.0532344 19.7993275,49.2099531 C19.7987928,49.2104844 19.7985254,49.21075 19.7979907,49.2112813 C19.5956051,49.4224531 19.367019,49.6091875 19.1178468,49.7659063 C18.9828339,49.8509062 18.8419393,49.926875 18.6956977,49.9935469 C18.6903506,49.9959375 18.6847362,49.9983281 18.6793892,50.0007188 C18.5360884,50.065 18.3879753,50.12025 18.2353172,50.1656719 C18.2248905,50.1688594 18.2141964,50.1715156 18.2035023,50.1747031 C18.1390704,50.1932969 18.0735692,50.2097656 18.0072658,50.2249063 C17.9941656,50.2278281 17.9807979,50.2312813 17.9676977,50.2339375 C17.8933738,50.249875 17.8182478,50.2636875 17.7423198,50.2748438 C17.7292195,50.2767031 17.7158519,50.2780312 17.703019,50.2798906 C17.6404586,50.2883906 17.5773635,50.2950313 17.5137337,50.3003438 C17.4920781,50.3022031 17.4701553,50.3037969 17.4482324,50.3053906 C17.3749779,50.3099063 17.3011887,50.3130938 17.2265974,50.3133594 C17.2236566,50.3133594 17.220983,50.3133594 17.2180422,50.3133594 C17.0942581,50.3133594 16.994001,50.4129688 16.994001,50.5359531 C16.994001,50.5973125 17.0191321,50.6530938 17.0597697,50.6932031 C17.1004072,50.7335781 17.1562838,50.7585469 17.2180422,50.7585469 C17.2273995,50.7585469 17.2367568,50.7590781 17.2461141,50.7590781 C17.3124175,50.759875 17.3784535,50.7622656 17.4439548,50.76625 C17.4688185,50.7678438 17.4936823,50.7699688 17.518546,50.7720938 C17.5770961,50.776875 17.6351116,50.78325 17.6928596,50.7909531 C17.7105049,50.7930781 17.7284175,50.7949375 17.7457954,50.7975938 C17.8190499,50.8084844 17.8915023,50.8217656 17.9631527,50.8369063 C17.9802632,50.840625 17.9968391,50.844875 18.0139496,50.8485938 C18.075708,50.8626719 18.1369316,50.8783437 18.1976206,50.8956094 C18.2112555,50.8995938 18.2248905,50.9030469 18.2382581,50.9070313 C18.3887774,50.9519219 18.535019,51.006375 18.6764483,51.0698594 C18.6839342,51.0733125 18.6916874,51.0767656 18.6991733,51.0802188 C18.8432761,51.1460938 18.9825666,51.221 19.115708,51.3044063 C19.1173121,51.3057344 19.1191835,51.3067969 19.121055,51.308125 C19.1814766,51.3461094 19.2408288,51.3859531 19.2988442,51.4276563 C19.2999136,51.4284531 19.300983,51.42925 19.3020524,51.4300469 C19.4782375,51.55675 19.6423918,51.699125 19.7923763,51.8550469 C19.7963866,51.8590313 19.8001296,51.8632813 19.8041398,51.8675313 C19.9509162,52.0213281 20.0837902,52.1884063 20.2011578,52.3666406 C20.2067722,52.3751406 20.2123866,52.3839063 20.218001,52.3926719 C20.2508853,52.4436719 20.2824329,52.4954688 20.3129111,52.5480625 C20.3182581,52.5573594 20.3236051,52.5663906 20.3286848,52.5756875 C20.397127,52.6968125 20.458618,52.8227188 20.5123558,52.9520781 C20.5177028,52.9645625 20.5222478,52.9773125 20.5273275,52.9897969 C20.5479136,53.0410625 20.5674303,53.093125 20.5858776,53.1457188 C20.5917594,53.1627188 20.5973738,53.1794531 20.6029882,53.1964531 C20.6211681,53.2509063 20.637744,53.3058906 20.652983,53.3614063 C20.6561913,53.3730938 20.6599342,53.3845156 20.6631424,53.3962031 C20.681055,53.4636719 20.6970961,53.5319375 20.7109985,53.601 C20.7131373,53.6124219 20.7150087,53.6241094 20.7171476,53.6357969 C20.728109,53.6921094 20.7374663,53.7492188 20.7454869,53.8065938 C20.7484278,53.8273125 20.7511013,53.8480313 20.7535075,53.86875 C20.7599239,53.9205469 20.7650036,53.9726094 20.7690139,54.0249375 C20.770618,54.0443281 20.7722221,54.0637188 20.7735589,54.083375 C20.7778365,54.1542969 20.78051,54.22575 20.78051,54.2977344 C20.78051,54.3285469 20.7869265,54.3577656 20.7981553,54.3843281 C20.832109,54.4642813 20.9117799,54.5203281 21.0045512,54.5203281 C21.1280679,54.5203281 21.2283249,54.4207188 21.2283249,54.298 C21.2283249,54.2948125 21.2285923,54.2921563 21.2285923,54.2889688 C21.2288596,54.2175156 21.2318005,54.1465938 21.2360781,54.0759375 C21.2376823,54.0530938 21.2395537,54.03025 21.2414252,54.0074063 C21.2459702,53.9526875 21.2515846,53.8985 21.2585357,53.8443125 C21.2612093,53.824125 21.2636154,53.8036719 21.2665563,53.7834844 C21.276983,53.7128281 21.2890139,53.6427031 21.3037183,53.5736406 C21.3069265,53.5577031 21.3112041,53.5420313 21.3146797,53.5260938 C21.3272452,53.4708438 21.3408802,53.4163906 21.3555846,53.3622031 C21.3617337,53.3398906 21.3681501,53.3178438 21.3748339,53.2957969 C21.3908751,53.2410781 21.4085203,53.1871563 21.4275023,53.1335 C21.4323147,53.1194219 21.4365923,53.1053438 21.4419393,53.0912656 C21.4657337,53.0259219 21.4919342,52.9616406 21.5194715,52.8981563 C21.527492,52.8792969 21.5363147,52.8609688 21.5448699,52.842375 C21.5665254,52.7950938 21.588983,52.7483438 21.61251,52.702125 C21.6226694,52.6824688 21.6325614,52.6625469 21.6429882,52.6431563 C21.6753378,52.5828594 21.7087568,52.5230938 21.7443147,52.4649219 C22.3696514,51.4427969 23.5013532,50.7585469 24.7907928,50.7585469 C24.9145769,50.7585469 25.0145666,50.6589375 25.0145666,50.5359531 C25.0145666,50.4132344 24.9143095,50.313625 24.7907928,50.313625" id="Fill-52" fill="#B12655"></path>
                <path d="M68.9331517,97.7099172 C67.6450488,97.7099172 66.5144165,97.0269953 65.8888123,96.0067297 C65.8516504,95.9464328 65.817162,95.8845422 65.7837429,95.8218547 C65.774653,95.8048547 65.7658303,95.7875891 65.7570077,95.7703234 C65.7318766,95.7214484 65.7080823,95.6717766 65.6853573,95.6215734 C65.6776041,95.6051047 65.6698509,95.5886359 65.6626324,95.5719016 C65.6345604,95.5073547 65.6078252,95.4420109 65.5834961,95.3753391 C65.5792185,95.3636516 65.5754756,95.3514328 65.5714653,95.3394797 C65.5516812,95.2836984 65.5332339,95.2273859 65.5163907,95.1702766 C65.5102416,95.1495578 65.5043599,95.1288391 65.4987455,95.1081203 C65.4829717,95.0520734 65.4690694,94.9954953 65.4562365,94.9386516 C65.4530283,94.9240422 65.4492853,94.9099641 65.4460771,94.8953547 C65.4316401,94.8257609 65.4190746,94.7553703 65.4086478,94.6841828 C65.4059743,94.6645266 65.4035681,94.6446047 65.401162,94.6246828 C65.3939434,94.5702297 65.388329,94.5155109 65.3837841,94.4602609 C65.3819126,94.4376828 65.3797738,94.4151047 65.378437,94.3922609 C65.3741594,94.3218703 65.3712185,94.2509484 65.3709512,94.1792297 C65.3709512,94.1763078 65.3706838,94.1733859 65.3706838,94.1704641 C65.3706838,94.1091047 65.3455527,94.0533234 65.3051825,94.0132141 C65.264545,93.9728391 65.2086684,93.9478703 65.14691,93.9478703 C65.023126,93.9478703 64.9228689,94.0474797 64.9228689,94.1704641 C64.9228689,94.2424484 64.9201954,94.3139016 64.9159177,94.3850891 C64.914581,94.4042141 64.9129769,94.4230734 64.9113728,94.4421984 C64.9073625,94.4953234 64.9022828,94.5481828 64.8958663,94.6007766 C64.8931928,94.6206984 64.8907866,94.6406203 64.8881131,94.6605422 C64.8798252,94.7195109 64.8702005,94.7782141 64.8589717,94.8361203 C64.8571003,94.8462141 64.8554961,94.8563078 64.8536247,94.8661359 C64.839455,94.9359953 64.8231465,95.0053234 64.8049666,95.0735891 C64.8025604,95.0828859 64.7996195,95.0919172 64.7972134,95.1012141 C64.7811722,95.1596516 64.763527,95.2172922 64.744545,95.2746672 C64.7397326,95.2895422 64.734653,95.3041516 64.7293059,95.3190266 C64.7100566,95.3745422 64.6894704,95.4295266 64.6675476,95.4839797 C64.6635373,95.4938078 64.6600617,95.5036359 64.6557841,95.5134641 C64.6012442,95.6452141 64.5389512,95.7729797 64.4691722,95.8962297 C64.465964,95.9020734 64.4624884,95.9079172 64.4590129,95.9137609 C64.4263959,95.9706047 64.3924422,96.0266516 64.3568843,96.0813703 C64.3534087,96.0866828 64.3499332,96.0922609 64.3464576,96.0975734 C64.2269512,96.2792609 64.0914036,96.4495266 63.9416864,96.6062453 C63.9411517,96.6067766 63.9408843,96.6070422 63.9403496,96.6075734 C63.737964,96.8187453 63.5093779,97.0054797 63.2602057,97.1621984 C63.1251928,97.2471984 62.9842982,97.3231672 62.8380566,97.3898391 C62.8327095,97.3922297 62.8270951,97.3946203 62.8217481,97.3970109 C62.6784473,97.4612922 62.5303342,97.5165422 62.3776761,97.5619641 C62.3672494,97.5651516 62.3565553,97.5678078 62.3458612,97.5709953 C62.2814293,97.5895891 62.215928,97.6060578 62.1496247,97.6211984 C62.1365244,97.6241203 62.1231568,97.6275734 62.1100566,97.6302297 C62.0357326,97.6461672 61.9606067,97.6599797 61.8846787,97.6711359 C61.8715784,97.6729953 61.8582108,97.6743234 61.8453779,97.6761828 C61.7828175,97.6846828 61.7197224,97.6913234 61.6560925,97.6966359 C61.634437,97.6984953 61.6125141,97.7000891 61.5905913,97.7016828 C61.5173368,97.7061984 61.4435476,97.7093859 61.3689563,97.7096516 C61.3660154,97.7096516 61.3633419,97.7096516 61.360401,97.7096516 C61.236617,97.7096516 61.1363599,97.8092609 61.1363599,97.9322453 C61.1363599,97.9936047 61.161491,98.0493859 61.2021285,98.0894953 C61.2427661,98.1298703 61.2986427,98.1548391 61.360401,98.1548391 C61.3697584,98.1548391 61.3791157,98.1553703 61.388473,98.1553703 C61.4547763,98.1561672 61.5208123,98.1585578 61.5863136,98.1625422 C61.6111774,98.1641359 61.6360411,98.1662609 61.6609049,98.1683859 C61.719455,98.1731672 61.7774704,98.1795422 61.8352185,98.1872453 C61.8528638,98.1893703 61.8707763,98.1912297 61.8881542,98.1938859 C61.9614087,98.2047766 62.0338612,98.2180578 62.1055116,98.2331984 C62.1226221,98.2369172 62.1391979,98.2411672 62.1563085,98.2448859 C62.2180668,98.2589641 62.2792905,98.2746359 62.3399794,98.2919016 C62.3536144,98.2958859 62.3672494,98.2993391 62.380617,98.3033234 C62.5311362,98.3482141 62.6773779,98.4026672 62.8188072,98.4661516 C62.8262931,98.4696047 62.8340463,98.4730578 62.8415321,98.4765109 C62.985635,98.5423859 63.1249254,98.6172922 63.2580668,98.7006984 C63.259671,98.7020266 63.2615424,98.7030891 63.2634139,98.7044172 C63.3238355,98.7424016 63.3831877,98.7822453 63.4412031,98.8239484 C63.4422725,98.8247453 63.4433419,98.8255422 63.4444113,98.8263391 C63.6205964,98.9530422 63.7847506,99.0954172 63.9347352,99.2513391 C63.9387455,99.2553234 63.9424884,99.2595734 63.9464987,99.2638234 C64.0932751,99.4176203 64.2261491,99.5846984 64.3435167,99.7629328 C64.3491311,99.7714328 64.3547455,99.7801984 64.3603599,99.7889641 C64.3932442,99.8399641 64.4247918,99.8917609 64.4552699,99.9443547 C64.460617,99.9536516 64.465964,99.9626828 64.4710437,99.9719797 C64.5394859,100.093105 64.6009769,100.219011 64.6547147,100.34837 C64.6600617,100.360855 64.6646067,100.373605 64.6696864,100.386089 C64.6902725,100.437355 64.7097892,100.489417 64.7282365,100.542011 C64.7341183,100.559011 64.7397326,100.575745 64.745347,100.592745 C64.763527,100.647198 64.7801028,100.702183 64.7953419,100.757698 C64.7985501,100.769386 64.8022931,100.780808 64.8055013,100.792495 C64.8234139,100.859964 64.839455,100.92823 64.8533573,100.997292 C64.8554961,101.008714 64.8573676,101.020402 64.8595064,101.032089 C64.8704679,101.088402 64.8798252,101.145511 64.8878458,101.202886 C64.8907866,101.223605 64.8934602,101.244323 64.8958663,101.265042 C64.9022828,101.316839 64.9073625,101.368902 64.9113728,101.42123 C64.9129769,101.44062 64.914581,101.460011 64.9159177,101.479667 C64.9201954,101.550589 64.9228689,101.622042 64.9228689,101.694027 C64.9228689,101.724839 64.9292853,101.754058 64.9405141,101.78062 C64.9744679,101.860573 65.0541388,101.91662 65.14691,101.91662 C65.2704267,101.91662 65.3706838,101.817011 65.3706838,101.694292 C65.3706838,101.691105 65.3709512,101.688448 65.3709512,101.685261 C65.3712185,101.613808 65.3741594,101.542886 65.378437,101.47223 C65.3797738,101.449386 65.3819126,101.426542 65.3837841,101.403698 C65.388329,101.34898 65.3939434,101.294792 65.4008946,101.240605 C65.4035681,101.220417 65.4059743,101.199964 65.4089152,101.179511 C65.4193419,101.10912 65.4313728,101.038995 65.4460771,100.969933 C65.4492853,100.953995 65.453563,100.938323 65.4570386,100.922386 C65.4696041,100.867136 65.4829717,100.812683 65.4979434,100.758495 C65.5040925,100.736183 65.510509,100.714136 65.5171928,100.692089 C65.5332339,100.63737 65.5508792,100.583448 65.5698612,100.529792 C65.5746735,100.515714 65.5789512,100.501636 65.5842982,100.487558 C65.6080925,100.422214 65.6342931,100.357933 65.6618303,100.294448 C65.6698509,100.275589 65.6786735,100.257261 65.6872288,100.238667 C65.7088843,100.191386 65.7313419,100.144636 65.7548689,100.098417 C65.7650283,100.078761 65.7749203,100.058839 65.785347,100.039448 C65.8176967,99.9791516 65.8511157,99.9193859 65.8866735,99.8612141 C66.5120103,98.8390891 67.6437121,98.1548391 68.9331517,98.1548391 C69.0569357,98.1548391 69.1569254,98.0552297 69.1569254,97.9322453 C69.1569254,97.8095266 69.0566684,97.7099172 68.9331517,97.7099172" id="Fill-54" fill="#F8C3D7"></path>
                <path d="M87.4432,3.91818125 C86.1550972,3.91818125 85.0244648,3.23525937 84.3988607,2.21499375 C84.3616987,2.15469687 84.3272103,2.09280625 84.2937913,2.03011875 C84.2847013,2.01311875 84.2758787,1.99585312 84.267056,1.9785875 C84.2419249,1.9297125 84.2181306,1.88004062 84.1954057,1.8298375 C84.1876524,1.81336875 84.1798992,1.7969 84.1726807,1.78016563 C84.1446087,1.71561875 84.1178735,1.650275 84.0935445,1.58360312 C84.0892668,1.57191562 84.0855239,1.55969687 84.0815136,1.54774375 C84.0617296,1.4919625 84.0432823,1.43565 84.0264391,1.37854063 C84.02029,1.35782187 84.0144082,1.33710312 84.0087938,1.31638437 C83.9932874,1.2603375 83.9791177,1.20375937 83.9662848,1.14691562 C83.9630766,1.13230625 83.9593337,1.11822812 83.9561254,1.10361875 C83.9416884,1.034025 83.9291229,0.963634375 83.9186961,0.892446875 C83.9160226,0.872790625 83.9136165,0.85286875 83.9112103,0.832946875 C83.9039918,0.77849375 83.8983774,0.723775 83.8938324,0.668525 C83.8919609,0.645946875 83.8898221,0.62336875 83.8884853,0.600525 C83.8842077,0.530134375 83.8812668,0.4592125 83.8809995,0.38749375 C83.8809995,0.384571875 83.8807321,0.38165 83.8807321,0.378728125 C83.8807321,0.31736875 83.855601,0.2615875 83.8152308,0.221478125 C83.7745933,0.181103125 83.7187167,0.156134375 83.6569584,0.156134375 C83.5331743,0.156134375 83.4329172,0.25574375 83.4329172,0.378728125 C83.4329172,0.4507125 83.4302437,0.522165625 83.4259661,0.593353125 C83.4246293,0.612478125 83.4230252,0.6313375 83.4214211,0.6504625 C83.4174108,0.7035875 83.4123311,0.756446875 83.4059147,0.808775 C83.4032411,0.8289625 83.400835,0.848884375 83.3981614,0.86880625 C83.3898735,0.927775 83.3802488,0.986478125 83.3690201,1.04438437 C83.3671486,1.05447812 83.3655445,1.06457187 83.363673,1.0744 C83.3495033,1.14425937 83.3331949,1.2135875 83.3150149,1.28185312 C83.3126087,1.29115 83.3096679,1.30018125 83.3072617,1.30947812 C83.2912206,1.36791562 83.2735753,1.42555625 83.2545933,1.48293125 C83.249781,1.49780625 83.2447013,1.51241562 83.2393542,1.52729063 C83.2201049,1.58280625 83.1995188,1.63779063 83.1775959,1.69224375 C83.1735856,1.70207187 83.17011,1.7119 83.1658324,1.72172812 C83.1112925,1.85347812 83.0489995,1.98124375 82.9792206,2.10449375 C82.9760123,2.1103375 82.9725368,2.11618125 82.9690612,2.122025 C82.9364442,2.17886875 82.9024905,2.23491563 82.8669326,2.28963437 C82.8634571,2.29494688 82.8599815,2.300525 82.8565059,2.3058375 C82.7369995,2.487525 82.6014519,2.65779062 82.4517347,2.81450938 C82.4512,2.81504062 82.4509326,2.81530625 82.4503979,2.8158375 C82.2480123,3.02700937 82.0194262,3.21374375 81.770254,3.3704625 C81.6352411,3.4554625 81.4943465,3.53143125 81.3481049,3.59810313 C81.3427578,3.60049375 81.3371434,3.60288437 81.3317964,3.605275 C81.1884956,3.66955625 81.0403825,3.72480625 80.8877244,3.77022812 C80.8772977,3.77341562 80.8666036,3.77607187 80.8559095,3.77925937 C80.7914776,3.79785313 80.7259763,3.81432187 80.659673,3.8294625 C80.6465728,3.83238438 80.6332051,3.8358375 80.6201049,3.83849375 C80.545781,3.85443125 80.470655,3.86824375 80.394727,3.8794 C80.3816267,3.88125937 80.3682591,3.8825875 80.3554262,3.88444687 C80.2928658,3.89294687 80.2297707,3.8995875 80.1661409,3.9049 C80.1444853,3.90675938 80.1225625,3.90835313 80.1006396,3.90994688 C80.0273851,3.9144625 79.9535959,3.91765 79.8790046,3.91791563 C79.8760638,3.91791563 79.8733902,3.91791563 79.8704494,3.91791563 C79.7466653,3.91791563 79.6464082,4.017525 79.6464082,4.14050938 C79.6464082,4.20186875 79.6715393,4.25765 79.7121769,4.29775937 C79.7528144,4.33813438 79.808691,4.36310313 79.8704494,4.36310313 C79.8798067,4.36310313 79.889164,4.36363438 79.8985213,4.36363438 C79.9648247,4.36443125 80.0308607,4.36682188 80.096362,4.37080625 C80.1212257,4.3724 80.1460895,4.374525 80.1709532,4.37665 C80.2295033,4.38143125 80.2875188,4.38780625 80.3452668,4.39550938 C80.3629121,4.39763438 80.3808247,4.39949375 80.3982026,4.40215 C80.4714571,4.41304063 80.5439095,4.42632188 80.6155599,4.4414625 C80.6326704,4.44518125 80.6492463,4.44943125 80.6663568,4.45315 C80.7281152,4.46722813 80.7893388,4.4829 80.8500278,4.50016562 C80.8636627,4.50415 80.8772977,4.50760313 80.8906653,4.5115875 C81.0411846,4.55647813 81.1874262,4.61093125 81.3288555,4.67441562 C81.3363414,4.67786875 81.3440946,4.68132188 81.3515805,4.684775 C81.4956833,4.75065 81.6349738,4.82529063 81.7681152,4.9089625 C81.7697193,4.91029063 81.7715907,4.91135312 81.7734622,4.91268125 C81.8338838,4.95066563 81.893236,4.99050937 81.9512514,5.0322125 C81.9523208,5.03300938 81.9533902,5.03380625 81.9544596,5.03460312 C82.1306447,5.16130625 82.294799,5.30368125 82.4447835,5.45960313 C82.4487938,5.4635875 82.4525368,5.4678375 82.456547,5.47182188 C82.6033234,5.62588438 82.7361974,5.7929625 82.853565,5.97119688 C82.8591794,5.97969688 82.8647938,5.9884625 82.8704082,5.99722813 C82.9032925,6.04822813 82.9348401,6.100025 82.9653183,6.15261875 C82.9706653,6.16191563 82.9760123,6.17094688 82.981092,6.18024375 C83.0495342,6.30136875 83.1110252,6.427275 83.164763,6.55663438 C83.17011,6.56911875 83.174655,6.58186875 83.1797347,6.59435313 C83.2003208,6.64561875 83.2198375,6.69768125 83.2382848,6.750275 C83.2441666,6.767275 83.249781,6.78400938 83.2553954,6.80100938 C83.2735753,6.8554625 83.2901512,6.91044688 83.3053902,6.9659625 C83.3085985,6.97765 83.3123414,6.98907188 83.3155496,7.00075938 C83.3334622,7.06822813 83.3495033,7.13649375 83.3634057,7.20555625 C83.3655445,7.21697813 83.3674159,7.22866563 83.3695548,7.24035313 C83.3805162,7.29666563 83.3898735,7.353775 83.3978941,7.41115 C83.400835,7.43186875 83.4035085,7.4525875 83.4059147,7.47330625 C83.4123311,7.52510313 83.4174108,7.57716563 83.4214211,7.62949375 C83.4230252,7.64888438 83.4246293,7.668275 83.4259661,7.68793125 C83.4302437,7.75885313 83.4329172,7.83030625 83.4329172,7.90229063 C83.4329172,7.93310313 83.4393337,7.96232188 83.4505625,7.98888438 C83.4845162,8.0688375 83.5641871,8.12488438 83.6569584,8.12488438 C83.7804751,8.12488438 83.8807321,8.025275 83.8807321,7.90255625 C83.8807321,7.89936875 83.8809995,7.8967125 83.8809995,7.893525 C83.8812668,7.82207188 83.8842077,7.75115 83.8884853,7.68049375 C83.8900895,7.65765 83.8919609,7.63480625 83.8938324,7.6119625 C83.8983774,7.55724375 83.9039918,7.50305625 83.9109429,7.44886875 C83.9136165,7.42868125 83.9160226,7.40822813 83.9189635,7.387775 C83.9293902,7.31738438 83.9414211,7.24725938 83.9561254,7.17819688 C83.9593337,7.16225938 83.9636113,7.1465875 83.9670869,7.13065 C83.9796524,7.0754 83.9932874,7.02094688 84.0079918,6.96675938 C84.0141409,6.94444688 84.0205573,6.9224 84.0272411,6.90035313 C84.0432823,6.84563438 84.0609275,6.7917125 84.0799095,6.73805625 C84.0847219,6.72397813 84.0889995,6.7099 84.0943465,6.69582188 C84.1181409,6.63047813 84.1443414,6.56619688 84.1718787,6.5027125 C84.1798992,6.48385313 84.1887219,6.465525 84.1972771,6.44693125 C84.2189326,6.39965 84.2413902,6.3529 84.2649172,6.30668125 C84.2750766,6.287025 84.2849686,6.26710313 84.2953954,6.2477125 C84.327745,6.18741563 84.361164,6.12765 84.3967219,6.06947813 C85.0220586,5.04735312 86.1537604,4.36310313 87.4432,4.36310313 C87.5669841,4.36310313 87.6669738,4.26349375 87.6669738,4.14050938 C87.6669738,4.01779063 87.5667167,3.91818125 87.4432,3.91818125" id="Fill-56" fill="#B12655"></path>
                <path d="M92.2864987,33.9616969 C90.7299743,33.9616969 89.3004422,33.355275 88.0380051,32.1596969 C87.5720103,31.7182281 87.2150951,31.272775 86.9702005,30.9298531 L92.2867661,30.9298531 L92.2867661,30.0859625 L87.2822005,30.0859625 C87.3688226,29.9884781 87.4589203,29.88515 87.5527609,29.7770406 C88.063671,29.190275 88.6430231,28.52515 89.2557943,28.1314937 C90.2990026,27.4613219 91.3716195,27.4174937 91.9889357,28.0199312 L92.2864987,28.3102594 L92.2867661,28.3099937 L92.2867661,27.1720562 C92.2867661,27.1720562 92.2864987,27.1720562 92.2864987,27.1723219 C91.3684113,26.5374781 90.0423445,26.62115 88.7946118,27.4225406 C88.0797121,27.8818062 87.431383,28.6263531 86.9103136,29.2248062 C86.5763907,29.6083687 86.1980874,30.0429312 86.0197635,30.1247437 L85.6147249,30.3109469 L85.8216555,30.7035406 C85.8435784,30.745775 86.376144,31.7453219 87.430581,32.7504469 C88.8408638,34.0950406 90.5201028,34.8058531 92.2864987,34.8058531 C92.2864987,34.8058531 92.2867661,34.8058531 92.2867661,34.8058531 L92.2867661,33.9616969 C92.2867661,33.9616969 92.2864987,33.9616969 92.2864987,33.9616969" id="Fill-58" fill="#AF2A56"></path>
                <path d="M85.6376103,30.3186234 L85.836253,30.6958109 C85.8584432,30.7377797 86.3891373,31.7346703 87.4419702,32.7384672 C88.8450344,34.0758891 90.5141141,34.7848422 92.2703506,34.7890922 L92.2703506,33.9781391 C90.7156977,33.9738891 89.2877697,33.3661391 88.0266694,32.1716234 C87.6366026,31.8024047 87.2767465,31.3877641 86.956726,30.9393891 L86.9380113,30.9133578 L92.2703506,30.9133578 L92.2703506,30.1024047 L87.245199,30.1024047 L87.2697954,30.0747797 C87.3550807,29.9786234 87.4438416,29.8768891 87.5363455,29.7706391 L87.5400884,29.7663891 C88.0520679,29.1785609 88.6319548,28.5123734 89.2468648,28.1176547 C90.2967568,27.4429672 91.3776617,27.4002016 92.0005923,28.0079516 L92.2703506,28.2711859 L92.2703506,27.1810609 C91.3546694,26.5528578 90.0272658,26.6506078 88.8035949,27.4365922 C88.0905666,27.8945297 87.4433069,28.6382797 86.9230396,29.2356703 C86.5880473,29.6202953 86.2084072,30.0564516 86.0266077,30.1398578 L85.6376103,30.3186234 Z M92.3035023,34.8222953 L92.2869265,34.8222953 C90.5157183,34.8222953 88.8324689,34.1098891 87.4189779,32.7623734 C86.3621347,31.7548578 85.8290344,30.7534516 85.8068442,30.7112172 L85.5918931,30.3032172 L86.0127054,30.1098422 C86.1878211,30.0293578 86.5647877,29.5961234 86.8976411,29.2141547 C87.4192452,28.6149047 88.0683763,27.8692953 88.7854149,27.4087016 C90.0195126,26.6158109 91.3600165,26.5180609 92.2869265,27.1523734 L92.303235,27.1422797 L92.3035023,27.1720297 L92.3035023,28.3168734 L92.2869265,28.3333422 L92.2748956,28.3221859 L91.9770653,28.0315922 C91.3656308,27.4349984 90.3010344,27.4796234 89.2647774,28.1452797 C88.654145,28.5378734 88.0758622,29.2019359 87.5654869,29.7879047 L87.561744,29.7921547 C87.4777954,29.8885766 87.397055,29.9812797 87.3192555,30.0692016 L92.3035023,30.0692016 L92.3035023,30.9465609 L87.0027105,30.9465609 C87.3168494,31.3829828 87.6689522,31.7869984 88.0496617,32.1477172 C89.3088905,33.3403734 90.7344123,33.9452016 92.2863918,33.9452016 L92.3035023,33.9452016 L92.3035023,34.8222953 Z" id="Fill-60" fill="#AF2A56"></path>
                <path d="M98.7514221,30.7035937 L98.9583527,30.311 L98.5533141,30.1247969 C98.3749902,30.0429844 97.9966869,29.6084219 97.662764,29.2248594 C97.1416946,28.6264062 96.4930982,27.8818594 95.7784658,27.4225937 C94.5307332,26.6212031 93.2049337,26.5372656 92.2868463,27.1718437 L92.2868463,28.3100469 L92.5841419,28.0197187 C93.2011907,27.4175469 94.2740751,27.461375 95.3172833,28.1315469 C95.9300545,28.5252031 96.5091393,29.1903281 97.0203167,29.7770937 C97.1141573,29.8849375 97.204255,29.9882656 97.2908771,30.08575 L92.2868463,30.08575 L92.2868463,30.9299062 L97.6034118,30.9299062 C97.3627949,31.2669844 97.0128308,31.7039375 96.5543219,32.1414219 C95.9966252,32.6729375 95.3932113,33.0958125 94.7609234,33.3978281 C93.9781162,33.7718281 93.1455815,33.96175 92.2868463,33.96175 L92.2868463,34.8059063 C94.0532422,34.8056406 95.7322139,34.0948281 97.1424967,32.7502344 C98.1966663,31.7451094 98.7292319,30.7455625 98.7514221,30.7035937" id="Fill-62" fill="#ED82A4"></path>
                <path d="M92.3035825,33.9782188 L92.3035825,34.7891719 C94.0592843,34.7846563 95.728364,34.0757031 97.1308936,32.7382813 C98.1837265,31.7344844 98.7146879,30.7378594 98.7366108,30.6958906 L98.9355208,30.3187031 L98.546256,30.1399375 C98.3647239,30.0565313 97.9850838,29.6206406 97.6503589,29.2360156 C97.1298242,28.6380938 96.4825645,27.8946094 95.7695362,27.4364063 C94.5461326,26.6506875 93.2192638,26.5532031 92.3035825,27.1806094 L92.3035825,28.2704688 L92.5725388,28.0080313 C93.1954694,27.4000156 94.2763743,27.4430469 95.3262663,28.1174688 C95.9411763,28.5124531 96.5210632,29.1786406 97.0327753,29.7662031 L97.0365183,29.7704531 C97.1292895,29.8769688 97.217783,29.9787031 97.3033357,30.0748594 L97.3276648,30.1024844 L92.3035825,30.1024844 L92.3035825,30.9134375 L97.6359219,30.9134375 L97.6172072,30.9394688 C97.3038704,31.3782813 96.9501635,31.7868125 96.5657111,32.1531094 C96.006945,32.6862188 95.4021943,33.1098906 94.7683023,33.4127031 C93.9881686,33.785375 93.1588422,33.9758281 92.3035825,33.9782188 Z M92.2701635,34.822375 L92.2701635,33.9450156 L92.2870067,33.9450156 C93.1430684,33.9450156 93.9731969,33.7558906 94.7538653,33.3829531 C95.3845491,33.0814688 95.9863589,32.6596563 96.5427188,32.1292031 C96.9180812,31.7714063 97.2637676,31.3737656 97.5712226,30.946375 L92.2701635,30.946375 L92.2701635,30.0692813 L97.2538756,30.0692813 C97.1758087,29.9810938 97.0953357,29.8886563 97.0113871,29.7922344 L97.0076442,29.7879844 C96.4972689,29.20175 95.9189861,28.5376875 95.3080864,28.1453594 C94.2718293,27.4797031 93.2072329,27.4350781 92.5957985,28.0316719 L92.2701635,28.3493594 L92.2701635,27.1633438 L92.277382,27.1582969 C93.2045594,26.5173438 94.5496082,26.6135 95.7874488,27.4087813 C96.5044874,27.869375 97.1536185,28.6149844 97.6752226,29.2139688 C98.0083434,29.5962031 98.38531,30.0294375 98.5604257,30.1099219 L98.981238,30.3030313 L98.7662869,30.7112969 C98.7440967,30.7535313 98.210729,31.7549375 97.1541532,32.7621875 C95.7406622,34.1099688 94.0576802,34.822375 92.2870067,34.822375 L92.2701635,34.822375 Z" id="Fill-64" fill="#ED82A4"></path>
                <path d="M59.5892195,41.2514562 C58.4016411,40.07155 56.8269368,39.4231594 55.1476977,39.4231594 C53.5090961,39.4231594 51.9659393,40.0436594 50.7895897,41.1712375 L50.7895897,41.1024406 L50.764726,41.0788 C49.5739393,39.9544094 48.0147414,39.3352375 46.3737337,39.3352375 C44.6789882,39.3352375 43.083163,39.9910656 41.8798108,41.1823937 C40.6783301,42.3763781 40.0163661,43.9648156 40.0163661,45.6555188 C40.0163661,47.3409094 40.6796668,48.9280188 41.8843558,50.1243938 L49.7188442,57.9040188 C49.9829882,58.1667219 50.3337542,58.3202531 50.7059085,58.3364563 L50.7895897,58.340175 L50.7895897,58.2567688 C51.1531887,58.2519875 51.5109059,58.1029719 51.7678314,57.8479719 L59.5846746,50.0813625 C60.772253,48.9014563 61.4248596,47.3324094 61.4294046,45.6685344 C61.4294046,44.0001437 60.7767979,42.4313625 59.5892195,41.2514562" id="Fill-66" fill="#F8C3D7"></path>
                <path d="M50.3678951,57.0968906 L42.5376843,49.3172656 C41.5503527,48.3363125 41.0065584,47.0352812 41.0065584,45.6521719 C41.0065584,44.2693281 41.5503527,42.9682969 42.5334067,41.9873438 C43.5164607,41.0106406 44.8259517,40.4703594 46.2177871,40.4703594 C47.60989,40.4703594 48.9236586,41.0106406 49.9112576,41.9915937 L50.2328823,42.3114062 C50.318435,42.3964062 50.4293861,42.4492656 50.5494272,42.4630781 L50.5494272,41.1330937 C49.3736123,40.0225156 47.8400802,39.4113125 46.2135095,39.4113125 C44.5388154,39.4113125 42.9641111,40.0597031 41.7765326,41.2353594 C40.5889542,42.4152656 39.9363476,43.9840469 39.9363476,45.6521719 C39.9363476,47.3163125 40.5932319,48.8850937 41.7808103,50.065 L49.6152987,57.844625 C49.8658077,58.0935156 50.1981265,58.2385469 50.5494272,58.2536875 L50.5494272,57.1853438 C50.4820545,57.1739219 50.4176226,57.1447031 50.3678951,57.0968906" id="Fill-68" fill="#AF2A56"></path>
                <path d="M46.2135897,39.4908141 C44.5616206,39.4908141 43.0058982,40.1304391 41.8330242,41.2917516 C40.6614869,42.4554547 40.0163661,44.0040484 40.0163661,45.6522516 C40.0163661,47.2951422 40.663091,48.8421422 41.8375692,50.0087672 L49.6717902,57.7883922 C49.8878108,58.0030172 50.1685306,58.1360953 50.4695692,58.1679703 L50.4695692,57.2473141 C50.4096823,57.2276578 50.3559445,57.1960484 50.3123661,57.1540797 L42.4810859,49.3733922 C41.4785152,48.3772984 40.9264329,47.0558141 40.9264329,45.6522516 C40.9264329,44.2502828 41.4769111,42.9287984 42.4768082,41.9311109 C43.4767054,40.9379391 44.8051784,40.3907516 46.2178674,40.3907516 C47.6334972,40.3907516 48.9651784,40.9395328 49.9677491,41.9353609 L50.2896411,42.2551734 C50.3407054,42.3061734 50.401929,42.3433609 50.4695692,42.3648766 L50.4695692,41.1674391 C49.3119342,40.0860797 47.801929,39.4908141 46.2135897,39.4908141 Z M50.6294458,58.3369078 L50.5460319,58.3331891 C50.1736103,58.3169859 49.8231116,58.1634547 49.5587003,57.9007516 L41.7244792,50.1211266 C40.5197902,48.9247516 39.8564895,47.3376422 39.8564895,45.6522516 C39.8564895,43.9615484 40.5181861,42.3731109 41.7199342,41.1791266 C42.9232864,39.9877984 44.5191116,39.3319703 46.2135897,39.3319703 C47.8545974,39.3319703 49.4140627,39.9511422 50.604582,41.0755328 L50.6294458,41.0991734 L50.6294458,42.5521422 L50.5404175,42.5420484 C50.4029985,42.5263766 50.2738674,42.4644859 50.1765512,42.3675328 L49.8546591,42.0479859 C48.8822992,41.0819078 47.5907208,40.5498609 46.2178674,40.5498609 C44.8479548,40.5498609 43.5595846,41.0803141 42.5898982,42.0434703 C41.6204792,43.0108766 41.0865769,44.2925172 41.0865769,45.6522516 C41.0865769,47.0133141 41.6220833,48.2949547 42.5941758,49.2610328 L50.4238519,57.0401266 C50.4599445,57.0746578 50.5080679,57.0977672 50.5628751,57.1070641 L50.6294458,57.1182203 L50.6294458,58.3369078 Z" id="Fill-70" fill="#AF2A56"></path>
                <path d="M51.6077409,57.8445984 L59.4245841,50.0779891 C60.6121625,48.8983484 61.2647692,47.3293016 61.2693141,45.6654266 C61.2693141,43.9970359 60.6167075,42.4279891 59.429129,41.2480828 C58.2415506,40.0681766 56.6668463,39.4200516 54.9878746,39.4200516 C53.3391136,39.4200516 51.7860648,40.0466609 50.6070416,41.1875203 C50.5880596,41.1691922 50.5685429,41.1513953 50.5495609,41.1330672 L50.5495609,42.4630516 C50.5698797,42.4654422 50.5904658,42.4670359 50.6115866,42.4670359 C50.7506098,42.4670359 50.8899003,42.4107234 50.9901573,42.3113797 L51.3032267,42.0003328 C52.2905584,41.0191141 53.6000494,40.4790984 54.9964298,40.4790984 C56.3882653,40.4790984 57.6977563,41.0191141 58.6808103,41.9958172 C59.6684093,42.9770359 60.207926,44.2778016 60.207926,45.6609109 C60.207926,47.0440203 59.6641316,48.3447859 58.6765326,49.3260047 L50.8551445,57.0968641 C50.7770776,57.1744266 50.6591753,57.2036453 50.5495609,57.1853172 L50.5495609,58.2536609 C50.570147,58.2547234 50.5907332,58.2552547 50.6115866,58.2552547 C50.9813347,58.2552547 51.3468051,58.1038484 51.6077409,57.8445984" id="Fill-72" fill="#ED82A4"></path>
                <path d="M50.6294992,57.2700781 L50.6294992,58.1755938 C50.9725121,58.1708125 51.3075044,58.0302969 51.5513296,57.7883125 L59.3681728,50.0219687 C60.5381059,48.8595937 61.1848308,47.3123281 61.1893758,45.6651875 C61.1893758,44.0169844 60.5439877,42.4683906 59.3727177,41.3044219 C58.2011805,40.1404531 56.643854,39.4995 54.9878746,39.4995 C53.3618386,39.4995 51.8259003,40.1192031 50.6629183,41.2446562 L50.6294992,41.2767969 L50.6294992,42.3871094 C50.7431239,42.3825937 50.8530057,42.3350469 50.9334787,42.2550937 L51.2465481,41.9440469 C52.2491188,40.9479531 53.5808,40.3994375 54.9964298,40.3994375 C56.4091188,40.3994375 57.7378591,40.9463594 58.7374889,41.9397969 C59.7373861,42.9329687 60.2878643,44.2544531 60.2878643,45.6609375 C60.2878643,47.0645 59.735782,48.3859844 58.7332113,49.3820781 L50.9118231,57.1532031 C50.838836,57.2254531 50.7375095,57.266625 50.6294992,57.2700781 M50.6115866,58.3347031 C50.5896638,58.3347031 50.5677409,58.3341719 50.5460853,58.3331094 L50.4696226,58.3299219 L50.4696226,57.0913125 L50.5629285,57.1069844 C50.6519568,57.1218594 50.7423219,57.096625 50.7987332,57.0405781 L58.6201213,49.2697187 C59.5924812,48.3036406 60.1279877,47.022 60.1279877,45.6609375 C60.1279877,44.2969531 59.593818,43.0153125 58.624399,42.0521562 C57.6549799,41.089 56.3666098,40.5585469 54.9964298,40.5585469 C53.6235763,40.5585469 52.3319979,41.0905937 51.359638,42.0564062 L51.0465686,42.3677187 C50.9321419,42.4811406 50.7736021,42.5464844 50.6115866,42.5464844 C50.5893964,42.5464844 50.5661368,42.5448906 50.5402036,42.5419687 L50.4696226,42.5337344 L50.4696226,40.9476875 L50.6067743,41.0775781 C51.7930159,39.9569062 53.3457974,39.3403906 54.9878746,39.3403906 C56.6866303,39.3403906 58.2840596,39.9980781 59.4858077,41.1920625 C60.6875558,42.3860469 61.3492524,43.97475 61.3492524,45.6654531 C61.3447075,47.3550937 60.6814067,48.9419375 59.4812627,50.1343281 L51.6644195,57.9009375 C51.3866406,58.1766563 51.0029902,58.3347031 50.6115866,58.3347031" id="Fill-74" fill="#ED82A4"></path>
            </g>
        </g>
    </g>
</svg>