<?xml version="1.0" encoding="UTF-8"?>
<svg width="79px" height="80px" viewBox="0 0 79 80" version="1.1" xmlns="http://www.w3.org/2000/svg" xmlns:xlink="http://www.w3.org/1999/xlink">
    <!-- Generator: Sketch 48.2 (47327) - http://www.bohemiancoding.com/sketch -->
    <title>Page 1</title>
    <desc>Created with Sketch.</desc>
    <defs>
        <path d="M0.123652174,1.677691 C0.123652174,2.59676287 1.0121875,3.34198076 2.10852717,3.34198076 C3.20465217,3.34198076 4.09340217,2.59676287 4.09340217,1.677691 C4.09340217,0.758256933 3.20465217,0.0128579513 2.10852717,0.0128579513 C1.0121875,0.0128579513 0.123652174,0.758256933 0.123652174,1.677691 Z" id="path-1"></path>
        <path d="M0.108379658,1.27262673 C0.108379658,1.94082949 0.652302019,2.48258065 1.32337267,2.48258065 C1.99462733,2.48258065 2.53854969,1.94082949 2.53854969,1.27262673 C2.53854969,0.604239631 1.99462733,0.0623041475 1.32337267,0.0623041475 C0.652302019,0.0623041475 0.108379658,0.604239631 0.108379658,1.27262673 Z" id="path-3"></path>
        <path d="M0.0962352484,1.23115207 C0.0962352484,1.89935484 0.640341615,2.44110599 1.31159627,2.44110599 C1.98248292,2.44110599 2.52658929,1.89935484 2.52658929,1.23115207 C2.52658929,0.562764977 1.98248292,0.0208294931 1.31159627,0.0208294931 C0.640341615,0.0208294931 0.0962352484,0.562764977 0.0962352484,1.23115207 Z" id="path-5"></path>
        <path d="M5.13057441,1.21772496 C5.14028428,1.22730051 5.15118311,1.23544992 5.16089298,1.24543294 C6.23413043,2.34275042 6.22580769,4.14580645 5.15237207,5.24312394 C4.07873829,6.34044143 2.32343227,6.34003396 1.25019482,5.24312394 C1.24048495,5.23314092 1.23236037,5.22193548 1.22284866,5.2121562 L0.114536789,6.3449236 C0.124246656,6.35470289 0.13316388,6.36529711 0.142477425,6.37487267 C1.84685619,8.11680815 4.55590886,8.11680815 6.2598913,6.3750764 C7.96387375,4.63334465 7.97259281,1.85521222 6.26841221,0.11327674 C6.25870234,0.103497453 6.24859615,0.0943293718 6.23888629,0.08475382 L5.13057441,1.21772496 Z" id="path-7"></path>
        <path d="M1.3487849,1.32672326 C-0.396785183,3.06580645 -0.381735412,5.84597623 1.35793678,7.58852292 L2.49480463,6.45616299 C1.40206922,5.35803056 1.38701945,3.55375212 2.48585612,2.45928693 C3.58469279,1.36482173 5.4049016,1.37093379 6.50780578,2.45949066 L7.64467363,1.32713073 C6.76914302,0.459830221 5.63024142,0.0250594228 4.49235669,0.0250594228 C3.35630235,0.0250594228 2.2210615,0.45820034 1.3487849,1.32672326 Z" id="path-9"></path>
        <path d="M4.01623036,1.03725286 C4.02398633,1.0448283 4.03271178,1.05104405 4.04027384,1.05861949 C4.88741865,1.90240721 4.88082609,3.28929587 4.03348738,4.13308359 C3.18614867,4.97706556 1.80074018,4.97687131 0.953401473,4.13308359 C0.94603331,4.12550815 0.939440743,4.1169615 0.932072581,4.10919181 L0.0573941094,4.98056191 C0.0649561711,4.98813736 0.0719365358,4.99610128 0.0793046985,5.00367673 C0.74651122,5.66817898 1.60897405,6.00285813 2.47260028,6.00829691 L2.51467637,6.00829691 C3.37849649,6.00305238 4.24076543,5.66817898 4.90777805,5.00367673 C6.25266164,3.66418314 6.25944811,1.52771419 4.91456452,0.188026361 C4.90680856,0.180645161 4.89905259,0.173458203 4.89129663,0.166077003 L4.01623036,1.03725286 Z" id="path-11"></path>
        <path d="M1.03522686,1.15243843 C-0.307329944,2.48960111 -0.295696003,4.62781824 1.04240112,5.9680888 L1.9164979,5.09730142 C1.07613955,4.25254249 1.06450561,2.86507111 1.90971143,2.02322581 C2.75472335,1.18176899 4.15467426,1.1864308 5.00278857,2.02361429 L5.87707924,1.15263267 C5.20366795,0.485605272 4.32782609,0.151508845 3.45275982,0.151314603 C2.57905084,0.151314603 1.70611746,0.48443982 1.03522686,1.15243843 Z" id="path-13"></path>
    </defs>
    <g id="Badges" stroke="none" stroke-width="1" fill="none" fill-rule="evenodd" transform="translate(-1014.000000, -100.000000)">
        <g id="Right-Sidebar" transform="translate(1005.000000, 84.000000)">
            <g id="share-profile" transform="translate(1.000000, 0.000000)">
                <g id="Group-8" transform="translate(8.000000, 16.000000)">
                    <g id="Page-1">
                        <path d="M72.9891304,43.8710657 C72.9891304,62.3993877 57.8032716,77.4193548 39.0705531,77.4193548 C20.3380328,77.4193548 5.15217391,62.3993877 5.15217391,43.8710657 C5.15217391,25.3427436 20.3380328,10.3225806 39.0705531,10.3225806 C57.8032716,10.3225806 72.9891304,25.3427436 72.9891304,43.8710657" id="Fill-1" fill="#FCF6F2"></path>
                        <g id="Group-5" transform="translate(0.858696, 18.924731)">
                            <mask id="mask-2" fill="white">
                                <use xlink:href="#path-1"></use>
                            </mask>
                            <g id="Clip-4"></g>
                            <polygon id="Fill-3" fill="#B22655" mask="url(#mask-2)" points="-1.40589946 4.63248444 5.6229538 4.63248444 5.6229538 -1.27746463 -1.40589946 -1.27746463"></polygon>
                        </g>
                        <path d="M9.44565217,70.9677419 C9.44565217,71.6802201 8.86887553,72.2580645 8.15751117,72.2580645 C7.44614681,72.2580645 6.86956522,71.6802201 6.86956522,70.9677419 C6.86956522,70.2550672 7.44614681,69.6774194 8.15751117,69.6774194 C8.86887553,69.6774194 9.44565217,70.2550672 9.44565217,70.9677419" id="Fill-6" fill="#FFFFFF"></path>
                        <g id="Group-11" transform="translate(6.010870, 69.677419)">
                            <mask id="mask-4" fill="white">
                                <use xlink:href="#path-3"></use>
                            </mask>
                            <g id="Clip-9"></g>
                            <polygon id="Fill-8" fill="#FFFFFF" mask="url(#mask-4)" points="-25.7268284 29.6774194 30.4616762 29.6774194 30.4616762 -26.6105069 -25.7268284 -26.6105069"></polygon>
                            <polygon id="Fill-10" fill="#FFFFFF" mask="url(#mask-4)" points="-0.82802795 3.42064516 3.4751413 3.42064516 3.4751413 -0.8759447 -0.82802795 -0.8759447"></polygon>
                        </g>
                        <path d="M79,37.4193548 C79,38.131833 78.4232234,38.7096774 77.711859,38.7096774 C77.0004946,38.7096774 76.423913,38.131833 76.423913,37.4193548 C76.423913,36.7066801 77.0004946,36.1290323 77.711859,36.1290323 C78.4232234,36.1290323 79,36.7066801 79,37.4193548" id="Fill-12" fill="#FFFFFF"></path>
                        <g id="Group-17" transform="translate(76.423913, 36.129032)">
                            <mask id="mask-6" fill="white">
                                <use xlink:href="#path-5"></use>
                            </mask>
                            <g id="Clip-15"></g>
                            <polygon id="Fill-14" fill="#FFFFFF" mask="url(#mask-6)" points="-25.7387888 29.6359447 30.4497158 29.6359447 30.4497158 -26.6519816 -25.7387888 -26.6519816"></polygon>
                            <polygon id="Fill-16" fill="#FFFFFF" mask="url(#mask-6)" points="-0.84017236 3.37935484 3.46299689 3.37935484 3.46299689 -0.917235023 -0.84017236 -0.917235023"></polygon>
                        </g>
                        <g id="Group-20" transform="translate(59.250000, 66.236559)">
                            <mask id="mask-8" fill="white">
                                <use xlink:href="#path-7"></use>
                            </mask>
                            <g id="Clip-19"></g>
                            <polygon id="Fill-18" fill="#F083A6" mask="url(#mask-8)" points="-0.68504097 8.50370119 8.34196405 8.50370119 8.34196405 -0.737521222 -0.68504097 -0.737521222"></polygon>
                        </g>
                        <g id="Group-23" transform="translate(58.391304, 64.516129)">
                            <mask id="mask-10" fill="white">
                                <use xlink:href="#path-9"></use>
                            </mask>
                            <g id="Clip-22"></g>
                            <polygon id="Fill-21" fill="#B22655" mask="url(#mask-10)" points="-0.774453089 8.41079796 8.46549628 8.41079796 8.46549628 -0.797011885 -0.774453089 -0.797011885"></polygon>
                        </g>
                        <g id="Group-26" transform="translate(41.217391, 0.860215)">
                            <mask id="mask-12" fill="white">
                                <use xlink:href="#path-11"></use>
                            </mask>
                            <g id="Clip-25"></g>
                            <polygon id="Fill-24" fill="#B22655" mask="url(#mask-12)" points="-0.573941094 6.64074922 6.55107223 6.64074922 6.55107223 -0.466181061 -0.573941094 -0.466181061"></polygon>
                        </g>
                        <g id="Group-29" transform="translate(40.358696, 0.000000)">
                            <mask id="mask-14" fill="white">
                                <use xlink:href="#path-13"></use>
                            </mask>
                            <g id="Clip-28"></g>
                            <polygon id="Fill-27" fill="#F8C3D7" mask="url(#mask-14)" points="-0.597596774 6.60034686 6.50822055 6.60034686 6.50822055 -0.480943462 -0.597596774 -0.480943462"></polygon>
                        </g>
                        <g id="Group-76" transform="translate(0.000000, 4.301075)">
                            <path d="M27.4405266,15.080862 C26.5444611,15.080862 25.81421,15.8739265 25.81421,16.8481559 L25.81421,59.3219552 C25.81421,60.2959875 26.5444611,61.089052 27.4405266,61.089052 L45.9993568,61.089052 C46.888939,61.089052 47.617422,60.2920448 47.6239052,59.3120986 L47.871055,22.8587294 C47.871055,22.8449301 47.871055,22.1529946 47.8728232,22.1389982 L47.8702692,16.7420986 C47.8865756,16.1905215 47.7824505,15.7923136 47.5565186,15.5591057 C47.2702727,15.2628154 46.689726,15.0930842 45.9628148,15.0930842 L27.4405266,15.080862 Z" id="Fill-30" fill="#FFFFFF"></path>
                            <path d="M38.6699892,57.2562814 L35.7112639,57.2562814 C35.0678492,57.2562814 34.5464378,56.7330914 34.5464378,56.0874821 C34.5464378,55.4418728 35.0678492,54.9188799 35.7112639,54.9188799 L38.6699892,54.9188799 C39.3134039,54.9188799 39.8348154,55.4418728 39.8348154,56.0874821 C39.8348154,56.7330914 39.3134039,57.2562814 38.6699892,57.2562814" id="Fill-32" fill="#B12655"></path>
                            <path d="M48.2906793,22.8430771 L26.0906131,22.8430771 C25.2654706,22.8430771 24.5967122,22.3204785 24.5967122,21.6754606 C24.5967122,21.0306398 25.2654706,20.5080412 26.0906131,20.5080412 L48.2906793,20.5080412 C49.1158218,20.5080412 49.7843837,21.0306398 49.7843837,21.6754606 C49.7843837,22.3204785 49.1158218,22.8430771 48.2906793,22.8430771" id="Fill-34" fill="#B12655"></path>
                            <path d="M27.8162218,16.1854355 C26.9382309,16.1854355 26.2227145,16.9463674 26.2227145,17.8811703 L26.2227145,58.6379444 C26.2227145,59.5727473 26.9382309,60.3336792 27.8162218,60.3336792 L46.000398,60.3336792 C46.8719057,60.3336792 47.5858504,59.5688047 47.5921372,58.6284821 L47.8343755,23.6488763 C47.8343755,23.6356685 47.8343755,22.9715287 47.8361437,22.9583208 L47.8335897,17.7794498 C47.8495031,17.2501487 47.7475391,16.8681057 47.5261258,16.6443602 C47.2457738,16.360095 46.6768184,16.1972634 45.9646419,16.1972634 L27.8162218,16.1854355 Z M45.5675912,62.9301129 L28.2256497,62.9301129 C25.7409884,62.9301129 23.718407,60.8442527 23.718407,58.2809373 L23.718407,18.5920305 C23.718407,16.0289122 25.7409884,13.943052 28.2256497,13.943052 L45.5334067,13.943052 C46.5986264,13.943052 48.0939025,14.1770484 49.1697311,15.2908477 C49.7153075,15.8574068 50.3891739,16.8874247 50.3345573,18.5784283 L50.2828877,29.0067437 L50.0732622,58.2907939 C50.0579381,60.8487867 48.0369283,62.9301129 45.5675912,62.9301129 Z" id="Fill-36" fill="#B12655"></path>
                            <path d="M48.2906793,52.369147 L26.0906131,52.369147 C25.2654706,52.369147 24.5967122,51.8465484 24.5967122,51.2015305 C24.5967122,50.5567097 25.2654706,50.0341111 26.0906131,50.0341111 L48.2906793,50.0341111 C49.1158218,50.0341111 49.7843837,50.5567097 49.7843837,51.2015305 C49.7843837,51.8465484 49.1158218,52.369147 48.2906793,52.369147" id="Fill-38" fill="#B12655"></path>
                            <path d="M5.74515293,47.495457 C5.80193059,47.5100448 5.86067288,47.5151703 5.9207904,47.5102419 C6.07737102,47.4923029 9.69326336,47.0781272 10.221551,43.9476613 L10.677344,41.2469444 C11.0578919,41.2520699 11.6726231,41.3366398 12.055332,41.7395789 C12.4221275,42.1200448 12.5345041,42.7453495 12.3918723,43.5908513 L11.8537615,46.7790771 C11.8087716,47.045009 11.984802,47.2933961 12.249437,47.3383423 L16.4863473,48.0584677 C17.3240634,48.2007975 17.8896789,48.9875538 17.7678722,49.8267473 L15.6781005,56.0760484 L15.675743,56.0904391 C15.3663145,57.1312993 14.601486,57.5529659 13.3979567,57.3483423 L5.87776512,56.0705287 C5.03022589,55.9264247 4.45852001,55.1185753 4.6021341,54.2685394 L5.74515293,47.495457 Z" id="Fill-40" fill="#FFFFFF"></path>
                            <polygon id="Fill-42" fill="#F7AFB4" points="2.25187284 46.7656918 4.93358598 47.2214624 3.58997893 55.1824659 0.90826579 54.7266953"></polygon>
                            <path d="M2.28305144,46.8645341 L4.96476458,47.3203047 L3.62115753,55.2813082 L0.939444389,54.8255376 L2.28305144,46.8645341 Z M5.8490423,47.6810573 C5.90385534,47.6952509 5.96024007,47.6999821 6.01839298,47.695448 C6.16927618,47.6781004 9.65393156,47.2789068 10.1629659,44.2621864 L10.6022561,41.6594444 C10.9688551,41.6645699 11.561386,41.7459857 11.9301461,42.1341398 C12.2835821,42.5008065 12.391833,43.103638 12.2543092,43.91819 L11.7358447,46.9906989 C11.6926229,47.2469713 11.8621701,47.4864875 12.1171784,47.5298566 L16.2002586,48.2235663 C17.007523,48.3607706 17.55251,49.1191398 17.4352219,49.9277778 L15.4212848,55.9501792 L15.4189272,55.9641756 C15.1208936,56.9671864 14.3839627,57.3734767 13.2238517,57.1763441 L5.97674293,55.9448566 C5.16004831,55.8060753 4.60916745,55.0275986 4.74747705,54.2083154 L5.8490423,47.6810573 Z M1.36596448,46.6991398 L0.0184281826,54.683405 C-0.066443618,55.1862903 0.273436509,55.6605914 0.770093713,55.7451613 L3.47479297,56.2046774 C3.78598957,56.257509 4.08068332,56.1494803 4.28795126,55.9403226 C4.65101397,56.4187634 5.18401673,56.7678853 5.81976939,56.875914 L13.0668781,58.1074014 C14.6906407,58.3833871 15.8700051,57.7026882 16.3071342,56.2443011 L18.3310909,50.1901613 C18.3397352,50.167491 18.3436645,50.1442294 18.3475937,50.1211649 C18.571561,48.7942652 17.6774601,47.5310394 16.355071,47.3063082 L12.7315166,46.6906631 L13.172182,44.0790502 C13.3631436,42.947509 13.1711997,42.0767742 12.598708,41.481828 C11.69223,40.546828 10.2040266,40.7394265 10.1403727,40.7479032 C9.94017743,40.7760932 9.78025695,40.9308423 9.7464654,41.131129 L9.2450931,44.1013262 C8.85452565,46.4152688 6.03941446,46.7507885 5.92232281,46.7645878 C5.86456284,46.7689247 5.80405239,46.7874552 5.75611554,46.8176165 C5.62035995,46.6031362 5.39875025,46.4456272 5.13431172,46.4008781 L2.42489736,45.9403763 C1.92372152,45.8552151 1.45083628,46.1962545 1.36596448,46.6991398 Z" id="Fill-44" fill="#B12655"></path>
                            <path d="M73.1363881,28.4631703 C71.60457,30.0002133 69.5672539,30.8455179 67.4036123,30.8455179 C65.9558802,30.8455179 64.5352598,30.4573638 63.2983319,29.7273817 C63.2177823,29.6812527 63.1260343,29.6544427 63.0380191,29.6544427 C62.9268213,29.6544427 62.8118908,29.6926864 62.7201428,29.7618799 C61.5482439,30.6726326 60.3686831,30.8072742 59.8515938,30.8187079 C60.4680931,30.3574176 60.9851824,29.6428118 61.4179893,28.6476864 C61.4985389,28.4631703 61.4639615,28.2479014 61.3297776,28.0943351 C58.4960025,24.8816649 58.645314,19.9862706 61.6706401,16.9506254 C63.2024582,15.4135824 65.2399708,14.5680806 67.4036123,14.5680806 C69.5709867,14.5680806 71.60457,15.4135824 73.1363881,16.9506254 C76.2996309,20.1284032 76.2996309,25.2930806 73.1363881,28.4631703" id="Fill-46" fill="#FFFFFF"></path>
                            <path d="M73.0402394,28.212319 C71.5616626,29.6959391 69.595073,30.511871 67.5066766,30.511871 C66.1092388,30.511871 64.7379305,30.137319 63.5438315,29.4325699 C63.4662288,29.3880179 63.3776242,29.3621935 63.2925559,29.3621935 C63.1854838,29.3621935 63.0744825,29.3990573 62.9856815,29.4658853 C61.8546469,30.3450968 60.7159502,30.4750072 60.2169355,30.4860466 C60.8120204,30.040724 61.3112316,29.350957 61.7289109,28.3903297 C61.8065136,28.212319 61.7731149,28.0045412 61.6438426,27.8562975 C58.9082987,24.7552043 59.0525022,20.0299355 61.9729173,17.0997563 C63.4514941,15.6159391 65.4180837,14.8000072 67.5066766,14.8000072 C69.5988057,14.8000072 71.5616626,15.6159391 73.0402394,17.0997563 C76.0936596,20.1671398 76.0936596,25.1522294 73.0402394,28.212319 M73.7463256,16.3985556 C72.0793413,14.7258853 69.8650124,13.8021219 67.5066766,13.8021219 C65.1483407,13.8021219 62.9340118,14.7221398 61.2668311,16.3950072 C58.0507399,19.621871 57.8179318,24.7774803 60.682748,28.2714588 C60.2870726,29.0840394 59.8177237,29.6255627 59.2927758,29.8849892 C58.9711667,30.0446667 58.7902248,30.3931971 58.8418944,30.7494158 C58.8972968,31.1091828 59.1707726,31.3873369 59.5295132,31.4429283 C59.7251898,31.4726953 59.9361905,31.4912258 60.1540675,31.4912258 C61.2373617,31.4912258 62.3758619,31.1166738 63.3257581,30.4600251 C64.604729,31.1499892 66.0428345,31.5135018 67.5066766,31.5135018 C69.8650124,31.5135018 72.0793413,30.5934839 73.7463256,28.9206165 C75.4135064,27.2479462 76.3303969,25.022319 76.3303969,22.6596846 C76.3303969,20.296853 75.4135064,18.0714229 73.7463256,16.3985556" id="Fill-48" fill="#B12655"></path>
                            <path d="M59.0972564,10.1085269 C57.7143568,10.1085269 56.5008079,9.36829391 55.8289062,8.26178853 C55.7892208,8.19653763 55.7520894,8.12951254 55.7163332,8.06169892 C55.7065101,8.04316846 55.6970799,8.02444086 55.6876497,8.00571326 C55.6607343,7.95268459 55.6349977,7.89886738 55.6106364,7.84445878 C55.6023849,7.82651971 55.5941335,7.80858065 55.586275,7.79044444 C55.5560198,7.72046237 55.5275327,7.64969176 55.5014032,7.57754122 C55.4968846,7.5647276 55.4927589,7.55151971 55.4882402,7.53870609 C55.4672187,7.47818638 55.4475725,7.41687814 55.4293015,7.35497849 C55.4228182,7.33270251 55.4163349,7.31022939 55.4102446,7.28775627 C55.3935453,7.22703943 55.3784177,7.16573118 55.3646653,7.10383154 C55.3613254,7.08825806 55.3571997,7.07288172 55.3538599,7.05711111 C55.3381429,6.98160932 55.3249799,6.90512186 55.3137815,6.82804301 C55.3106381,6.80675269 55.3082806,6.7850681 55.3055301,6.76358065 C55.2978681,6.70463799 55.2917777,6.64510394 55.2868662,6.58517563 C55.2849015,6.56073118 55.2827404,6.53628674 55.2811687,6.51164516 C55.2764536,6.43515771 55.2733102,6.35827599 55.2731138,6.28060573 C55.2731138,6.27745161 55.2729173,6.27429749 55.2729173,6.27114337 C55.2729173,6.20451254 55.246002,6.14418996 55.2025837,6.10042652 C55.1589691,6.05686022 55.0988515,6.02985305 55.0324472,6.02985305 C54.899835,6.02985305 54.7921736,6.13768459 54.7921736,6.27094624 C54.7921736,6.34920789 54.7892266,6.426681 54.7845115,6.50375986 C54.7833328,6.52445878 54.7813681,6.54515771 54.7797964,6.5656595 C54.7754743,6.62322222 54.7699733,6.68058781 54.7630971,6.73755914 C54.7603466,6.75904659 54.7577926,6.78073118 54.7548457,6.80241577 C54.7458084,6.86648387 54.7353959,6.92996057 54.7234117,6.99284588 C54.7214471,7.00368817 54.7198754,7.01453047 54.7177143,7.02537276 C54.7025867,7.10107168 54.6851015,7.17617921 54.6656517,7.25030108 C54.6629012,7.26035484 54.6599543,7.27021147 54.6572038,7.2800681 C54.6399151,7.34334767 54.6210547,7.40623297 54.6008191,7.46813262 C54.5955146,7.48429749 54.5900137,7.50026523 54.5845127,7.51623297 C54.5636877,7.57655556 54.5416839,7.63628674 54.5181084,7.69522939 C54.5137862,7.70587455 54.509857,7.71651971 54.5055348,7.72716487 C54.4467925,7.86988889 54.3799952,8.00847312 54.305143,8.14212903 C54.3016067,8.14843728 54.2978739,8.15474552 54.2941411,8.16105376 C54.2591708,8.22275627 54.2226288,8.28347312 54.1845151,8.34300717 C54.1807823,8.34872401 54.1770495,8.35463799 54.1733167,8.36035484 C54.0452231,8.55748746 53.8996444,8.74200358 53.7387416,8.9119319 C53.7383487,8.91232616 53.7377593,8.91291756 53.7373664,8.91331183 C53.5200789,9.14237993 53.2746972,9.34483513 53.0071153,9.51476344 C52.8623224,9.60662724 52.7108498,9.68902867 52.5538763,9.76137634 C52.5481789,9.76393907 52.5424815,9.76650179 52.5365876,9.76926165 C52.3827575,9.83904659 52.2236228,9.89897491 52.0599696,9.94806093 C52.0485747,9.95141219 52.0371799,9.95456631 52.0257851,9.95791756 C51.9564338,9.97802509 51.8861003,9.99596416 51.8149808,10.0123262 C51.8008355,10.0154803 51.7866902,10.0190287 51.7723485,10.0221828 C51.6925847,10.0395305 51.6120351,10.0543154 51.5305031,10.0665376 C51.5165543,10.068509 51.5022125,10.0698889 51.4882637,10.0718602 C51.4210735,10.0811254 51.3532939,10.0884194 51.2851215,10.0941362 C51.2619389,10.0959104 51.2383634,10.0978817 51.2149843,10.0994588 C51.1362029,10.1045842 51.056832,10.1079355 50.9768718,10.1081326 C50.9739249,10.1081326 50.9707815,10.1083297 50.9676381,10.1083297 C50.8348294,10.1083297 50.7273644,10.2163584 50.7273644,10.3494229 C50.7273644,10.4160538 50.7542798,10.4765735 50.7978945,10.5201398 C50.8413127,10.5639032 50.9014302,10.5909104 50.9678345,10.5909104 C50.9778541,10.5909104 50.9878737,10.5915018 50.9976968,10.5916989 C51.0690127,10.5922903 51.1399357,10.594853 51.2102692,10.5993871 C51.2369881,10.6009642 51.263707,10.6033297 51.2902295,10.6054982 C51.3530975,10.6108208 51.4155726,10.6177204 51.4774582,10.626 C51.4965151,10.6285627 51.515572,10.6303369 51.5344324,10.6332939 C51.6130174,10.6449247 51.6906201,10.6593154 51.7676334,10.6758746 C51.7859044,10.6798172 51.8039789,10.6843513 51.8220535,10.688491 C51.8884578,10.7038674 51.9542727,10.7208208 52.0193018,10.7395484 C52.0338401,10.7436882 52.0485747,10.7476308 52.0629165,10.7519677 C52.2244087,10.8006595 52.3815787,10.8596022 52.5334442,10.9284014 C52.5414992,10.932147 52.5495541,10.9358925 52.5576091,10.9394409 C52.7124215,11.011 52.8619295,11.0922186 53.0047577,11.1828996 C53.0067224,11.1840824 53.008687,11.1854624 53.0106516,11.1866452 C53.0756807,11.228043 53.1393345,11.2712151 53.2016132,11.3163584 C53.2027919,11.317147 53.2039707,11.3179355 53.204953,11.3189211 C53.3941464,11.4563226 53.5701768,11.6106774 53.7312761,11.7796201 C53.7355982,11.7841541 53.739724,11.7886882 53.7440461,11.7930251 C53.9016091,11.9599964 54.0442408,12.1411613 54.1701733,12.3343513 C54.1762636,12.3436165 54.182354,12.3530789 54.1882478,12.3625412 C54.2236111,12.4177384 54.2575991,12.4739211 54.2900154,12.5310896 C54.2957128,12.5411434 54.3016067,12.5508029 54.3073041,12.5608566 C54.3805846,12.6925412 54.446596,12.8287599 54.504356,12.9693154 C54.509857,12.9827204 54.514965,12.9963226 54.5202695,13.0099247 C54.5424697,13.0657133 54.5634912,13.1220932 54.5831375,13.1790645 C54.5894243,13.1973978 54.5957111,13.2155341 54.6016049,13.2340645 C54.6210547,13.2930072 54.6389328,13.3527384 54.6554357,13.4128638 C54.6587755,13.4254803 54.6627048,13.4378996 54.6660446,13.4505161 C54.685298,13.5236523 54.7023902,13.5977742 54.7175178,13.6724875 C54.7198754,13.6851039 54.72184,13.6977204 54.7241975,13.7103369 C54.7357888,13.771448 54.7460049,13.8333477 54.7546492,13.8954444 C54.7577926,13.9179176 54.7603466,13.9403907 54.7630971,13.9628638 C54.7699733,14.0190466 54.7754743,14.0754265 54.7797964,14.1322007 C54.7813681,14.153491 54.7833328,14.1743871 54.7845115,14.1956774 C54.7892266,14.2725591 54.7921736,14.3500323 54.7921736,14.4278996 C54.7921736,14.4614122 54.7988533,14.4931505 54.8112304,14.522129 C54.847576,14.6086703 54.9330372,14.6693871 55.0326437,14.6693871 C55.1654523,14.6693871 55.2729173,14.5613584 55.2729173,14.4282939 C55.2729173,14.4249427 55.2731138,14.4217885 55.2731138,14.4186344 C55.2733102,14.3409642 55.2764536,14.2640824 55.2811687,14.187595 C55.2827404,14.1627563 55.2849015,14.1381147 55.2868662,14.113276 C55.2917777,14.0539391 55.2978681,13.9951935 55.3053336,13.936448 C55.3082806,13.9145663 55.3106381,13.8922903 55.3137815,13.8704086 C55.3249799,13.7939211 55.3381429,13.7180251 55.3536634,13.6431147 C55.3573962,13.625767 55.3617184,13.6086165 55.3656476,13.5914659 C55.3790071,13.5315376 55.3935453,13.4723978 55.4096552,13.4136523 C55.4161385,13.3896022 55.4230147,13.365552 55.4300873,13.3416989 C55.4475725,13.2825591 55.4664329,13.2238136 55.4864721,13.1658566 C55.4917765,13.1506774 55.4964916,13.1351039 55.5019926,13.1201219 C55.5277292,13.0491541 55.5558233,12.9795663 55.5852927,12.910767 C55.5941335,12.8902652 55.6035637,12.8703548 55.612601,12.8500502 C55.6357836,12.7987957 55.6599484,12.7481326 55.6852921,12.6982581 C55.6960975,12.6767706 55.706903,12.6552832 55.7181013,12.63419 C55.7526787,12.5687419 55.7886314,12.5040824 55.8267451,12.441 C56.4980575,11.3327204 57.7129816,10.5909104 59.0972564,10.5909104 C59.230065,10.5909104 59.33753,10.4828817 59.33753,10.3496201 C59.33753,10.2165556 59.2298686,10.1085269 59.0972564,10.1085269" id="Fill-50" fill="#F8C3D7"></path>
                            <path d="M18.217398,37.3400717 C17.2708417,37.3400717 16.4400018,36.8332437 15.9802795,36.0760573 C15.9529712,36.0313082 15.9276276,35.9853763 15.9030697,35.938853 C15.89639,35.9262366 15.8899068,35.9134229 15.8834235,35.9006093 C15.864956,35.8643369 15.8474709,35.8274731 15.8307715,35.7902151 C15.8250741,35.7779928 15.8193767,35.7657706 15.8140722,35.7533513 C15.7934437,35.705448 15.7737974,35.6569534 15.7559193,35.6074731 C15.7527759,35.5987993 15.7500255,35.5897312 15.7470785,35.5808602 C15.7325403,35.5394624 15.7189844,35.4976703 15.7066072,35.4552867 C15.7020886,35.4399104 15.6977664,35.4245341 15.6936407,35.4091577 C15.6822459,35.3675627 15.6718334,35.3255735 15.6624032,35.2833871 C15.6600456,35.2725448 15.6572952,35.2620968 15.6549376,35.2512545 C15.6443286,35.1996057 15.6350949,35.1473656 15.6274329,35.0945341 C15.6254682,35.0799462 15.6237001,35.0651613 15.6219319,35.0503763 C15.6166274,35.0099642 15.6125017,34.9693548 15.6091618,34.9283513 C15.6077866,34.911595 15.6062149,34.8948387 15.6052326,34.8778853 C15.6020892,34.8256452 15.5999281,34.7730108 15.5997316,34.7197849 C15.5997316,34.7176165 15.5995352,34.715448 15.5995352,34.7132796 C15.5995352,34.6677419 15.5810677,34.6263441 15.5514019,34.5965771 C15.5215396,34.5666129 15.4804789,34.5480824 15.4350961,34.5480824 C15.3441339,34.5480824 15.2704605,34.6220072 15.2704605,34.7132796 C15.2704605,34.7667025 15.2684959,34.8197312 15.2653525,34.8725627 C15.2643702,34.8867563 15.2631914,34.9007527 15.2620126,34.9149462 C15.2590657,34.9543728 15.2553329,34.9936022 15.2506178,35.0326344 C15.2486532,35.0474194 15.246885,35.0622043 15.2449204,35.0769892 C15.23883,35.1207527 15.2317574,35.164319 15.223506,35.2072939 C15.2221307,35.2147849 15.2209519,35.222276 15.2195767,35.2295699 C15.2091642,35.2814158 15.19718,35.3328674 15.1838205,35.3835305 C15.1820524,35.3904301 15.1798913,35.3971326 15.1781231,35.4040323 C15.1663354,35.4474014 15.1533688,35.4901792 15.13942,35.5327599 C15.1358837,35.5437993 15.1321509,35.5546416 15.1282216,35.565681 C15.1140763,35.6068817 15.0989487,35.6476882 15.0828388,35.6881004 C15.0798919,35.6953943 15.0773379,35.7026882 15.0741945,35.7099821 C15.0341161,35.8077599 14.9883403,35.9025806 14.9370636,35.9940502 C14.9347061,35.9983871 14.9321521,36.002724 14.9295981,36.0070609 C14.9056296,36.0492473 14.8806789,36.0908423 14.8545494,36.1314516 C14.8519954,36.1353943 14.8494414,36.1395341 14.8468873,36.1434767 C14.7590686,36.2783154 14.6594621,36.4046774 14.5494431,36.5209857 C14.5490502,36.5213799 14.5488537,36.5215771 14.5484608,36.5219713 C14.3997387,36.6786918 14.2317632,36.817276 14.0486602,36.9335842 C13.9494466,36.9966667 13.8459109,37.0530466 13.7384459,37.1025269 C13.7345167,37.1043011 13.7303909,37.1060753 13.7264617,37.1078495 C13.6211578,37.1555556 13.5123176,37.1965591 13.4001375,37.2302688 C13.3924754,37.2326344 13.3846169,37.2346057 13.3767584,37.2369713 C13.329411,37.2507706 13.2812777,37.2629928 13.232555,37.2742294 C13.2229283,37.2763978 13.2131052,37.2789606 13.2034785,37.2809319 C13.1488619,37.2927599 13.093656,37.3030108 13.0378606,37.3112903 C13.028234,37.3126703 13.0184108,37.3136559 13.0089806,37.3150358 C12.9630084,37.3213441 12.9166433,37.3262724 12.8698852,37.3302151 C12.8539717,37.331595 12.8378618,37.3327778 12.8217519,37.3339606 C12.7679211,37.3373118 12.7136975,37.3396774 12.6588845,37.3398746 C12.6567234,37.3398746 12.6547587,37.3398746 12.6525977,37.3398746 C12.5616355,37.3398746 12.4879621,37.4137993 12.4879621,37.5050717 C12.4879621,37.5506093 12.5064296,37.5920072 12.5362919,37.6217742 C12.5661542,37.6517384 12.6072148,37.6702688 12.6525977,37.6702688 C12.6594738,37.6702688 12.66635,37.6706631 12.6732262,37.6706631 C12.7219489,37.6712545 12.7704752,37.6730287 12.8186085,37.6759857 C12.8368795,37.6771685 12.8551505,37.6787455 12.8734215,37.6803226 C12.9164468,37.683871 12.9590792,37.6886022 13.0015151,37.694319 C13.0144816,37.6958961 13.0276446,37.697276 13.0404146,37.6992473 C13.0942454,37.7073297 13.1474867,37.7171864 13.2001387,37.7284229 C13.2127123,37.7311828 13.2248929,37.7343369 13.2374665,37.7370968 C13.2828494,37.7475448 13.3278393,37.7591756 13.3724363,37.7719892 C13.3824559,37.7749462 13.3924754,37.777509 13.4022986,37.7804659 C13.512907,37.8137814 13.6203719,37.8541935 13.7243006,37.9013082 C13.7298016,37.903871 13.735499,37.9064337 13.7409999,37.9089964 C13.8468932,37.9578853 13.9492502,38.0134767 14.0470885,38.0753763 C14.0482673,38.076362 14.0496425,38.0771505 14.0510177,38.0781362 C14.0954183,38.1063262 14.1390329,38.1358961 14.1816653,38.1668459 C14.1824512,38.1674373 14.183237,38.1680287 14.1840229,38.1686201 C14.3134916,38.2626523 14.4341196,38.3683154 14.5443351,38.4840323 C14.547282,38.4869892 14.5500325,38.4901434 14.5529794,38.4932975 C14.6608374,38.6074373 14.7584792,38.7314337 14.8447263,38.8637097 C14.848852,38.8700179 14.8529777,38.8765233 14.8571034,38.8830287 C14.8812683,38.9208781 14.9044509,38.959319 14.9268476,38.9983513 C14.9307768,39.0052509 14.9347061,39.0119534 14.9384389,39.018853 C14.9887333,39.1087455 15.0339196,39.2021864 15.0734086,39.29819 C15.0773379,39.3074552 15.0806777,39.3169176 15.0844105,39.3261828 C15.0995381,39.3642294 15.1138799,39.4028674 15.1274358,39.4418996 C15.131758,39.4545161 15.1358837,39.4669355 15.1400094,39.479552 C15.1533688,39.5199642 15.1655495,39.5607706 15.1767479,39.6019713 C15.1791054,39.6106452 15.1818559,39.6191219 15.1842135,39.6277957 C15.1973764,39.6778674 15.2091642,39.7285305 15.2193802,39.7797849 C15.2209519,39.7882616 15.2223272,39.7969355 15.2238989,39.8056093 C15.2319538,39.8474014 15.23883,39.8897849 15.2447239,39.9323656 C15.246885,39.9477419 15.2488496,39.9631183 15.2506178,39.9784946 C15.2553329,40.0169355 15.2590657,40.0555735 15.2620126,40.0944086 C15.2631914,40.1087993 15.2643702,40.12319 15.2653525,40.1377778 C15.2684959,40.1904122 15.2704605,40.2434409 15.2704605,40.2968638 C15.2704605,40.3197312 15.2751756,40.3414158 15.283427,40.361129 C15.3083778,40.4204659 15.3669236,40.4620609 15.4350961,40.4620609 C15.5258617,40.4620609 15.5995352,40.3881362 15.5995352,40.2970609 C15.5995352,40.2946953 15.5997316,40.292724 15.5997316,40.2903584 C15.5999281,40.2373297 15.6020892,40.1846953 15.6052326,40.1322581 C15.6064114,40.1153047 15.6077866,40.0983513 15.6091618,40.0813978 C15.6125017,40.0407885 15.6166274,40.0005735 15.6217354,39.9603584 C15.6237001,39.9453763 15.6254682,39.9301971 15.6276293,39.9152151 C15.6352914,39.8627778 15.6441322,39.8107348 15.6549376,39.7594803 C15.6572952,39.7476523 15.6604386,39.7360215 15.6629926,39.7241935 C15.6722263,39.68319 15.6822459,39.6427778 15.6930513,39.6025627 C15.69757,39.5860036 15.7022851,39.5696416 15.7071966,39.5532796 C15.7189844,39.5126703 15.7319509,39.4726523 15.7458997,39.4328315 C15.7494361,39.4223835 15.7525795,39.4119355 15.7565087,39.4014875 C15.7739939,39.3529928 15.7932472,39.3052867 15.8134828,39.258172 C15.8193767,39.2441756 15.82586,39.2305735 15.8321468,39.2167742 C15.8480602,39.1816846 15.8645631,39.1469892 15.8818518,39.1126882 C15.8893174,39.0981004 15.8965865,39.0833154 15.9042485,39.0689247 C15.9280205,39.0241756 15.9525783,38.9798208 15.9787078,38.9366487 C16.4382336,38.1780824 17.2698594,37.6702688 18.217398,37.6702688 C18.3083602,37.6702688 18.3818371,37.5963441 18.3818371,37.5050717 C18.3818371,37.4139964 18.3081637,37.3400717 18.217398,37.3400717" id="Fill-52" fill="#B12655"></path>
                            <path d="M50.6552037,72.5150556 C49.7086474,72.5150556 48.8778075,72.0082276 48.4180852,71.2510412 C48.390777,71.2062921 48.3654333,71.1603602 48.3408755,71.1138369 C48.3341957,71.1012204 48.3277125,71.0884068 48.3212292,71.0755932 C48.3027617,71.0393208 48.2852766,71.002457 48.2685773,70.9651989 C48.2628799,70.9529767 48.2571824,70.9407545 48.251878,70.9283351 C48.2312494,70.8804319 48.2116031,70.8319373 48.1937251,70.782457 C48.1905817,70.7737832 48.1878312,70.7647151 48.1848842,70.7558441 C48.170346,70.7144462 48.1567901,70.6726541 48.144413,70.6302706 C48.1398943,70.6148943 48.1355722,70.5995179 48.1314464,70.5841416 C48.1198552,70.5425466 48.1096391,70.5005573 48.1002089,70.458371 C48.0978514,70.4475287 48.0951009,70.4370806 48.0927433,70.4262384 C48.0821344,70.3745896 48.0729006,70.3223495 48.0652386,70.2695179 C48.063274,70.2549301 48.0615058,70.2401452 48.0597376,70.2253602 C48.0544331,70.184948 48.0503074,70.1443387 48.0469676,70.1033351 C48.0455923,70.0865789 48.0440206,70.0698226 48.0430383,70.0528692 C48.0398949,70.000629 48.0377338,69.9479946 48.0375374,69.8947688 C48.0375374,69.8926004 48.0373409,69.8904319 48.0373409,69.8882634 C48.0373409,69.8427258 48.0188734,69.801328 47.9892076,69.7715609 C47.9593453,69.7415968 47.9182846,69.7230663 47.8729018,69.7230663 C47.7819397,69.7230663 47.7082662,69.796991 47.7082662,69.8882634 C47.7082662,69.9416864 47.7063016,69.9947151 47.7031582,70.0475466 C47.7021759,70.0617401 47.7009971,70.0757366 47.6998183,70.0899301 C47.6968714,70.1293566 47.6931386,70.168586 47.6884235,70.2076183 C47.6864589,70.2224032 47.6846907,70.2371882 47.6827261,70.2519731 C47.6766358,70.2957366 47.6695631,70.3393029 47.6613117,70.3822778 C47.6599364,70.3897688 47.6587577,70.3972599 47.6573824,70.4045538 C47.6469699,70.4563996 47.6349857,70.5078513 47.6216263,70.5585143 C47.6198581,70.565414 47.617697,70.5721165 47.6159288,70.5790161 C47.6041411,70.6223853 47.5911746,70.6651631 47.5772257,70.7077437 C47.5736894,70.7187832 47.5699566,70.7296254 47.5660274,70.7406649 C47.5518821,70.7818656 47.5367545,70.822672 47.5206445,70.8630842 C47.5176976,70.8703781 47.5151436,70.877672 47.5120002,70.8849659 C47.4719218,70.9827437 47.4261461,71.0775645 47.3748694,71.1690341 C47.3725118,71.173371 47.3699578,71.1777079 47.3674038,71.1820448 C47.3434354,71.2242312 47.3184846,71.2658262 47.2923551,71.3064355 C47.2898011,71.3103781 47.2872471,71.3145179 47.2846931,71.3184606 C47.1968743,71.4532993 47.0972678,71.5796613 46.9872488,71.6959695 C46.9868559,71.6963638 46.9866595,71.6965609 46.9862665,71.6969552 C46.8375444,71.8536756 46.669569,71.9922599 46.4864659,72.1085681 C46.3872524,72.1716505 46.2837166,72.2280305 46.1762516,72.2775108 C46.1723224,72.2792849 46.1681967,72.2810591 46.1642674,72.2828333 C46.0589635,72.3305394 45.9501233,72.371543 45.8379432,72.4052527 C45.8302812,72.4076183 45.8224227,72.4095896 45.8145642,72.4119552 C45.7672167,72.4257545 45.7190834,72.4379767 45.6703607,72.4492133 C45.660734,72.4513817 45.6509109,72.4539444 45.6412842,72.4559158 C45.5866677,72.4677437 45.5314617,72.4779946 45.4756664,72.4862742 C45.4660397,72.4876541 45.4562166,72.4886398 45.4467864,72.4900197 C45.4008141,72.496328 45.354449,72.5012563 45.3076909,72.5051989 C45.2917775,72.5065789 45.2756675,72.5077616 45.2595576,72.5089444 C45.2057269,72.5122957 45.1515032,72.5146613 45.0966902,72.5148584 C45.0945291,72.5148584 45.0925645,72.5148584 45.0904034,72.5148584 C44.9994413,72.5148584 44.9257678,72.5887832 44.9257678,72.6800556 C44.9257678,72.7255932 44.9442353,72.766991 44.9740976,72.7967581 C45.0039599,72.8267222 45.0450206,72.8452527 45.0904034,72.8452527 C45.0972796,72.8452527 45.1041558,72.845647 45.111032,72.845647 C45.1597547,72.8462384 45.2082809,72.8480125 45.2564142,72.8509695 C45.2746852,72.8521523 45.2929562,72.8537294 45.3112272,72.8553065 C45.3542525,72.8588548 45.3968849,72.863586 45.4393208,72.8693029 C45.4522873,72.8708799 45.4654503,72.8722599 45.4782204,72.8742312 C45.5320511,72.8823136 45.5852924,72.8921703 45.6379444,72.9034068 C45.650518,72.9061667 45.6626987,72.9093208 45.6752723,72.9120806 C45.7206551,72.9225287 45.765645,72.9341595 45.810242,72.9469731 C45.8202616,72.9499301 45.8302812,72.9524928 45.8401043,72.9554498 C45.9507127,72.9887652 46.0581777,73.0291774 46.1621063,73.0762921 C46.1676073,73.0788548 46.1733047,73.0814176 46.1788056,73.0839803 C46.2846989,73.1328692 46.3870559,73.1884606 46.4848942,73.2503602 C46.486073,73.2513459 46.4874482,73.2521344 46.4888235,73.2531201 C46.533224,73.28131 46.5768387,73.3108799 46.619471,73.3418297 C46.6202569,73.3424211 46.6210427,73.3430125 46.6218286,73.3436039 C46.7512974,73.4376362 46.8719254,73.5432993 46.9821408,73.6590161 C46.9850878,73.6619731 46.9878382,73.6651272 46.9907852,73.6682814 C47.0986431,73.7824211 47.1962849,73.9064176 47.282532,74.0386935 C47.2866577,74.0450018 47.2907834,74.0515072 47.2949091,74.0580125 C47.319074,74.095862 47.3422566,74.1343029 47.3646533,74.1733351 C47.3685826,74.1802348 47.3725118,74.1869373 47.3762446,74.1938369 C47.426539,74.2837294 47.4717254,74.3771703 47.5112143,74.4731738 C47.5151436,74.4824391 47.5184834,74.4919014 47.5222162,74.5011667 C47.5373438,74.5392133 47.5516856,74.5778513 47.5652415,74.6168835 C47.5695637,74.6295 47.5736894,74.6419194 47.5778151,74.6545358 C47.5911746,74.694948 47.6033552,74.7357545 47.6145536,74.7769552 C47.6169112,74.785629 47.6196616,74.7941057 47.6220192,74.8027796 C47.6351822,74.8528513 47.6469699,74.9035143 47.657186,74.9547688 C47.6587577,74.9632455 47.6601329,74.9719194 47.6617046,74.9805932 C47.6697596,75.0223853 47.6766358,75.0647688 47.6825296,75.1073495 C47.6846907,75.1227258 47.6866553,75.1381022 47.6884235,75.1534785 C47.6931386,75.1919194 47.6968714,75.2305573 47.6998183,75.2693925 C47.7009971,75.2837832 47.7021759,75.2981738 47.7031582,75.3127616 C47.7063016,75.3653961 47.7082662,75.4184247 47.7082662,75.4718477 C47.7082662,75.4947151 47.7129813,75.5163996 47.7212327,75.5361129 C47.7461835,75.5954498 47.8047293,75.6370448 47.8729018,75.6370448 C47.9636675,75.6370448 48.0373409,75.5631201 48.0373409,75.4720448 C48.0373409,75.4696792 48.0375374,75.4677079 48.0375374,75.4653423 C48.0377338,75.4123136 48.0398949,75.3596792 48.0430383,75.3072419 C48.0440206,75.2902885 48.0455923,75.2733351 48.0469676,75.2563817 C48.0503074,75.2157724 48.0544331,75.1755573 48.0595412,75.1353423 C48.0615058,75.1203602 48.063274,75.105181 48.065435,75.0900018 C48.0730971,75.0377616 48.0819379,74.9857186 48.0927433,74.9344642 C48.0951009,74.9226362 48.0982443,74.9110054 48.1007983,74.8991774 C48.110032,74.8581738 48.1198552,74.8177616 48.1308571,74.7775466 C48.1353757,74.7609875 48.1400908,74.7446254 48.1450024,74.7282634 C48.1567901,74.6876541 48.1697566,74.6476362 48.1837055,74.6078154 C48.1872418,74.5973674 48.1903852,74.5869194 48.1943144,74.5764713 C48.2117996,74.5279767 48.2310529,74.4802706 48.2512886,74.4331559 C48.2571824,74.4191595 48.2636657,74.4055573 48.2699525,74.3917581 C48.285866,74.3566685 48.3023688,74.3219731 48.3196575,74.287672 C48.3271231,74.2730842 48.3343922,74.2582993 48.3420543,74.2439086 C48.3658262,74.1991595 48.390384,74.1548047 48.4165135,74.1116326 C48.8760393,73.3530663 49.7076651,72.8452527 50.6552037,72.8452527 C50.7461659,72.8452527 50.8196429,72.771328 50.8196429,72.6800556 C50.8196429,72.5889803 50.7459694,72.5150556 50.6552037,72.5150556" id="Fill-54" fill="#F8C3D7"></path>
                            <path d="M64.2572261,2.9078638 C63.3106698,2.9078638 62.4798298,2.40103584 62.0201076,1.64384946 C61.9927993,1.59910036 61.9674556,1.55316846 61.9428978,1.50664516 C61.9362181,1.49402867 61.9297348,1.48121505 61.9232516,1.46840143 C61.9047841,1.43212903 61.8872989,1.39526523 61.8705996,1.35800717 C61.8649022,1.34578495 61.8592048,1.33356272 61.8539003,1.32114337 C61.8332717,1.27324014 61.8136255,1.22474552 61.7957474,1.17526523 C61.792604,1.1665914 61.7898535,1.1575233 61.7869066,1.14865233 C61.7723684,1.10725448 61.7588125,1.06546237 61.7464353,1.02307885 C61.7419167,1.00770251 61.7375945,0.992326165 61.7334688,0.976949821 C61.722074,0.935354839 61.7116615,0.893365591 61.7022313,0.851179211 C61.6998737,0.840336918 61.6971232,0.829888889 61.6947657,0.819046595 C61.6841567,0.767397849 61.674923,0.715157706 61.6672609,0.662326165 C61.6652963,0.647738351 61.6635281,0.632953405 61.66176,0.618168459 C61.6564555,0.577756272 61.6523298,0.537146953 61.6489899,0.496143369 C61.6476147,0.479387097 61.646043,0.462630824 61.6450607,0.445677419 C61.6419173,0.393437276 61.6397562,0.340802867 61.6395597,0.287577061 C61.6395597,0.285408602 61.6393633,0.283240143 61.6393633,0.281071685 C61.6393633,0.23553405 61.6208958,0.194136201 61.5912299,0.164369176 C61.5613676,0.134405018 61.520307,0.115874552 61.4749241,0.115874552 C61.383962,0.115874552 61.3102886,0.189799283 61.3102886,0.281071685 C61.3102886,0.334494624 61.3083239,0.387523297 61.3051805,0.440354839 C61.3041982,0.454548387 61.3030195,0.468544803 61.3018407,0.482738351 C61.2988937,0.522164875 61.295161,0.561394265 61.2904459,0.600229391 C61.2884812,0.61521147 61.2867131,0.629996416 61.2847484,0.644781362 C61.2786581,0.688544803 61.2715855,0.732111111 61.263334,0.775086022 C61.2619588,0.782577061 61.26078,0.7900681 61.2594048,0.797362007 C61.2489923,0.849207885 61.2370081,0.900659498 61.2236486,0.951322581 C61.2218804,0.958222222 61.2197194,0.964924731 61.2179512,0.971824373 C61.2061634,1.01519355 61.1931969,1.05797133 61.1792481,1.10055197 C61.1757118,1.1115914 61.171979,1.12243369 61.1680497,1.13347312 C61.1539044,1.17467384 61.1387768,1.21548029 61.1226669,1.25589247 C61.1197199,1.26318638 61.1171659,1.27048029 61.1140225,1.27777419 C61.0739442,1.37555197 61.0281684,1.47037276 60.9768917,1.56184229 C60.9745342,1.56617921 60.9719801,1.57051613 60.9694261,1.57485305 C60.9454577,1.61703943 60.920507,1.65863441 60.8943775,1.69924373 C60.8918234,1.70318638 60.8892694,1.70732616 60.8867154,1.71126882 C60.7988967,1.84610753 60.6992902,1.97246953 60.5892712,2.08877778 C60.5888783,2.08917204 60.5886818,2.08936918 60.5882889,2.08976344 C60.4395668,2.24648387 60.2715913,2.3850681 60.0884883,2.50137634 C59.9892747,2.56445878 59.885739,2.62083871 59.778274,2.670319 C59.7743447,2.67209319 59.770219,2.67386738 59.7662898,2.67564158 C59.6609859,2.72334767 59.5521456,2.76435125 59.4399656,2.79806093 C59.4323035,2.80042652 59.424445,2.80239785 59.4165865,2.80476344 C59.3692391,2.81856272 59.3211057,2.83078495 59.272383,2.84202151 C59.2627564,2.84418996 59.2529333,2.84675269 59.2433066,2.84872401 C59.18869,2.86055197 59.1334841,2.87080287 59.0776887,2.87908244 C59.068062,2.88046237 59.0582389,2.88144803 59.0488087,2.88282796 C59.0028365,2.8891362 58.9564713,2.89406452 58.9097133,2.89800717 C58.8937998,2.8993871 58.8776899,2.90056989 58.8615799,2.90175269 C58.8077492,2.90510394 58.7535256,2.90746953 58.6987125,2.90766667 C58.6965514,2.90766667 58.6945868,2.90766667 58.6924257,2.90766667 C58.6014636,2.90766667 58.5277902,2.9815914 58.5277902,3.0728638 C58.5277902,3.11840143 58.5462576,3.15979928 58.5761199,3.18956631 C58.6059822,3.21953047 58.6470429,3.23806093 58.6924257,3.23806093 C58.6993019,3.23806093 58.7061781,3.2384552 58.7130543,3.2384552 C58.761777,3.23904659 58.8103032,3.24082079 58.8584365,3.24377778 C58.8767076,3.24496057 58.8949786,3.24653763 58.9132496,3.2481147 C58.9562749,3.25166308 58.9989072,3.25639427 59.0413431,3.26211111 C59.0543097,3.26368817 59.0674727,3.2650681 59.0802427,3.26703943 C59.1340734,3.27512186 59.1873148,3.28497849 59.2399667,3.29621505 C59.2525403,3.29897491 59.264721,3.30212903 59.2772946,3.30488889 C59.3226774,3.31533692 59.3676674,3.32696774 59.4122643,3.33978136 C59.4222839,3.34273835 59.4323035,3.34530108 59.4421266,3.34825806 C59.552735,3.38157348 59.6602,3.42198566 59.7641287,3.46910036 C59.7696296,3.47166308 59.775327,3.47422581 59.780828,3.47678853 C59.8867213,3.52567742 59.9890782,3.58107168 60.0869166,3.64316846 C60.0880953,3.64415412 60.0894706,3.64494265 60.0908458,3.64592832 C60.1352463,3.67411828 60.178861,3.70368817 60.2214934,3.73463799 C60.2222792,3.73522939 60.2230651,3.73582079 60.2238509,3.73641219 C60.3533197,3.83044444 60.4739477,3.93610753 60.5841632,4.05182437 C60.5871101,4.05478136 60.5898606,4.05793548 60.5928075,4.06089247 C60.7006654,4.17522939 60.7983073,4.29922581 60.8845543,4.43150179 C60.88868,4.43781004 60.8928058,4.44431541 60.8969315,4.45082079 C60.9210964,4.48867025 60.9442789,4.52711111 60.9666757,4.56614337 C60.9706049,4.57304301 60.9745342,4.57974552 60.9782669,4.58664516 C61.0285613,4.67653763 61.0737477,4.76997849 61.1132367,4.86598208 C61.1171659,4.87524731 61.1205058,4.88470968 61.1242386,4.89397491 C61.1393662,4.93202151 61.153708,4.9706595 61.1672639,5.00969176 C61.171586,5.02230824 61.1757118,5.0347276 61.1798375,5.04734409 C61.1931969,5.08775627 61.2053776,5.12856272 61.216576,5.16976344 C61.2189335,5.17843728 61.221684,5.18691398 61.2240415,5.19558781 C61.2372045,5.2456595 61.2489923,5.29632258 61.2592083,5.34757706 C61.26078,5.35605376 61.2621553,5.3647276 61.263727,5.37340143 C61.2717819,5.41519355 61.2786581,5.45757706 61.284552,5.50015771 C61.2867131,5.51553405 61.2886777,5.53091039 61.2904459,5.54628674 C61.295161,5.5847276 61.2988937,5.62336559 61.3018407,5.66220072 C61.3030195,5.6765914 61.3041982,5.69098208 61.3051805,5.70556989 C61.3083239,5.7582043 61.3102886,5.81123297 61.3102886,5.86465591 C61.3102886,5.8875233 61.3150037,5.90920789 61.3232551,5.92892115 C61.3482058,5.98825806 61.4067517,6.02985305 61.4749241,6.02985305 C61.5656898,6.02985305 61.6393633,5.95592832 61.6393633,5.86485305 C61.6393633,5.86248746 61.6395597,5.86051613 61.6395597,5.85815054 C61.6397562,5.80512186 61.6419173,5.75248746 61.6450607,5.70005018 C61.6462394,5.68309677 61.6476147,5.66614337 61.6489899,5.64918996 C61.6523298,5.60858065 61.6564555,5.56836559 61.6615635,5.52815054 C61.6635281,5.51316846 61.6652963,5.49798925 61.6674574,5.48281004 C61.6751194,5.43056989 61.6839602,5.37852688 61.6947657,5.3272724 C61.6971232,5.31544444 61.7002666,5.30381362 61.7028206,5.29198566 C61.7120544,5.25098208 61.722074,5.21056989 61.7328794,5.17035484 C61.737398,5.1537957 61.7421131,5.13743369 61.7470247,5.12107168 C61.7588125,5.08046237 61.771779,5.04044444 61.7857278,5.00062366 C61.7892641,4.99017563 61.7924075,4.9797276 61.7963368,4.96927957 C61.813822,4.92078495 61.8330753,4.87307885 61.8533109,4.82596416 C61.8592048,4.81196774 61.8656881,4.79836559 61.8719749,4.78456631 C61.8878883,4.7494767 61.9043912,4.71478136 61.9216799,4.68048029 C61.9291454,4.66589247 61.9364146,4.65110753 61.9440766,4.63671685 C61.9678486,4.59196774 61.9924064,4.5476129 62.0185359,4.50444086 C62.4780617,3.74587455 63.3096874,3.23806093 64.2572261,3.23806093 C64.3481882,3.23806093 64.4216652,3.1641362 64.4216652,3.0728638 C64.4216652,2.98178853 64.3479918,2.9078638 64.2572261,2.9078638" id="Fill-56" fill="#B12655"></path>
                            <path d="M67.8163015,25.2045484 C66.6724968,25.2045484 65.6220118,24.7544946 64.6943159,23.8672007 C64.3518817,23.5395663 64.0896043,23.2089749 63.9096446,22.9544767 L67.8164979,22.9544767 L67.8164979,22.3281864 L64.1389164,22.3281864 C64.2025702,22.2558387 64.2687781,22.1791541 64.3377364,22.0989211 C64.7131763,21.6634552 65.1389105,21.1698351 65.5892026,20.8776846 C66.3557992,20.380319 67.1440068,20.3477921 67.5976387,20.7948889 L67.8163015,21.0103548 L67.8164979,21.0101577 L67.8164979,20.1656416 C67.8164979,20.1656416 67.8163015,20.1656416 67.8163015,20.1658387 C67.1416492,19.6946918 66.1671952,19.7567885 65.2503047,20.3515376 C64.724964,20.6923799 64.2485424,21.2449427 63.865637,21.6890824 C63.6202554,21.9737419 63.3422609,22.2962509 63.2112204,22.3569677 L62.9135797,22.4951577 L63.0656417,22.7865197 C63.0817516,22.8178638 63.473105,23.5596738 64.2479531,24.3056237 C65.2842928,25.303509 66.5182737,25.8310358 67.8163015,25.8310358 C67.8163015,25.8310358 67.8164979,25.8310358 67.8164979,25.8310358 L67.8164979,25.2045484 C67.8164979,25.2045484 67.8163015,25.2045484 67.8163015,25.2045484" id="Fill-58" fill="#AF2A56"></path>
                            <path d="M62.9303969,22.5008548 L63.0763686,22.7807832 C63.092675,22.8119301 63.482653,23.5517688 64.2563224,24.296733 C65.2873576,25.2892957 66.513873,25.8154427 67.8044351,25.8185968 L67.8044351,25.2167509 C66.6620057,25.2135968 65.6126995,24.7625573 64.6859859,23.876052 C64.3993471,23.6020376 64.1349085,23.2943136 63.8997429,22.9615538 L63.8859905,22.9422348 L67.8044351,22.9422348 L67.8044351,22.3403889 L64.111726,22.3403889 L64.1298005,22.3198871 C64.192472,22.2485251 64.2576976,22.1730233 64.3256736,22.0941703 L64.3284241,22.0910161 C64.7046498,21.6547616 65.130777,21.160353 65.5826407,20.867414 C66.3541489,20.3666971 67.1484468,20.3349588 67.6062045,20.7859982 L67.8044351,20.9813566 L67.8044351,20.1723244 C67.1315511,19.7061057 66.1561147,19.7786505 65.2569059,20.3619659 C64.7329404,20.7018226 64.2573047,21.2537939 63.8749886,21.6971452 C63.6288211,21.9825932 63.3498444,22.3062849 63.2162499,22.3681846 L62.9303969,22.5008548 Z M67.8287965,25.8432384 L67.8166158,25.8432384 C66.5150517,25.8432384 65.2781238,25.3145287 64.2394266,24.3144749 C63.4628103,23.5667509 63.0710641,22.8235609 63.0547577,22.7922168 L62.8968018,22.4894211 L63.2060338,22.3459086 C63.3347168,22.2861774 63.6117289,21.9646541 63.8563247,21.6811774 C64.239623,21.2364462 64.716634,20.683095 65.2435464,20.341267 C66.1504173,19.7528262 67.1354803,19.6802814 67.8166158,20.1510341 L67.8286,20.143543 L67.8287965,20.1656219 L67.8287965,21.0152634 L67.8166158,21.0274857 L67.807775,21.0192061 L67.5889158,20.803543 C67.139606,20.3607832 66.3572923,20.3939014 65.5958037,20.8879158 C65.1470833,21.1792778 64.722135,21.6721093 64.347088,22.1069839 L64.3443376,22.110138 C64.2826483,22.1816971 64.2233167,22.2504964 64.1661461,22.3157473 L67.8287965,22.3157473 L67.8287965,22.9668763 L63.9335345,22.9668763 C64.1643779,23.2907652 64.423119,23.5906039 64.7028816,23.85831 C65.62822,24.7434355 66.6757581,25.1923065 67.8162229,25.1923065 L67.8287965,25.1923065 L67.8287965,25.8432384 Z" id="Fill-60" fill="#AF2A56"></path>
                            <path d="M72.5670202,22.7865591 L72.7190821,22.4951971 L72.4214414,22.3570072 C72.290401,22.2962903 72.0124065,21.9737814 71.7670248,21.6891219 C71.3841194,21.2449821 70.9075014,20.6924194 70.3823571,20.3515771 C69.4654666,19.756828 68.4912091,19.6945341 67.8165569,20.1654839 L67.8165569,21.0101971 L68.0350232,20.7947312 C68.4884586,20.3478315 69.2768626,20.3803584 70.0434593,20.877724 C70.4937514,21.1698746 70.9192892,21.6634946 71.2949255,22.0989606 C71.3638838,22.1789964 71.4300917,22.255681 71.4937455,22.3280287 L67.8165569,22.3280287 L67.8165569,22.9545161 L71.7234102,22.9545161 C71.5465939,23.2046774 71.2894245,23.5289606 70.9524913,23.853638 C70.5426705,24.2481004 70.0992547,24.5619355 69.6346209,24.7860753 C69.0593787,25.063638 68.4475944,25.2045878 67.8165569,25.2045878 L67.8165569,25.8310753 C69.1145846,25.8308781 70.3483691,25.3033513 71.3847088,24.3054659 C72.1593605,23.5595161 72.5507138,22.8177061 72.5670202,22.7865591" id="Fill-62" fill="#ED82A4"></path>
                            <path d="M67.8288554,25.21681 L67.8288554,25.8186559 C69.1190247,25.8153047 70.3455401,25.2891577 71.3761823,24.296595 C72.1498517,23.5516308 72.5400262,22.8119892 72.5561361,22.7808423 L72.7023042,22.500914 L72.4162548,22.3682437 C72.2828568,22.3063441 72.00388,21.9828495 71.757909,21.6974014 C71.3753965,21.2536559 70.8997608,20.7018817 70.3757953,20.361828 C69.4767829,19.7787097 68.5017395,19.706362 67.8288554,20.1719892 L67.8288554,20.9808244 L68.0264967,20.7860573 C68.4842543,20.3348208 69.2785522,20.3667563 70.0500605,20.867276 C70.5019242,21.1604122 70.9280514,21.6548208 71.3040806,22.0908781 L71.3068311,22.0940323 C71.3750036,22.1730824 71.4400327,22.2485842 71.5029007,22.3199462 L71.5207787,22.340448 L67.8288554,22.340448 L67.8288554,22.9422939 L71.7473,22.9422939 L71.7335476,22.9616129 C71.5032936,23.287276 71.2433737,23.5904659 70.9608606,23.8623118 C70.550254,24.257957 70.1058558,24.5723835 69.6400432,24.7971147 C69.0667656,25.0736918 68.457339,25.2150358 67.8288554,25.21681 Z M67.8042976,25.8432975 L67.8042976,25.1921685 L67.8166747,25.1921685 C68.4457477,25.1921685 69.0557637,25.05181 69.6294342,24.7750358 C70.0928893,24.5512903 70.5351264,24.2382437 70.9439648,23.8445699 C71.2197982,23.5790323 71.4738242,23.2839247 71.6997561,22.9667384 L67.8042976,22.9667384 L67.8042976,22.3158065 L71.4665551,22.3158065 C71.409188,22.2503584 71.3500528,22.1817563 71.2883636,22.1101971 L71.2856131,22.107043 C70.9105662,21.6719713 70.4856178,21.1791398 70.036701,20.8879749 C69.2752124,20.3939606 68.4928987,20.3608423 68.0435889,20.8036022 L67.8042976,21.0393728 L67.8042976,20.1591756 L67.8096021,20.1554301 C68.4909341,19.6797491 69.4793369,19.7511111 70.3889583,20.3413262 C70.9158707,20.6831541 71.3928817,21.2365054 71.77618,21.6810394 C72.0209723,21.9647133 72.2979844,22.2862366 72.4266673,22.3459677 L72.7358993,22.4892832 L72.5779435,22.792276 C72.5616371,22.8236201 72.1696944,23.56681 71.3932746,24.3143369 C70.3545773,25.3145878 69.1178459,25.8432975 67.8166747,25.8432975 L67.8042976,25.8432975 Z" id="Fill-64" fill="#ED82A4"></path>
                            <path d="M43.788859,30.6146165 C42.9161725,29.7389534 41.7590084,29.2577527 40.5250274,29.2577527 C39.3209088,29.2577527 38.1869272,29.7182545 37.3224922,30.5550824 L37.3224922,30.5040251 L37.3042212,30.4864803 C36.4291772,29.6520179 35.2834079,29.1925018 34.0775211,29.1925018 C32.8321453,29.1925018 31.6594606,29.6792222 30.7751829,30.563362 C29.8922804,31.4494731 29.4058392,32.6283262 29.4058392,33.8830753 C29.4058392,35.1338817 29.8932627,36.3117491 30.7785227,37.1996344 L36.5356599,42.9732545 C36.7297648,43.1682186 36.9875236,43.2821613 37.2609994,43.2941864 L37.3224922,43.2969462 L37.3224922,43.2350466 C37.5896812,43.2314982 37.852548,43.1209068 38.0413485,42.9316595 L43.7855191,37.1676989 C44.6582055,36.2920358 45.1377705,35.1275735 45.1411104,33.8927348 C45.1411104,32.6545448 44.6615454,31.4902796 43.788859,30.6146165" id="Fill-66" fill="#F8C3D7"></path>
                            <path d="M37.0126119,42.3742473 L31.2586181,36.6006272 C30.5330821,35.8726165 30.1334774,34.9070609 30.1334774,33.8805914 C30.1334774,32.854319 30.5330821,31.8887634 31.2554747,31.1607527 C31.9778674,30.4358961 32.9401407,30.0349283 33.9629245,30.0349283 C34.9859047,30.0349283 35.9513215,30.4358961 36.6770539,31.1639068 L36.9133983,31.4012545 C36.9762663,31.4643369 37.0577983,31.5035663 37.1460099,31.5138172 L37.1460099,30.5267742 C36.2819678,29.7025627 35.1550589,29.2489606 33.9597811,29.2489606 C32.72914,29.2489606 31.5719758,29.7301613 30.6992894,30.6026703 C29.826603,31.4783333 29.347038,32.6425986 29.347038,33.8805914 C29.347038,35.1156272 29.8297464,36.2798925 30.7024328,37.1555556 L36.4595699,42.9291756 C36.6436553,43.1138889 36.8878582,43.2215233 37.1460099,43.2327599 L37.1460099,42.4398925 C37.0965014,42.4314158 37.0491539,42.4097312 37.0126119,42.3742473" id="Fill-68" fill="#AF2A56"></path>
                            <path d="M33.95984,29.3079624 C32.7458982,29.3079624 31.6026829,29.7826577 30.7408019,30.6445215 C29.8799033,31.5081595 29.4058392,32.6574427 29.4058392,33.8806505 C29.4058392,35.0999158 29.881082,36.2480161 30.7441418,37.1138226 L36.5010825,42.8874427 C36.6598242,43.0467258 36.8661098,43.1454892 37.0873266,43.1691452 L37.0873266,42.4858835 C37.043319,42.4712957 37.00383,42.4478369 36.9718066,42.41669 L31.217027,36.6422814 C30.4802927,35.9030341 30.0745976,34.9222993 30.0745976,33.8806505 C30.0745976,32.8401846 30.4791139,31.8594498 31.2138836,31.1190197 C31.9486534,30.3819409 32.9248756,29.9758477 33.9629834,29.9758477 C35.0032524,29.9758477 35.9818321,30.3831237 36.7185665,31.1221738 L36.9551073,31.3595215 C36.9926317,31.397371 37.0376216,31.4249695 37.0873266,31.4409373 L37.0873266,30.5522634 C36.2366439,29.7497366 35.1270237,29.3079624 33.95984,29.3079624 Z M37.2048112,43.2945215 L37.1435149,43.2917616 C36.8698426,43.2797366 36.6122803,43.1657939 36.4179788,42.9708297 L30.6610382,37.1972097 C29.7757781,36.3093244 29.2883547,35.131457 29.2883547,33.8806505 C29.2883547,32.6259014 29.7745994,31.4470484 30.6576983,30.5609373 C31.541976,29.6767975 32.7146607,29.1900771 33.95984,29.1900771 C35.1657269,29.1900771 36.3116926,29.6495932 37.1865401,30.4840556 L37.2048112,30.5016004 L37.2048112,31.5799158 L37.1393891,31.5724247 C37.0384074,31.5607939 36.943516,31.514862 36.8720037,31.4429086 L36.6354628,31.2057581 C35.9209287,30.4887867 34.9718184,30.0939301 33.9629834,30.0939301 C32.9563096,30.0939301 32.0095568,30.4876039 31.2969873,31.2024068 C30.5846142,31.9203638 30.1922786,32.8715287 30.1922786,33.8806505 C30.1922786,34.8907581 30.585793,35.8419229 31.3001307,36.5588943 L37.0537315,42.3321201 C37.0802539,42.3577473 37.1156172,42.3748978 37.155892,42.3817975 L37.2048112,42.3900771 L37.2048112,43.2945215 Z" id="Fill-70" fill="#AF2A56"></path>
                            <path d="M37.9237067,42.9291559 L43.6678774,37.1651953 C44.5405638,36.2897294 45.0201288,35.125267 45.0234686,33.8904283 C45.0234686,32.6522384 44.5439036,31.487776 43.6712172,30.6121129 C42.7985308,29.7364498 41.6413667,29.2554462 40.4075821,29.2554462 C39.1959979,29.2554462 38.0547472,29.7204821 37.1883476,30.5671667 C37.1743988,30.5535645 37.160057,30.5403566 37.1461082,30.5267545 L37.1461082,31.5137975 C37.1610393,31.5155717 37.1761669,31.5167545 37.1916875,31.5167545 C37.293848,31.5167545 37.3962049,31.4749624 37.4698784,31.4012348 L37.699936,31.1703925 C38.425472,30.4421846 39.3877453,30.041414 40.4138689,30.041414 C41.4366527,30.041414 42.3989261,30.4421846 43.1213187,31.1670412 C43.8470512,31.8952491 44.2435125,32.8606075 44.2435125,33.8870771 C44.2435125,34.9135466 43.8439078,35.878905 43.1181753,36.6071129 L37.3706648,42.3742276 C37.3132977,42.4317903 37.2266578,42.4534749 37.1461082,42.4398728 L37.1461082,43.2327401 C37.1612358,43.2335287 37.1763634,43.2339229 37.1916875,43.2339229 C37.4633951,43.2339229 37.7319593,43.1215573 37.9237067,42.9291559" id="Fill-72" fill="#ED82A4"></path>
                            <path d="M37.2048504,42.5027778 L37.2048504,43.1748029 C37.4569118,43.1712545 37.7030794,43.0669713 37.8822532,42.8873835 L43.6264238,37.1236201 C44.4861437,36.2609677 44.9613865,35.1126703 44.9647263,33.8902509 C44.9647263,32.667043 44.4904658,31.5177599 43.6297636,30.6539247 C42.7688649,29.7900896 41.6244709,29.3144086 40.4075821,29.3144086 C39.2126972,29.3144086 38.0840201,29.774319 37.2294083,30.6095699 L37.2048504,30.6334229 L37.2048504,31.4574373 C37.288347,31.454086 37.3690931,31.4187993 37.4282283,31.3594624 L37.6582859,31.1286201 C38.3950203,30.3893728 39.3736,29.9822939 40.4138689,29.9822939 C41.4519768,29.9822939 42.4283954,30.38819 43.1629687,31.1254659 C43.8977385,31.8625448 44.3022548,32.8432796 44.3022548,33.8870968 C44.3022548,34.9287455 43.8965597,35.9094803 43.1598253,36.6487276 L37.4123148,42.4160394 C37.3586806,42.4696595 37.2842213,42.5002151 37.2048504,42.5027778 M37.1916875,43.2928853 C37.1755775,43.2928853 37.1594676,43.292491 37.1435541,43.2917025 L37.0873659,43.2893369 L37.0873659,42.3701075 L37.1559313,42.3817384 C37.2213533,42.3927778 37.2877576,42.3740502 37.3292112,42.3324552 L43.0767217,36.5653405 C43.7912558,35.8483692 44.1847702,34.8972043 44.1847702,33.8870968 C44.1847702,32.8748208 43.7922381,31.9236559 43.0798651,31.208853 C42.3674921,30.4940502 41.4207393,30.1003763 40.4138689,30.1003763 C39.405034,30.1003763 38.4559237,30.495233 37.7413895,31.2120072 L37.5113319,31.4430466 C37.427246,31.5272222 37.3107437,31.5757168 37.1916875,31.5757168 C37.1753811,31.5757168 37.1582888,31.5745341 37.139232,31.5723656 L37.0873659,31.5662545 L37.0873659,30.3891756 L37.1881511,30.4855735 C38.0598553,29.653871 39.2009095,29.1963262 40.4075821,29.1963262 C41.6559049,29.1963262 42.8297683,29.6844265 43.7128673,30.5705376 C44.5959662,31.4566487 45.0822109,32.6356989 45.0822109,33.890448 C45.078871,35.1444086 44.5914476,36.3220789 43.7095274,37.2070072 L37.9653568,42.9709677 C37.7612323,43.1755914 37.4793086,43.2928853 37.1916875,43.2928853" id="Fill-74" fill="#ED82A4"></path>
                        </g>
                    </g>
                </g>
            </g>
        </g>
    </g>
</svg>