<?xml version="1.0" encoding="UTF-8"?>
<svg width="14px" height="10px" viewBox="0 0 14 10" version="1.1" xmlns="http://www.w3.org/2000/svg" xmlns:xlink="http://www.w3.org/1999/xlink">
    <!-- Generator: Sketch 48.2 (47327) - http://www.bohemiancoding.com/sketch -->
    <title>Page 1</title>
    <desc>Created with Sketch.</desc>
    <defs></defs>
    <g id="User-Profile----Friend-view-following" stroke="none" stroke-width="1" fill="none" fill-rule="evenodd" transform="translate(-107.000000, -262.000000)">
        <g id="PROFILE" transform="translate(0.000000, 59.000000)">
            <g id="button-following" transform="translate(92.000000, 192.000000)">
                <g id="Group-6" transform="translate(16.000000, 7.000000)">
                    <g id="Page-1" transform="translate(0.000000, 5.000000)">
                        <path d="M10.2679408,0.248114286 L3.95385918,6.14097143 L1.4014102,3.75925714 C1.08757347,3.46691429 0.579593878,3.46662857 0.266002041,3.75954286 C-0.0478346939,4.05222857 -0.0478346939,4.52662857 0.266002041,4.81954286 L3.38612449,7.73108571 C3.54279796,7.87731429 3.7481449,7.9504 3.95385918,7.9504 C4.15920612,7.9504 4.36522653,7.87731429 4.52183878,7.7308 C4.52220612,7.73028571 4.52269592,7.72965714 4.52330816,7.72891429 L11.403349,1.30782857 C11.7168796,1.01508571 11.7168796,0.540514286 11.403349,0.248114286 C11.0897571,-0.0446285714 10.5812265,-0.0446285714 10.2679408,0.248114286" id="Fill-1" fill="#FFFFFF"></path>
                        <path d="M10.2679408,0.248114286 L3.95385918,6.14097143 L1.4014102,3.75925714 C1.08757347,3.46691429 0.579593878,3.46662857 0.266002041,3.75954286 C-0.0478346939,4.05222857 -0.0478346939,4.52662857 0.266002041,4.81954286 L3.38612449,7.73108571 C3.54279796,7.87731429 3.7481449,7.9504 3.95385918,7.9504 C4.15920612,7.9504 4.36522653,7.87731429 4.52183878,7.7308 C4.52220612,7.73028571 4.52269592,7.72965714 4.52330816,7.72891429 L11.403349,1.30782857 C11.7168796,1.01508571 11.7168796,0.540514286 11.403349,0.248114286 C11.0897571,-0.0446285714 10.5812265,-0.0446285714 10.2679408,0.248114286 Z" id="Stroke-3" stroke="#FFFFFF"></path>
                    </g>
                </g>
            </g>
        </g>
    </g>
</svg>