<?xml version="1.0" encoding="UTF-8"?>
<svg width="12px" height="12px" viewBox="0 0 12 12" version="1.1" xmlns="http://www.w3.org/2000/svg" xmlns:xlink="http://www.w3.org/1999/xlink">
    <!-- Generator: Sketch 48.2 (47327) - http://www.bohemiancoding.com/sketch -->
    <title>Edit</title>
    <desc>Created with Sketch.</desc>
    <defs></defs>
    <g id="User-Profile----it's-you!" stroke="none" stroke-width="1" fill="none" fill-rule="evenodd" transform="translate(-108.000000, -242.000000)">
        <g id="PROFILE" transform="translate(0.000000, 59.000000)" fill="#F384A7">
            <g id="button-edit" transform="translate(92.000000, 173.000000)">
                <g id="Group-6" transform="translate(16.000000, 7.000000)">
                    <g id="Edit" transform="translate(0.000000, 3.000000)">
                        <path d="M3.85293566,4.4162424 L2.51498725,5.75419081 C2.02205889,6.24711917 1.52624338,6.74004753 1.03620217,7.23860936 C0.920680884,7.35687696 0.833326936,7.51464924 0.799490925,7.66964 C0.622071924,8.48357035 0.450286391,9.29764154 0.27836002,10.1117127 L0.1826615,10.5624253 C0.137523345,10.7820953 0.196674749,11.0018709 0.346032042,11.1510874 C0.461588534,11.2666087 0.622071924,11.3313935 0.791111143,11.3313935 C0.838960403,11.3313935 0.886844873,11.3257601 0.934694133,11.3172395 L1.43050965,11.2131259 C2.21915981,11.046833 3.01066193,10.8777938 3.79927689,10.7145641 C3.9825054,10.6750594 4.13735532,10.5933742 4.26981221,10.4609173 C6.48372953,8.24425364 8.69764685,6.03023069 10.911529,3.81920053 C11.0749347,3.65579478 11.1651758,3.46147537 11.1875688,3.22201782 C11.190456,3.18254834 11.1875688,3.14307886 11.1791891,3.10649654 C11.1651758,3.05023229 11.1538737,2.99094005 11.1397196,2.934711 C11.1087707,2.79098718 11.0749347,2.62772226 11.0074035,2.46994998 C10.5932733,1.5234571 9.90602551,0.847441067 8.96527174,0.467182045 C8.7765858,0.391095032 8.57645689,0.365814849 8.40192504,0.343245772 L8.35407578,0.337612305 C8.10046414,0.306663446 7.8695272,0.391095032 7.66953912,0.593970262 C6.40200905,1.8671338 5.12595836,3.14307886 3.85293566,4.4162424 Z" id="Fill-1"></path>
                    </g>
                </g>
            </g>
        </g>
    </g>
</svg>