<?xml version="1.0" encoding="UTF-8" standalone="no"?>
<svg width="28px" height="28px" viewBox="0 0 28 28" version="1.1" xmlns="http://www.w3.org/2000/svg" xmlns:xlink="http://www.w3.org/1999/xlink">
    <!-- Generator: Sketch 49.3 (51167) - http://www.bohemiancoding.com/sketch -->
    <title>camera icon</title>
    <desc>Created with Sketch.</desc>
    <defs></defs>
    <g id="M1" stroke="none" stroke-width="1" fill="none" fill-rule="evenodd">
        <g id="Write-Review" transform="translate(-768.000000, -956.000000)">
            <g id="mid-content" transform="translate(465.000000, 84.000000)">
                <g id="Product-shot" transform="translate(0.000000, 727.000000)">
                    <g id="image-placeholder-copy-2" transform="translate(260.000000, 102.000000)">
                        <g id="camera-icon" transform="translate(43.846154, 43.846154)">
                            <path d="M26.3076923,13.1538462 C26.3076923,20.4184523 20.4184523,26.3076923 13.1538462,26.3076923 C5.88924,26.3076923 0,20.4184523 0,13.1538462 C0,5.88924 5.88924,0 13.1538462,0 C20.4184523,0 26.3076923,5.88924 26.3076923,13.1538462" id="BG" fill="#E5E5E5"></path>
                            <path d="M18.5548752,12.0018383 C18.2694068,12.0018383 18.0366734,11.7763545 18.0366734,11.498031 C18.0366734,11.2207539 18.2694068,10.9950085 18.5548752,10.9950085 C18.8411507,10.9950085 19.0730769,11.2207539 19.0730769,11.498031 C19.0730769,11.7763545 18.8411507,12.0018383 18.5548752,12.0018383 M13.1538462,17.4699519 C11.1103663,17.4699519 9.45432692,15.8599137 9.45432692,13.8731971 C9.45432692,11.8872653 11.1103663,10.2764423 13.1538462,10.2764423 C15.1965189,10.2764423 16.8533654,11.8872653 16.8533654,13.8731971 C16.8533654,15.8599137 15.1965189,17.4699519 13.1538462,17.4699519 M19.0730769,9.55709135 L17.2967696,9.55709135 C17.0527358,9.55709135 16.7895991,9.37319908 16.7131872,9.14771525 L16.2536397,7.80867614 C16.1761516,7.58293073 15.9140911,7.39903846 15.6697883,7.39903846 L10.637635,7.39903846 C10.3936012,7.39903846 10.1304645,7.58293073 10.0540526,7.80867614 L9.59450507,9.14771525 C9.51701696,9.37319908 9.25495647,9.55709135 9.01065367,9.55709135 L7.23461538,9.55709135 C6.42099021,9.55709135 5.75480769,10.2050304 5.75480769,10.9957933 L5.75480769,17.4699519 C5.75480769,18.2609764 6.42099021,18.9086538 7.23461538,18.9086538 L19.0730769,18.9086538 C19.886433,18.9086538 20.5528846,18.2609764 20.5528846,17.4699519 L20.5528846,10.9957933 C20.5528846,10.2050304 19.886433,9.55709135 19.0730769,9.55709135 M13.1538462,11.7151442 C11.9274892,11.7151442 10.9341346,12.6816903 10.9341346,13.8731971 C10.9341346,15.0654886 11.9274892,16.03125 13.1538462,16.03125 C14.3791269,16.03125 15.3735577,15.0654886 15.3735577,13.8731971 C15.3735577,12.6816903 14.3791269,11.7151442 13.1538462,11.7151442" id="Camera" fill="#FFFFFF"></path>
                        </g>
                    </g>
                </g>
            </g>
        </g>
    </g>
</svg>