<?xml version="1.0" encoding="UTF-8" standalone="no"?>
<svg width="16px" height="16px" viewBox="0 0 16 16" version="1.1" xmlns="http://www.w3.org/2000/svg" xmlns:xlink="http://www.w3.org/1999/xlink">
    <!-- Generator: Sketch 49.3 (51167) - http://www.bohemiancoding.com/sketch -->
    <title>remove</title>
    <desc>Created with Sketch.</desc>
    <defs></defs>
    <g id="Symbols" stroke="none" stroke-width="1" fill="none" fill-rule="evenodd">
        <g id="Products-/-Carousel-/add-product" transform="translate(-128.000000, -10.000000)">
            <g id="remove" transform="translate(128.000000, 10.000000)">
                <circle id="Oval" fill="#F384A7" cx="8" cy="8" r="8"></circle>
                <path d="M4.58804127,11.4119587 C4.7795037,11.6034212 5.09075289,11.6034212 5.28221532,11.4119587 L8,8.69417405 L10.7177847,11.4119587 C10.9092471,11.6034212 11.2204963,11.6034212 11.4119587,11.4119587 C11.6034212,11.2204963 11.6034212,10.9092471 11.4119587,10.7177847 L8.69417405,8 L11.4119587,5.28221532 C11.6034212,5.09075289 11.6034212,4.7795037 11.4119587,4.58804127 C11.2204963,4.39657884 10.9092471,4.39657884 10.7177847,4.58804127 L8,7.30582595 L5.28221532,4.58804127 C5.09075289,4.39657884 4.7795037,4.39657884 4.58804127,4.58804127 C4.39657884,4.7795037 4.39657884,5.09075289 4.58804127,5.28221532 L7.30582595,8 L4.58804127,10.7177847 C4.39657884,10.9092471 4.39657884,11.2204963 4.58804127,11.4119587 Z" id="Shape" fill="#FFFFFF" fill-rule="nonzero"></path>
            </g>
        </g>
    </g>
</svg>